<svg xmlns="http://www.w3.org/2000/svg" viewBox="0 0 303.43 49.66">
    <defs>
        <style>.cls-1{fill:#fff;}</style>
    </defs>
    <g id="レイヤー_2" data-name="レイヤー 2">
        <g id="レイヤー_9" data-name="レイヤー 9">
            <path class="cls-1" d="M23.14,35.32c.16-.36.32-.74.47-1.13,2.58-6.69,3.95-17,4.5-34.19L0,48.69Z"/>
            <path class="cls-1" d="M43,23.86,29.24,0c-.56,17.13-1.93,27.57-4.51,34.39Z"/>
            <path class="cls-1" d="M22.26,37.13,3.12,48.19A36.28,36.28,0,0,0,12.74,46,18.2,18.2,0,0,0,22.26,37.13Z"/>
            <path class="cls-1"
                  d="M43.56,24.83,24,36.12C21,42.75,16.51,45.7,13.15,47A37.45,37.45,0,0,1,3,49.34l-1.79.2-.51.06-.11.06H57.9Z"/>
            <path class="cls-1"
                  d="M89.19,13.16a6.38,6.38,0,0,0-2.84-2.51,9.1,9.1,0,0,0-3.7-.78,11.35,11.35,0,0,0-2.79.35,8.53,8.53,0,0,0-2.46,1.07,5.32,5.32,0,0,0-1.75,1.87A5.5,5.5,0,0,0,75,15.9a5.82,5.82,0,0,0,.38,2.16,4.65,4.65,0,0,0,1.25,1.7A9.36,9.36,0,0,0,79,21.18a30.44,30.44,0,0,0,3.6,1.31c1.38.45,2.73.92,4,1.42A13.7,13.7,0,0,1,90,25.84a8.49,8.49,0,0,1,2.38,2.92,9.65,9.65,0,0,1,.89,4.38,9.48,9.48,0,0,1-3.88,7.94,12.44,12.44,0,0,1-4,1.93,17.9,17.9,0,0,1-7.86.35,14.54,14.54,0,0,1-3-.86A12.46,12.46,0,0,1,71.8,41a9.24,9.24,0,0,1-2.18-2.31l3.65-3a7.49,7.49,0,0,0,3.24,3,9.86,9.86,0,0,0,7.18.61,8.43,8.43,0,0,0,2.51-1.19,6.8,6.8,0,0,0,1.83-2,5.12,5.12,0,0,0,.71-2.69,5.72,5.72,0,0,0-.56-2.71,4.86,4.86,0,0,0-1.73-1.8,12.63,12.63,0,0,0-2.94-1.37l-4.16-1.42a26.78,26.78,0,0,1-3.55-1.4A10.53,10.53,0,0,1,73,22.82a8.37,8.37,0,0,1-1.88-2.73,9.82,9.82,0,0,1-.68-3.83,9.66,9.66,0,0,1,1-4.52,9.67,9.67,0,0,1,2.74-3.22,12.47,12.47,0,0,1,3.91-1.95,15.62,15.62,0,0,1,4.56-.66,15.84,15.84,0,0,1,5.55.94,10.93,10.93,0,0,1,4.49,3.27Z"/>
            <path class="cls-1" d="M106.76,6.83H111v35.9h-4.26Z"/>
            <path class="cls-1"
                  d="M155.68,40.29a25.23,25.23,0,0,1-6.51,2.54,30,30,0,0,1-6.92.81,21,21,0,0,1-7.71-1.37,18.13,18.13,0,0,1-6.06-3.85,17.19,17.19,0,0,1-4-6,20.08,20.08,0,0,1-1.42-7.68A19.53,19.53,0,0,1,124.57,17a17.51,17.51,0,0,1,4.14-5.93,19.14,19.14,0,0,1,6.13-3.83,20.64,20.64,0,0,1,7.56-1.37A21.87,21.87,0,0,1,149.22,7a14.71,14.71,0,0,1,5.86,3.65L151.88,14a12.2,12.2,0,0,0-4.44-3.05,14,14,0,0,0-5.35-1.06A14.63,14.63,0,0,0,136.36,11a14.21,14.21,0,0,0-4.58,3.1,14,14,0,0,0-3.05,4.71,16.2,16.2,0,0,0-1.09,6,16,16,0,0,0,1.09,5.93,14.1,14.1,0,0,0,3.05,4.74,13.48,13.48,0,0,0,4.69,3.12,15.87,15.87,0,0,0,6,1.12,20.59,20.59,0,0,0,4.56-.54,18.34,18.34,0,0,0,4.37-1.54v-11h4.25Z"/>
            <path class="cls-1"
                  d="M168.39,6.83h5.37l20.79,29.81h.1V6.83h4.26v35.9h-5.37L172.75,12.91h-.11V42.73h-4.25Z"/>
            <path class="cls-1" d="M225.4,12.3h-.1L212.47,42.73h-4.81l15.82-35.9h4l15.27,35.9h-5Z"/>
            <path class="cls-1" d="M272.11,10.78H260.24V42.73H256V10.78H244.12V6.83h28Z"/>
            <path class="cls-1" d="M280,6.83h22.57v3.95H284.21V22H301.3V26H284.21V38.77h19.22v4H280Z"/>
        </g>
    </g>
</svg>