<svg xmlns="http://www.w3.org/2000/svg" viewBox="0 0 163 63.2">
  <defs>
    <style>
      .cls-1{fill:#20beff}
    </style>
  </defs>
  <g id="Layer_2" data-name="Layer 2">
    <g id="Layer_1-2" data-name="Layer 1">
      <path class="cls-1" d="M26.92 47c-.05.18-.24.27-.56.27h-6.17a1.24 1.24 0 0 1-1-.48L9 33.78l-2.83 2.71v10.06a.61.61 0 0 1-.69.69H.69a.61.61 0 0 1-.69-.69V.69A.61.61 0 0 1 .69 0h4.79a.61.61 0 0 1 .69.69v28.24l12.21-12.35a1.44 1.44 0 0 1 1-.49h6.39a.54.54 0 0 1 .55.35.59.59 0 0 1-.07.63L13.32 29.55l13.46 16.72a.65.65 0 0 1 .14.73ZM51.93 47.24h-4.79c-.51 0-.76-.23-.76-.69v-1a12.77 12.77 0 0 1-7.84 2.29A11.28 11.28 0 0 1 31 45.16a9 9 0 0 1-3.12-7.07q0-6.81 8.46-9.23a61.55 61.55 0 0 1 10.06-1.67A5.47 5.47 0 0 0 40.48 21a14 14 0 0 0-7.91 2.77c-.41.24-.71.19-.9-.13l-2.5-3.54c-.23-.28-.16-.6.21-1a19.32 19.32 0 0 1 11.1-3.68A13.29 13.29 0 0 1 48 17.55q4.59 3.06 4.58 9.78v19.22a.61.61 0 0 1-.65.69Zm-5.55-14.5q-6.8.7-9.3 1.81Q33.69 36 34 38.71a3.49 3.49 0 0 0 1.53 2.46 5.87 5.87 0 0 0 3 1.08 9.49 9.49 0 0 0 7.77-2.57ZM81 59.28q-3.81 3.92-10.74 3.92a15.41 15.41 0 0 1-7.63-2c-.51-.33-1.11-.76-1.81-1.29s-1.5-1.19-2.43-2a.72.72 0 0 1-.07-1l3.26-3.26a.76.76 0 0 1 .56-.21.68.68 0 0 1 .49.21c2.58 2.58 5.11 3.88 7.56 3.88q8.39 0 8.39-8.74v-3.63a13.1 13.1 0 0 1-8.67 2.71 12.48 12.48 0 0 1-10.55-5.07A18.16 18.16 0 0 1 56 31.63a18 18 0 0 1 3.2-10.82 12.19 12.19 0 0 1 10.61-5.34 13.93 13.93 0 0 1 8.74 2.71v-1.39a.62.62 0 0 1 .69-.7h4.79a.62.62 0 0 1 .7.7v31q.03 7.57-3.73 11.49ZM78.58 26q-1.74-4.44-8-4.44-8.11 0-8.11 10.12 0 5.63 2.7 8.19a7.05 7.05 0 0 0 5.21 2q6.51 0 8.25-4.44ZM113.59 59.28q-3.78 3.91-10.72 3.92a15.44 15.44 0 0 1-7.63-2q-.76-.49-1.8-1.29c-.7-.53-1.51-1.19-2.43-2a.7.7 0 0 1-.07-1l3.26-3.26a.74.74 0 0 1 .55-.21.67.67 0 0 1 .49.21c2.59 2.58 5.11 3.88 7.56 3.88q8.4 0 8.4-8.74v-3.63a13.14 13.14 0 0 1-8.68 2.71A12.46 12.46 0 0 1 92 42.8a18.09 18.09 0 0 1-3.33-11.17 18 18 0 0 1 3.19-10.82 12.21 12.21 0 0 1 10.61-5.34 14 14 0 0 1 8.75 2.71v-1.39a.62.62 0 0 1 .69-.7h4.79a.62.62 0 0 1 .69.7v31q-.02 7.57-3.8 11.49ZM111.2 26q-1.74-4.44-8-4.44-8.2-.05-8.2 10.07 0 5.63 2.71 8.19a7 7 0 0 0 5.2 2q6.53 0 8.26-4.44ZM128 47.24h-4.78a.62.62 0 0 1-.7-.69V.69a.62.62 0 0 1 .7-.69H128a.61.61 0 0 1 .7.69v45.86a.61.61 0 0 1-.7.69ZM162.91 33.16a.62.62 0 0 1-.7.69h-22.54a8.87 8.87 0 0 0 2.91 5.69 10.63 10.63 0 0 0 7.15 2.46 11.64 11.64 0 0 0 6.86-2.15c.42-.28.77-.28 1 0l3.26 3.33c.37.37.37.69 0 1a18.76 18.76 0 0 1-11.58 3.75 16 16 0 0 1-11.8-4.72 16.2 16.2 0 0 1-4.57-11.86 16 16 0 0 1 4.51-11.52 14.36 14.36 0 0 1 10.82-4.3A14.07 14.07 0 0 1 158.88 20 15 15 0 0 1 163 31.63ZM153.82 23a8.18 8.18 0 0 0-5.69-2.15 8.06 8.06 0 0 0-5.48 2.08 9.24 9.24 0 0 0-3 5.41h16.71a7 7 0 0 0-2.54-5.34Z"/>
    </g>
  </g>
</svg>
