<svg xmlns="http://www.w3.org/2000/svg" xmlns:xlink="http://www.w3.org/1999/xlink" height="94" width="95"><defs><clipPath id="A"><path d="M155.414 278.307c4.667-14.277 6.437-39.746 20.1-39.746 1.04 0 2.1.1 3.143.302-12.4 2.894-13.882 28.085-21.454 41.13a58.73 58.73 0 0 1-1.778-1.687"/></clipPath><clipPath id="B"><path d="M178.68 238.568h-23.233v41.434h23.233v-41.434z"/></clipPath><clipPath id="C"><path d="M178.68 280v-41.434h-23.233V280h23.233z"/></clipPath><clipPath id="D"><path d="M157.192 279.994c7.572-13.046 9.043-38.237 21.454-41.13.975.18 1.953.45 2.932.792-11.14 5.46-14.22 29.92-22.82 41.698-.52-.434-1.044-.887-1.567-1.36"/></clipPath><clipPath id="E"><path d="M181.63 238.837h-24.386v42.5h24.386v-42.5z"/></clipPath><clipPath id="F"><path d="M181.63 281.327v-42.5h-24.385v42.5h24.385z"/></clipPath><clipPath id="G"><path d="M132.664 289.094h72.402V263.7h-72.402v25.405z"/></clipPath><clipPath id="H"><path d="M131.684 290.073h74.382V262.7h-74.382v27.384z"/></clipPath><clipPath id="I"><path d="M132.664 263.7h72.396v25.383h-72.396V263.7z"/></clipPath><clipPath id="J"><path d="M132.664 289.094h72.402V263.7h-72.402v25.405z"/></clipPath><clipPath id="K"><path d="M132.664 263.7h72.396v25.383h-72.396V263.7z"/></clipPath><clipPath id="L"><path d="M132.676 289.094h72.38V263.7h-72.38v25.383z"/></clipPath><clipPath id="M"><path d="M205.066 263.7h-72.382v25.384h72.382V263.7z"/></clipPath><clipPath id="N"><path d="M205.066 289.073V263.7h-72.382v25.383h72.382z"/></clipPath><linearGradient id="O" spreadMethod="pad" y2="263.69" x2="168.875" y1="289.072" x1="168.875" xlink:href="#CP"><stop offset="0" stop-color="#231f20"/><stop offset="1" stop-color="#fff"/></linearGradient><mask id="P" height="1" width="1" y="0" x="0" maskUnits="userSpaceOnUse"><g clip-path="url(#G)"><g clip-path="url(#H)"><g clip-path="url(#I)"><g clip-path="url(#J)"><g clip-path="url(#K)"><g clip-path="url(#L)"><g clip-path="url(#M)"><g clip-path="url(#N)"><path d="M205.066 263.7h-72.382v25.384h72.382V263.7z" fill="url(#O)" stroke="none"/></g></g></g></g></g></g></g></g></mask><clipPath id="Q"><path d="M170.517 287.733H193.7v-43.07h-23.183v43.07z"/></clipPath><clipPath id="R"><path d="M170.548 244.687h23.147v43.047h-23.147v-43.047z"/></clipPath><clipPath id="S"><path d="M190.273 244.687l3.427 3c-4.745 14.2-6.444 40.045-20.19 40.045-.983 0-1.976-.09-2.964-.277 12.522-3.112 14.125-30.36 19.728-42.77"/></clipPath><clipPath id="T"><path d="M170.517 287.7h23.154v-43.046h-23.154V287.7z"/></clipPath><clipPath id="U"><path d="M170.517 244.664V287.7h23.155v-43.046h-23.155z"/></clipPath><clipPath id="V"><path d="M132.664 289.094h72.402V263.7h-72.402v25.405z"/></clipPath><clipPath id="W"><path d="M131.684 290.073h74.382V262.7h-74.382v27.384z"/></clipPath><clipPath id="X"><path d="M132.664 263.7h72.396v25.383h-72.396V263.7z"/></clipPath><clipPath id="Y"><path d="M132.664 289.094h72.402V263.7h-72.402v25.405z"/></clipPath><clipPath id="Z"><path d="M132.664 263.7h72.396v25.383h-72.396V263.7z"/></clipPath><clipPath id="a"><path d="M132.676 289.094h72.38V263.7h-72.38v25.383z"/></clipPath><clipPath id="b"><path d="M205.066 263.7h-72.382v25.384h72.382V263.7z"/></clipPath><clipPath id="c"><path d="M205.066 289.073V263.7h-72.382v25.383h72.382z"/></clipPath><mask id="d" height="1" width="1" y="0" x="0" maskUnits="userSpaceOnUse"><g clip-path="url(#V)"><g clip-path="url(#W)"><g clip-path="url(#X)"><g clip-path="url(#Y)"><g clip-path="url(#Z)"><g clip-path="url(#a)"><g clip-path="url(#b)"><g clip-path="url(#c)"><path d="M205.066 263.7h-72.382v25.384h72.382V263.7z" fill="url(#O)" stroke="none"/></g></g></g></g></g></g></g></g></mask><clipPath id="e"><path d="M168.103 287.753h5.406v-.297h-5.406v.297z"/></clipPath><clipPath id="f"><path d="M168.1 287.456h5.396v.297H168.1v-.297z"/></clipPath><clipPath id="g"><path d="M167.342 286.563c11.217-5.866 12.2-32.432 21.14-43.22a37.62 37.62 0 0 1 1.788 1.345c-5.6 12.4-7.204 39.66-19.724 42.77a19.23 19.23 0 0 1-3.205-.893"/></clipPath><clipPath id="h"><path d="M190.34 243.3H167.4v44.115h22.93V243.3z"/></clipPath><clipPath id="i"><path d="M190.34 287.417V243.3H167.4v44.115h22.93z"/></clipPath><clipPath id="j"><path d="M158.76 281.353c8.6-11.778 11.678-36.24 22.82-41.698 2.3.808 4.594 2.05 6.905 3.687-8.95 10.8-9.924 37.355-21.14 43.22-2.848-1.058-5.706-2.822-8.583-5.2"/></clipPath><clipPath id="k"><path d="M188.488 239.647h-29.725v46.9h29.725v-46.9z"/></clipPath><clipPath id="l"><path d="M188.488 286.555v-46.908h-29.725v46.908h29.725z"/></clipPath><clipPath id="m"><path d="M105.055 290.582h72.4v-61.6h-72.4v61.6z"/></clipPath><clipPath id="n"><path d="M104.057 291.582h74.387v-63.588h-74.387v63.588z"/></clipPath><clipPath id="o"><path d="M105.06 228.983h72.376v61.587H105.06v-61.587z"/></clipPath><clipPath id="p"><path d="M105.055 290.582h72.4v-61.6h-72.4v61.6z"/></clipPath><clipPath id="q"><path d="M105.06 228.983h72.376v61.587H105.06v-61.587z"/></clipPath><clipPath id="r"><path d="M177.443 228.983h-72.388v61.587h72.388v-61.587z"/></clipPath><clipPath id="s"><path d="M105.056 290.582h72.388v-61.588h-72.388v61.588z"/></clipPath><clipPath id="t"><path d="M105.057 228.994v61.588h72.387v-61.588h-72.387z"/></clipPath><linearGradient id="u" spreadMethod="pad" y2="290.581" x2="141.25" y1="228.994" x1="141.25" xlink:href="#CP"><stop offset="0" stop-color="#231f20"/><stop offset=".462" stop-color="#231f20"/><stop offset="1" stop-color="#fff"/></linearGradient><mask id="v" height="1" width="1" y="0" x="0" maskUnits="userSpaceOnUse"><g clip-path="url(#m)"><g clip-path="url(#n)"><g clip-path="url(#o)"><g clip-path="url(#p)"><g clip-path="url(#q)"><g clip-path="url(#r)"><g clip-path="url(#s)"><g clip-path="url(#t)"><path d="M105.056 290.582h72.388v-61.588h-72.388v61.588z" fill="url(#u)" stroke="none"/></g></g></g></g></g></g></g></g></mask><clipPath id="w"><path d="M145.52 282.12h9.892v-15.754h-9.892v15.754z"/></clipPath><clipPath id="x"><path d="M145.526 266.366h9.875v15.754h-9.875v-15.754z"/></clipPath><clipPath id="y"><path d="M184.025 289.9h72.4v-44.23h-72.4v44.23z"/></clipPath><clipPath id="z"><path d="M183.025 290.9h74.387v-46.214h-74.387V290.9z"/></clipPath><clipPath id="AA"><path d="M184.04 245.67h72.396v44.214H184.04V245.67z"/></clipPath><clipPath id="AB"><path d="M184.025 289.9h72.4v-44.23h-72.4v44.23z"/></clipPath><clipPath id="AC"><path d="M184.04 245.67h72.396v44.214H184.04V245.67z"/></clipPath><clipPath id="AD"><path d="M184.047 289.885h72.386V245.67h-72.386v44.214z"/></clipPath><clipPath id="AE"><path d="M256.4 245.686h-72.386V289.9H256.4v-44.215z"/></clipPath><clipPath id="AF"><path d="M256.4 289.9v-44.215h-72.386V289.9H256.4z"/></clipPath><linearGradient id="AG" spreadMethod="pad" y2="245.686" x2="220.219" y1="289.9" x1="220.219" xlink:href="#CP"><stop offset="0" stop-color="#2e2a2b"/><stop offset=".731" stop-color="#fff"/><stop offset="1" stop-color="#fff"/></linearGradient><mask id="AH" height="1" width="1" y="0" x="0" maskUnits="userSpaceOnUse"><g clip-path="url(#y)"><g clip-path="url(#z)"><g clip-path="url(#AA)"><g clip-path="url(#AB)"><g clip-path="url(#AC)"><g clip-path="url(#AD)"><g clip-path="url(#AE)"><g clip-path="url(#AF)"><path d="M256.4 245.686h-72.386V289.9H256.4v-44.215z" fill="url(#AG)" stroke="none"/></g></g></g></g></g></g></g></g></mask><clipPath id="AI"><path d="M199.6 288.868h40.378V238.57H199.6v50.297z"/></clipPath><clipPath id="AJ"><path d="M199.652 238.57h40.313v50.27h-40.313v-50.27z"/></clipPath><clipPath id="AK"><path d="M233.067 288.84c-6.343-24.463-19.594-44.114-30.702-49.07-.007-.004-.017-.008-.02-.008-.2-.1-.403-.175-.6-.256-.026-.008-.05-.02-.073-.028-.057-.025-.112-.043-.17-.066-.026-.008-.05-.02-.075-.03l-.28-.1c-.04-.012-.077-.026-.114-.04-.043-.012-.1-.03-.138-.045s-.085-.03-.133-.047a.6.6 0 0 1-.117-.04l-.24-.07c-.034-.01-.065-.02-.1-.028-.05-.015-.108-.03-.16-.043-.04-.01-.07-.02-.108-.03-.057-.018-.12-.033-.175-.047-.075-.014-.142-.03-.214-.044.503-.188 1.026-.28 1.6-.28 10.535 0 21.155 18.878 38.73 50.27h-6.9z"/></clipPath><clipPath id="AL"><path d="M199.6 288.868h40.317V238.6H199.6v50.27z"/></clipPath><clipPath id="AM"><path d="M199.6 238.598v50.27h40.316v-50.27H199.6z"/></clipPath><clipPath id="AN"><path d="M87.933 293.012h72.404V231.4H87.933v61.612z"/></clipPath><clipPath id="AO"><path d="M86.933 293.984h74.384V230.4H86.933v63.584z"/></clipPath><clipPath id="AP"><path d="M87.955 231.43h72.376v61.583H87.955V231.43z"/></clipPath><clipPath id="AQ"><path d="M87.933 293.012h72.404V231.4H87.933v61.612z"/></clipPath><clipPath id="AR"><path d="M87.955 231.43h72.376v61.583H87.955V231.43z"/></clipPath><clipPath id="AS"><path d="M160.337 231.43H87.953v61.583h72.384V231.43z"/></clipPath><clipPath id="AT"><path d="M87.933 292.984h72.384V231.4H87.933v61.584z"/></clipPath><clipPath id="AU"><path d="M87.933 231.4v61.584h72.385V231.4H87.933z"/></clipPath><linearGradient id="AV" spreadMethod="pad" y2="292.983" x2="124.125" y1="231.4" x1="124.125" xlink:href="#CP"><stop offset="0" stop-color="#231f20"/><stop offset="1" stop-color="#fff"/></linearGradient><mask id="AW" height="1" width="1" y="0" x="0" maskUnits="userSpaceOnUse"><g clip-path="url(#AN)"><g clip-path="url(#AO)"><g clip-path="url(#AP)"><g clip-path="url(#AQ)"><g clip-path="url(#AR)"><g clip-path="url(#AS)"><g clip-path="url(#AT)"><g clip-path="url(#AU)"><path d="M87.933 292.984h72.384V231.4H87.933v61.584z" fill="url(#AV)" stroke="none"/></g></g></g></g></g></g></g></g></mask><clipPath id="AX"><path d="M110.418 287.753h36.693V237.24h-36.693v50.513z"/></clipPath><clipPath id="AY"><path d="M110.422 237.24H147.1v50.513h-36.688V237.24z"/></clipPath><clipPath id="AZ"><path d="M118.245 249.154c10.818 20.844 15.943 34.036 24.988 37.607-9.326-3.65-19.83-17.418-24.988-37.607"/></clipPath><clipPath id="Aa"><path d="M118.225 286.744h24.988v-37.607h-24.988v37.607z"/></clipPath><clipPath id="Ab"><path d="M118.225 249.138v37.606h24.988v-37.606h-24.988z"/></clipPath><clipPath id="Ac"><path d="M70.47 306.536H180.2V195.363H70.47v111.173z"/></clipPath><clipPath id="Ad"><path d="M69.47 307.536H181.2V194.363H69.47v113.173z"/></clipPath><clipPath id="Ae"><path d="M97.934 218.827h54.77v64.507h-54.77v-64.507z"/></clipPath><clipPath id="Af"><path d="M70.47 306.536H180.2V195.363H70.47v111.173z"/></clipPath><clipPath id="Ag"><path d="M97.934 218.827h54.77v64.507h-54.77v-64.507z"/></clipPath><clipPath id="Ah"><path d="M97.944 233.492l26.22-14.665 28.552 49.838-26.216 14.67-28.555-49.842z"/></clipPath><clipPath id="Ai"><path d="M180.2 267.835l-40.53-72.472-69.203 38.7 40.53 72.472 69.203-38.7z"/></clipPath><clipPath id="Aj"><path d="M180.2 267.835l-40.53-72.472-69.204 38.7 40.53 72.472 69.204-38.7z"/></clipPath><linearGradient id="Ak" spreadMethod="pad" y2="187.369" x2="89.777" y1="271.588" x1="136.875" xlink:href="#CP"><stop offset="0" stop-color="#231f20"/><stop offset=".129" stop-color="#fff"/><stop offset=".4" stop-color="#fff"/><stop offset="1" stop-color="#fff"/></linearGradient><mask id="Al" height="1" width="1" y="0" x="0" maskUnits="userSpaceOnUse"><g clip-path="url(#Ac)"><g clip-path="url(#Ad)"><g clip-path="url(#Ae)"><g clip-path="url(#Af)"><g clip-path="url(#Ag)"><g clip-path="url(#Ah)"><g clip-path="url(#Ai)"><g clip-path="url(#Aj)"><path d="M180.2 267.835l-40.53-72.472-69.203 38.7 40.53 72.472 69.203-38.7z" fill="url(#Ak)" stroke="none"/></g></g></g></g></g></g></g></g></mask><clipPath id="Am"><path d="M122.3 266.402h23.236v-29.137H122.3v29.137z"/></clipPath><clipPath id="An"><path d="M122.298 237.265h23.23v29.102h-23.23v-29.102z"/></clipPath><clipPath id="Ao"><path d="M123.156 237.34l-.195-.023c-.016-.004-.026-.004-.04-.005l-.166-.017c-.008 0-.02-.002-.027-.002l-.398-.028h-.04c10.948.307 15.953 5.788 18.435 13.737l4.797 15.364c-4.586-6.453-9.192-14.145-13.825-22.766-2.23-4.155-5.63-5.9-8.54-6.26"/></clipPath><clipPath id="Ap"><path d="M122.3 266.402h23.23V237.3H122.3v29.102z"/></clipPath><clipPath id="Aq"><path d="M122.3 237.3v29.102h23.232V237.3H122.3z"/></clipPath><clipPath id="Ar"><path d="M123.156 237.344v-.004c2.912.37 6.3 2.103 8.54 6.26 4.633 8.617 9.24 16.313 13.82 22.766 1.668 5.234 3.044 9.238 4.393 12.284-9.13-8.7-18.3-23.144-26.755-41.306"/></clipPath><clipPath id="As"><path d="M123.216 278.618h26.754v-41.3h-26.754v41.3z"/></clipPath><clipPath id="At"><path d="M123.216 237.307v41.3h26.754v-41.3h-26.754z"/></clipPath><clipPath id="Au"><path d="M146.73 287.662a.57.57 0 0 0-.088-.011l-.152-.022-.092-.01-.163-.028-.07-.01-.352-.062-.04-.006-.17-.034-.085-.024-.167-.032a.48.48 0 0 0-.077-.019l-.58-.15c-.016-.006-.043-.012-.067-.02-.058-.013-.114-.034-.175-.052l-.08-.023a1.46 1.46 0 0 1-.174-.053c-.022-.005-.04-.014-.06-.014l-.402-.14-.193-.07-.078-.033-.17-.06c-.02-.01-.042-.018-.057-.028-9.045-3.57-14.17-16.763-24.988-37.607a100.55 100.55 0 0 1-2.281-11.906h.58l5.443.01.344.008c.13.007.262.014.398.028.008 0 .02.002.025.002.057.01.112.013.166.017.015.001.023.001.04.005.06.006.128.013.195.023v.004c8.456 18.162 17.624 32.615 26.755 41.306 1.005 2.276 1.993 4.013 3.078 5.328-.635 1.072-1.33 1.966-2.104 2.618-.01.004-.016.006-.023.014a1.64 1.64 0 0 0-.128.061 1.91 1.91 0 0 1-.128.065 1.28 1.28 0 0 0-.124.06c-.055.016-.097.04-.147.063-.04.014-.075.033-.113.05-.08.03-.163.065-.24.1-.037.012-.07.026-.102.04a1.89 1.89 0 0 0-.179.07c-.03.01-.063.02-.097.03l-.247.085c-.014.004-.018.004-.022.01a6.75 6.75 0 0 1-.287.081c-.022.01-.04.014-.065.02-.086.022-.16.047-.24.068-.02.002-.04.01-.057.013-.195.053-.4.094-.603.132-.018.002-.042.008-.062.012-.088.015-.173.03-.26.04-.016.008-.033.008-.05.012l-.3.04c-.017.002-.035.006-.055.006-.08.014-.16.018-.236.026l-.38-.034"/></clipPath><clipPath id="Av"><path d="M116.996 230.917l-9.744 55.258 44.534 7.853 9.744-55.26-44.534-7.852z"/></clipPath><clipPath id="Aw"><path d="M116.996 230.917l-9.744 55.258 44.534 7.852 9.744-55.258-44.534-7.853z"/></clipPath><clipPath id="Ax"><path d="M208.287 275.296l-5.233-16.692c5.7 7.86 11.336 17.744 16.692 29.154-6.246-1.964-9.58-6.454-11.46-12.462"/></clipPath><clipPath id="Ay"><path d="M203.06 287.753h16.692V258.6H203.06v29.152z"/></clipPath><clipPath id="Az"><path d="M203.06 258.6v29.153h16.692V258.6H203.06z"/></clipPath><clipPath id="BA"><path d="M186.062 293.135h72.396v-25.23h-72.396v25.23z"/></clipPath><clipPath id="BB"><path d="M185.072 294.135h74.386V266.9h-74.386v27.224z"/></clipPath><clipPath id="BC"><path d="M186.062 267.906h72.396v25.224h-72.396v-25.224z"/></clipPath><clipPath id="BD"><path d="M186.062 293.135h72.396v-25.23h-72.396v25.23z"/></clipPath><clipPath id="BE"><path d="M186.062 267.906h72.396v25.224h-72.396v-25.224z"/></clipPath><clipPath id="BF"><path d="M186.062 293.13h72.4v-25.224h-72.4v25.224z"/></clipPath><clipPath id="BG"><path d="M258.46 267.9h-72.386v25.223h72.386V267.9z"/></clipPath><clipPath id="BH"><path d="M258.46 293.134V267.9h-72.386v25.223h72.386z"/></clipPath><linearGradient id="BI" spreadMethod="pad" y2="267.911" x2="222.266" y1="293.135" x1="222.266" xlink:href="#CP"><stop offset="0" stop-color="#231f20"/><stop offset="1" stop-color="#fff"/></linearGradient><mask id="BJ" height="1" width="1" y="0" x="0" maskUnits="userSpaceOnUse"><g clip-path="url(#BA)"><g clip-path="url(#BB)"><g clip-path="url(#BC)"><g clip-path="url(#BD)"><g clip-path="url(#BE)"><g clip-path="url(#BF)"><g clip-path="url(#BG)"><g clip-path="url(#BH)"><path d="M258.46 267.9h-72.386v25.223h72.386V267.9z" fill="url(#BI)" stroke="none"/></g></g></g></g></g></g></g></g></mask><clipPath id="BK"><path d="M193.946 294.1h47.486v-59.57h-47.486v59.57z"/></clipPath><clipPath id="BL"><path d="M202.36 239.77h30.7v49.068h-30.7V239.77z"/></clipPath><clipPath id="BM"><path d="M203.235 240.188l-.87-.417c11.108 4.955 24.36 24.606 30.702 49.07h-1.285c-14.575-26.036-19.263-43.464-28.547-48.652"/></clipPath><clipPath id="BN"><path d="M241.43 287.38l-9.317-52.84-38.168 6.73 9.318 52.84 38.167-6.73z"/></clipPath><clipPath id="BO"><path d="M241.43 287.38l-9.317-52.84-38.168 6.73 9.317 52.84 38.168-6.73z"/></clipPath><clipPath id="BP"><path d="M227.7 288.84h-5.403c-.182 0-.36-.004-.537-.006l-.52-.007-1.025-.05-.478-1.02c-5.356-11.4-10.98-21.294-16.692-29.154-2.685-8.263-4.655-13.28-7.072-16.23 1.034-1.762 2.234-3 3.664-3.527.043.012.076.018.112.026.01.006.016.006.025.006.024.004.05.014.077.016.06.014.122.027.18.047l.108.03.16.04c.032.014.065.02.1.03.084.026.16.044.24.07.036.017.075.03.117.04.045.017.092.03.133.05.048.015.095.025.138.043a.76.76 0 0 1 .112.043c.093.032.185.06.28.098.024.008.05.022.075.028.057.023.116.04.17.067.022.008.047.02.073.027l.6.256c.002 0 .012.004.02.008a17.15 17.15 0 0 1 .868.417c9.286 5.188 13.974 22.616 28.55 48.652H227.7z"/></clipPath><clipPath id="BQ"><path d="M231.744 238.854h-35.8v49.992h35.8v-49.992z"/></clipPath><clipPath id="BR"><path d="M231.744 288.846v-49.992h-35.8v49.992h35.8z"/></clipPath><clipPath id="BS"><path d="M134.618 289.642h30.736v-7.085h-30.736v7.085z"/></clipPath><clipPath id="BT"><path d="M133.618 290.642h32.725v-9.08h-32.725v9.08z"/></clipPath><clipPath id="BU"><path d="M134.623 282.557h30.73v7.082h-30.73v-7.082z"/></clipPath><clipPath id="BV"><path d="M134.618 289.642h30.736v-7.085h-30.736v7.085z"/></clipPath><clipPath id="BW"><path d="M134.623 282.557h30.73v7.082h-30.73v-7.082z"/></clipPath><clipPath id="BX"><path d="M165.354 282.557H134.63v7.082h30.725v-7.082z"/></clipPath><clipPath id="BY"><path d="M134.617 289.642h30.725v-7.08h-30.725v7.08z"/></clipPath><clipPath id="BZ"><path d="M134.617 282.56v7.08h30.725v-7.08h-30.725z"/></clipPath><linearGradient id="Ba" spreadMethod="pad" y2="289.643" x2="149.98" y1="282.561" x1="149.98" xlink:href="#CP"><stop offset="0" stop-color="#fff"/><stop offset=".363" stop-color="#fff"/><stop offset="1" stop-color="#918f90"/></linearGradient><mask id="Bb" height="1" width="1" y="0" x="0" maskUnits="userSpaceOnUse"><g clip-path="url(#BS)"><g clip-path="url(#BT)"><g clip-path="url(#BU)"><g clip-path="url(#BV)"><g clip-path="url(#BW)"><g clip-path="url(#BX)"><g clip-path="url(#BY)"><g clip-path="url(#BZ)"><path d="M134.617 289.642h30.725v-7.08h-30.725v7.08z" fill="url(#Ba)" stroke="none"/></g></g></g></g></g></g></g></g></mask><clipPath id="Bc"><path d="M145.2 293.6h24.326v-14.722H145.2V293.6z"/></clipPath><clipPath id="Bd"><path d="M145.986 283h22.125v4.754h-22.125V283z"/></clipPath><clipPath id="Be"><path d="M147.1 287.696l.88.037c2.518 0 4.702-.78 6.628-2.144 2.035 1.603 4.492 2.164 7.907 2.164H146a11.78 11.78 0 0 0 1.121-.057"/></clipPath><clipPath id="Bf"><path d="M148.405 293.6l14.874-6.17-3.193-7.698-14.875 6.17 3.194 7.7z"/></clipPath><clipPath id="Bg"><path d="M148.405 293.6l14.875-6.17-3.193-7.7-14.875 6.17 3.193 7.7z"/></clipPath><clipPath id="Bh"><path d="M162.523 287.753c-3.415 0-5.872-.56-7.907-2.164a15.13 15.13 0 0 0 1.944-1.649c2.83 1.8 5.633 2.992 8.398 3.512 1.056.2 2.108.3 3.145.3h-5.58z"/></clipPath><clipPath id="Bi"><path d="M153.184 287.112l12.62 5.72 3.733-8.234-12.62-5.72-3.732 8.234z"/></clipPath><clipPath id="Bj"><path d="M153.184 287.112l12.62 5.72 3.733-8.234-12.62-5.72-3.733 8.234z"/></clipPath><clipPath id="Bk"><path d="M169.395 284.86h72.396V245.12h-72.396v39.742z"/></clipPath><clipPath id="Bl"><path d="M168.4 285.84h74.386v-41.72H168.4v41.72z"/></clipPath><clipPath id="Bm"><path d="M169.395 245.14h72.396v39.722h-72.396V245.14z"/></clipPath><clipPath id="Bn"><path d="M169.395 284.86h72.396V245.12h-72.396v39.742z"/></clipPath><clipPath id="Bo"><path d="M169.395 245.14h72.396v39.722h-72.396V245.14z"/></clipPath><clipPath id="Bp"><path d="M241.787 245.14H169.4v39.722h72.386V245.14z"/></clipPath><clipPath id="Bq"><path d="M169.4 284.84h72.386v-39.72H169.4v39.72z"/></clipPath><clipPath id="Br"><path d="M169.4 245.12v39.72h72.386v-39.72H169.4z"/></clipPath><linearGradient id="Bs" spreadMethod="pad" y2="284.841" x2="205.594" y1="245.119" x1="205.594" xlink:href="#CP"><stop offset="0" stop-color="#231f20"/><stop offset="1" stop-color="#fff"/></linearGradient><mask id="Bt" height="1" width="1" y="0" x="0" maskUnits="userSpaceOnUse"><g clip-path="url(#Bk)"><g clip-path="url(#Bl)"><g clip-path="url(#Bm)"><g clip-path="url(#Bn)"><g clip-path="url(#Bo)"><g clip-path="url(#Bp)"><g clip-path="url(#Bq)"><g clip-path="url(#Br)"><path d="M169.4 284.84h72.386v-39.72H169.4v39.72z" fill="url(#Bs)" stroke="none"/></g></g></g></g></g></g></g></g></mask><clipPath id="Bu"><path d="M193.714 288.795h26.543V247.7h-26.543v41.095z"/></clipPath><clipPath id="Bv"><path d="M193.716 247.7h26.5v41.078h-26.5V247.7z"/></clipPath><clipPath id="Bw"><path d="M203.054 258.6l5.238 16.695c1.876 6 5.204 10.5 11.454 12.462l.48 1.02c-10.185-.6-14.946-5.792-17.343-13.464-4.2-13.397-6.726-22.08-9.17-27.614 3.12 2.985 6.24 6.647 9.34 10.9"/></clipPath><clipPath id="Bx"><path d="M220.257 247.718h-26.513v41.077h26.513v-41.077z"/></clipPath><clipPath id="By"><path d="M220.257 288.795v-41.077h-26.513v41.077h26.513z"/></clipPath><linearGradient id="Bz" spreadMethod="pad" y2="226.293" x2="167.063" y1="288.088" x1="167.063" xlink:href="#CP"><stop offset="0" stop-color="#0994dc"/><stop offset=".11" stop-color="#0994dc"/><stop offset=".35" stop-color="#66cef5"/><stop offset=".45" stop-color="#66cef5"/><stop offset=".846" stop-color="#127bca"/><stop offset="1" stop-color="#127bca"/></linearGradient><linearGradient id="CA" spreadMethod="pad" y2="226.249" x2="169.438" y1="289.619" x1="169.438" xlink:href="#CP"><stop offset="0" stop-color="#0e76bc"/><stop offset=".176" stop-color="#0e76bc"/><stop offset=".36" stop-color="#36aee8"/><stop offset=".52" stop-color="#36aee8"/><stop offset=".846" stop-color="#00adef"/><stop offset="1" stop-color="#00adef"/></linearGradient><linearGradient id="CB" spreadMethod="pad" y2="290.385" x2="182.094" y1="239.963" x1="182.094" xlink:href="#CP"><stop offset="0" stop-color="#1c63b7"/><stop offset=".5" stop-color="#33bdf2"/><stop offset="1" stop-color="#33bdf2"/></linearGradient><linearGradient id="CC" spreadMethod="pad" y2="230.231" x2="178.875" y1="296.025" x1="178.875" xlink:href="#CP"><stop offset="0" stop-color="#166ab8"/><stop offset=".099" stop-color="#166ab8"/><stop offset=".4" stop-color="#36aee8"/><stop offset=".516" stop-color="#36aee8"/><stop offset=".846" stop-color="#0798dd"/><stop offset="1" stop-color="#0798dd"/></linearGradient><linearGradient id="CD" spreadMethod="pad" y2="225.75" x2="173.625" y1="295.713" x1="173.625" xlink:href="#CP"><stop offset="0" stop-color="#124379"/><stop offset=".11" stop-color="#124379"/><stop offset=".39" stop-color="#1487cb"/><stop offset=".52" stop-color="#1487cb"/><stop offset=".78" stop-color="#165197"/><stop offset="1" stop-color="#165197"/></linearGradient><linearGradient id="CE" spreadMethod="pad" y2="290.394" x2="219.75" y1="241.275" x1="219.75" xlink:href="#CP"><stop offset="0" stop-color="#136ab4"/><stop offset=".315" stop-color="#59caf5"/><stop offset=".6" stop-color="#59caf5"/><stop offset="1" stop-color="#59caf5"/></linearGradient><linearGradient id="CF" spreadMethod="pad" y2="290.287" x2="130.719" y1="239.994" x1="130.719" xlink:href="#CP"><stop offset="0" stop-color="#318ed5"/><stop offset=".675" stop-color="#38a7e4"/><stop offset="1" stop-color="#38a7e4"/></linearGradient><linearGradient id="CG" spreadMethod="pad" y2="288.757" x2="133.906" y1="239.869" x1="133.906" xlink:href="#CP"><stop offset="0" stop-color="#05a1e6"/><stop offset="1" stop-color="#05a1e6"/></linearGradient><linearGradient id="CH" spreadMethod="pad" y2="278.618" x2="136.594" y1="237.307" x1="136.594" xlink:href="#CP"><stop offset="0" stop-color="#1959a6"/><stop offset=".154" stop-color="#1959a6"/><stop offset=".484" stop-color="#05a1e6"/><stop offset=".5" stop-color="#05a1e6"/><stop offset=".918" stop-color="#7ec5ea"/><stop offset="1" stop-color="#7ec5ea"/></linearGradient><linearGradient id="CI" spreadMethod="pad" y2="284.771" x2="130.133" y1="239.979" x1="138.031" xlink:href="#CP"><stop offset="0" stop-color="#165096"/><stop offset=".104" stop-color="#165096"/><stop offset="1" stop-color="#0d82ca"/></linearGradient><linearGradient id="CJ" spreadMethod="pad" y2="288.715" x2="211.406" y1="265.307" x1="211.406" xlink:href="#CP"><stop offset="0" stop-color="#05a1e6"/><stop offset=".649" stop-color="#05a1e6"/><stop offset=".874" stop-color="#0495d6"/><stop offset="1" stop-color="#0495d6"/></linearGradient><linearGradient id="CK" spreadMethod="pad" y2="236.922" x2="212.857" y1="290.9" x1="222.375" xlink:href="#CP"><stop offset="0" stop-color="#38a7e4"/><stop offset=".357" stop-color="#38a7e4"/><stop offset=".962" stop-color="#0e88d3"/><stop offset="1" stop-color="#0e88d3"/></linearGradient><linearGradient id="CL" spreadMethod="pad" y2="237.926" x2="213.844" y1="288.994" x1="213.844" xlink:href="#CP"><stop offset="0" stop-color="#168cd4"/><stop offset=".5" stop-color="#1c87cc"/><stop offset="1" stop-color="#154b8d"/></linearGradient><linearGradient id="CM" spreadMethod="pad" y2="285.154" x2="160.498" y1="290.033" x1="148.734" xlink:href="#CP"><stop offset="0" stop-color="#97d6ee"/><stop offset=".703" stop-color="#55c1ea"/><stop offset="1" stop-color="#55c1ea"/></linearGradient><linearGradient id="CN" spreadMethod="pad" y2="288.401" x2="164.837" y1="284.189" x1="155.547" xlink:href="#CP"><stop offset="0" stop-color="#7accec"/><stop offset=".335" stop-color="#7accec"/><stop offset=".841" stop-color="#3fb7ed"/><stop offset="1" stop-color="#3fb7ed"/></linearGradient><linearGradient id="CO" spreadMethod="pad" y2="236.232" x2="207" y1="286.182" x1="207" xlink:href="#CP"><stop offset="0" stop-color="#1da7e7"/><stop offset="1" stop-color="#37abe7"/></linearGradient><linearGradient id="CP" gradientUnits="userSpaceOnUse"/></defs><g transform="matrix(.694649 0 0 -.694652 -72.639894 204.6432)"><g clip-path="url(#A)"><g clip-path="url(#B)"><g clip-path="url(#C)"><path d="M178.68 238.568h-23.233v41.434h23.233v-41.434z" fill="url(#Bz)"/></g></g></g><g clip-path="url(#D)"><g clip-path="url(#E)"><g clip-path="url(#F)"><path d="M181.63 238.837h-24.386v42.5h24.386v-42.5z" fill="url(#CA)"/></g></g></g></g><path d="M44.133 4.755c-.72 0-1.45.07-2.185.2-1.92.36-3.868 1.187-5.834 2.438.537.53 1.047 1.136 1.528 1.797 2-1.66 3.984-2.884 5.962-3.62.742-.276 1.483-.482 2.225-.62a6.89 6.89 0 0 0-1.696-.206" fill="#14559a"/><g mask="url(#P)" transform="matrix(.694649 0 0 -.694652 -72.639894 204.6432)"><g clip-path="url(#Q)"><g clip-path="url(#R)"><g clip-path="url(#S)"><g clip-path="url(#T)"><g clip-path="url(#U)"><path d="M170.517 287.7h23.154v-43.046h-23.154V287.7z" fill="url(#CB)"/></g></g></g></g></g></g><g mask="url(#d)"><g clip-path="url(#e)" transform="matrix(.694649 0 0 -.694652 -72.639894 204.6432)"><g clip-path="url(#f)"><path d="M170.545 287.456a9.92 9.92 0 0 1-2.442.297l5.406-.02c-.983 0-1.976-.09-2.964-.277" fill="#3092c4"/></g></g></g><path d="M59.366 36.77a14.36 14.36 0 0 1-1.077-1.164c-1.605 1.138-3.206 2-4.797 2.56.565.276 1.16.48 1.788.6.488.1.993.15 1.525.15 1.784 0 3.194-.212 4.395-.787-.66-.358-1.268-.82-1.835-1.37" fill="#1969bc"/><g transform="matrix(.694649 0 0 -.694652 -72.639894 204.6432)"><g clip-path="url(#g)"><g clip-path="url(#h)"><g clip-path="url(#i)"><path d="M190.34 243.3H167.4v44.115h22.93V243.3z" fill="url(#CC)"/></g></g></g><g clip-path="url(#j)"><g clip-path="url(#k)"><g clip-path="url(#l)"><path d="M188.488 239.647h-29.725v46.9h29.725v-46.9z" fill="url(#CD)"/></g></g></g></g><g mask="url(#v)"><g clip-path="url(#w)" transform="matrix(.694649 0 0 -.694652 -72.639894 204.6432)"><g clip-path="url(#x)"><path d="M149.9 278.65c-1.35-3.046-2.725-7.053-4.4-12.284 3.313 4.665 6.612 8.686 9.892 11.94-.452 1.4-.936 2.672-1.46 3.813-1.343-1.027-2.694-2.183-4.042-3.47" fill="#33bdf2"/></g></g></g><path d="M35.133 8.057l-.83.6c.363.793.7 1.684 1.013 2.65l1.236-1.172c-.442-.76-.9-1.46-1.42-2.087" fill="#2b74b1"/><path d="M36.114 7.404l-.982.654a16.49 16.49 0 0 1 1.421 2.087l1.1-.944a14.39 14.39 0 0 0-1.528-1.797" fill="#125a9e"/><g mask="url(#AH)" transform="matrix(.694649 0 0 -.694652 -72.639894 204.6432)"><g clip-path="url(#AI)"><g clip-path="url(#AJ)"><g clip-path="url(#AK)"><g clip-path="url(#AL)"><g clip-path="url(#AM)"><path d="M199.6 288.868h40.317V238.6H199.6v50.27z" fill="url(#CE)"/></g></g></g></g></g></g><g mask="url(#AW)"><g clip-path="url(#AX)" transform="matrix(.694649 0 0 -.694652 -72.639894 204.6432)"><g clip-path="url(#AY)"><path d="M143.233 286.76c.006.006.015.01.02.01l.024.01.185.072c.014.002.022.006.033.01a.31.31 0 0 1 .042.02l.185.064.413.147c.02 0 .04.01.06.014l.174.053c.026.01.054.015.08.025l.175.05c.024.01.048.015.067.02l.657.168.17.032.083.024.17.034c.015 0 .025.004.04.006l.352.062c.02.005.046.007.07.01l.16.028.1.01.157.022.086.01.38.034-1.12.057c-11.863 0-28.207-22-35.57-50.513l1.418.006c2.36 4.2 4.475 8.177 6.4 11.908 5.158 20.2 15.66 33.958 24.988 37.607" fill="#05a1e6"/></g></g></g><g fill="#0d82ca"><path d="M31.496 11.08c.936-.894 1.875-1.697 2.808-2.4l-.67-1.3c-.754.914-1.44 2.12-2.138 3.702"/><path d="M32.172 5.56c.538.452 1.02 1.073 1.462 1.817a6.63 6.63 0 0 1 .425-.477 8.28 8.28 0 0 0-1.992-1.393l.1.042"/></g><g clip-path="url(#AZ)" transform="matrix(.694649 0 0 -.694652 -72.639894 204.6432)"><g clip-path="url(#Aa)"><g clip-path="url(#Ab)"><path d="M118.225 286.744h24.988v-37.607h-24.988v37.607z" fill="url(#CF)"/></g></g></g><path d="M34.06 6.9l-.425.477a13.55 13.55 0 0 1 .67 1.291l.83-.6c-.34-.42-.7-.808-1.074-1.157" fill="#127bca"/><g transform="matrix(.694649 0 0 -.694652 -72.639894 204.6432)"><g mask="url(#Al)"><g clip-path="url(#Am)"><g clip-path="url(#An)"><g clip-path="url(#Ao)"><g clip-path="url(#Ap)"><g clip-path="url(#Aq)"><path d="M122.3 266.402h23.23V237.3H122.3v29.102z" fill="url(#CG)"/></g></g></g></g></g></g><g clip-path="url(#Ar)"><g clip-path="url(#As)"><g clip-path="url(#At)"><path d="M123.216 278.618h26.754v-41.3h-26.754v41.3z" fill="url(#CH)"/></g></g></g></g><path d="M9.5 31.568L5.047 39.84h2.868a70.13 70.13 0 0 1 1.584-8.271" fill="#05a1e6"/><g transform="matrix(.694649 0 0 -.694652 -72.639894 204.6432)"><g clip-path="url(#Au)"><g clip-path="url(#Av)"><g clip-path="url(#Aw)"><path d="M116.996 230.917l-9.744 55.258 44.534 7.853 9.744-55.26-44.534-7.852z" fill="url(#CI)"/></g></g></g><g clip-path="url(#Ax)"><g clip-path="url(#Ay)"><g clip-path="url(#Az)"><path d="M203.06 287.753h16.692V258.6H203.06v29.152z" fill="url(#CJ)"/></g></g></g><g mask="url(#BJ)"><g clip-path="url(#BK)"><g clip-path="url(#BL)"><g clip-path="url(#BM)"><g clip-path="url(#BN)"><g clip-path="url(#BO)"><path d="M241.43 287.38l-9.317-52.84-38.168 6.73 9.318 52.84 38.167-6.73z" fill="url(#CK)"/></g></g></g></g></g></g></g><path d="M63.5 36.277c1.68-2.05 3.047-5.534 4.913-11.274-2.152 2.957-4.32 5.5-6.5 7.574.467 1.436.986 2.688 1.577 3.7" fill="#079ae1"/><path d="M63.5 36.277c-.57.698-1.175 1.228-1.85 1.622l-.448.24a6.52 6.52 0 0 0 2.354.742h.006l.384.034h.024l.185.01h.026l.2.002.205-.002a.46.46 0 0 1 .063-.005l.144-.005a.32.32 0 0 0 .07-.01l.14-.01.067-.006.15-.016.058-.008.16-.024c.017 0 .03-.004.048-.006l.18-.03h.01l.377-.08c-.995-.365-1.828-1.225-2.547-2.45" fill="#1969bc"/><path d="M49.273 38.926a11.65 11.65 0 0 0 2.183-.21c.677-.125 1.357-.313 2.037-.55.565.276 1.16.48 1.788.6.488.1.993.15 1.525.15h-7.533zm7.533 0c1.784 0 3.195-.2 4.395-.787a6.5 6.5 0 0 0 2.354.742h.006l.384.034h.024l.185.01h.026l.2.002h-7.564z" fill="#1e5cb3"/><path d="M64.37 38.926l.205-.002a.46.46 0 0 1 .063-.005l.144-.005a.32.32 0 0 0 .07-.01l.14-.01.07-.006.15-.016.058-.008.16-.024c.017 0 .03-.003.048-.006l.18-.03h.01l.38-.08a3.14 3.14 0 0 0 1.104.194l-2.78.007z" fill="#1d60b5"/><path d="M61.915 32.596l-2.382 2.075-1.243.934a14.36 14.36 0 0 0 1.077 1.164c.567.55 1.173 1.013 1.835 1.37l.448-.24c.675-.394 1.28-.924 1.85-1.622-.6-1-1.1-2.263-1.584-3.68" fill="#175fab"/><g transform="matrix(.694649 0 0 -.694652 -72.639894 204.6432)"><g clip-path="url(#BP)"><g clip-path="url(#BQ)"><g clip-path="url(#BR)"><path d="M231.744 238.854h-35.8v49.992h35.8v-49.992z" fill="url(#CL)"/></g></g></g><g mask="url(#Bb)"><g clip-path="url(#Bc)"><g clip-path="url(#Bd)"><path d="M147.1 287.696l.067-.008a.99.99 0 0 0 .169-.018c.02 0 .038-.004.055-.006l.3-.04c.018-.004.035-.004.05-.01l.26-.043a.36.36 0 0 1 .064-.012l.6-.132.055-.013.242-.068c.024-.007.043-.01.065-.02l.287-.08c.004-.005.01-.005.02-.01l.25-.085.096-.033.18-.073c.033-.008.067-.022.102-.034l.238-.1.115-.05.145-.06c.04-.023.087-.042.126-.06l.128-.065c1.034-.5 1.986-1.184 2.867-2.006.323.342.665.648 1.015.924-1.926 1.365-4.1 2.144-6.628 2.144a9.63 9.63 0 0 1-.879-.037" fill="#7dcbec"/><path d="M153.6 284.665a16.36 16.36 0 0 0 1.546-1.666l1.413.94a15.13 15.13 0 0 1-1.944 1.649 9.58 9.58 0 0 1-1.015-.924" fill="#5ec5ed"/><g clip-path="url(#Be)"><g clip-path="url(#Bf)"><g clip-path="url(#Bg)"><path d="M148.405 293.6l14.874-6.17-3.193-7.698-14.875 6.17 3.194 7.7z" fill="url(#CM)"/></g></g></g><g clip-path="url(#Bh)"><g clip-path="url(#Bi)"><g clip-path="url(#Bj)"><path d="M153.184 287.112l12.62 5.72 3.733-8.234-12.62-5.72-3.732 8.234z" fill="url(#CN)"/></g></g></g></g></g></g><g mask="url(#Bt)"><g clip-path="url(#Bu)"><g clip-path="url(#Bv)"><g clip-path="url(#Bw)"><g clip-path="url(#Bx)"><g clip-path="url(#By)"><path d="M220.257 247.718h-26.513v41.077h26.513v-41.077z" fill="url(#CO)"/></g></g></g></g></g></g></g><path d="M81.664 36.15l-.872 1.938-.135.344h-.013a2.3 2.3 0 0 0-.126-.336l-.855-1.946h-.43v2.8h.312v-1.868l-.014-.547h.007c.03.133.058.23.085.288l.952 2.126h.16l.95-2.142a1.83 1.83 0 0 0 .087-.273h.006l-.025.542v1.873h.325v-2.8h-.4zm-4 2.8h.328v-2.492h.802v-.297H76.86v.297h.804v2.492zM61.167 63.896h8.278V89.54h3.36V63.896h8.262v-3.04h-19.9v3.04zm-15 12.58h10.36v-3.04h-10.36v-9.54H57.35v-3.04H42.8V89.54H58V86.5H46.168V76.477zm-13.052 4.58l.202 4.217h-.08c-.2-.384-.6-1.024-1.16-1.918l-14.36-22.5h-4.363V89.54h3.362V68.816l-.16-3.94h.122c.252.653.55 1.252.897 1.8L32.378 89.54h4.08V60.857h-3.34V81.06zM6.2 85.48c-.612 0-1.132.218-1.56.66s-.64.972-.64 1.6a2.22 2.22 0 0 0 .64 1.59c.428.448.948.67 1.56.67.627 0 1.16-.224 1.6-.67s.66-.977.66-1.6-.22-1.145-.66-1.6a2.17 2.17 0 0 0-1.6-.67m66.637-30.36c0 1.536.68 2.305 2.046 2.305.486 0 .878-.083 1.174-.253v-1.067a1.33 1.33 0 0 1-.81.253c-.417 0-.712-.1-.893-.335-.18-.217-.265-.593-.265-1.117V50.5h1.967v-1.06H74.1v-2.312l-1.252.405v1.907h-1.34v1.06h1.34v4.622zm-5.108 2.13h1.25V50.5h1.832v-1.06h-1.83v-1.204c0-1.104.436-1.655 1.3-1.655a1.68 1.68 0 0 1 .831.206v-1.13c-.22-.1-.52-.135-.907-.135-.667 0-1.228.2-1.687.633-.536.486-.8 1.16-.8 2.02v1.266H66.4v1.06h1.328v6.753zm-8.526-3.862c0-.997.245-1.765.736-2.3.47-.508 1.093-.763 1.87-.763.787 0 1.402.25 1.84.754.452.524.678 1.287.678 2.288 0 .955-.2 1.7-.634 2.213-.43.533-1.06.8-1.882.8-.793 0-1.426-.263-1.902-.8-.47-.524-.704-1.258-.704-2.193m5.352 2.92c.7-.75 1.056-1.75 1.056-2.995 0-1.266-.33-2.26-.982-2.985s-1.563-1.082-2.727-1.082c-1.186 0-2.133.347-2.838 1.036-.76.744-1.143 1.793-1.143 3.15 0 1.2.336 2.15 1.007 2.874.685.752 1.618 1.13 2.792 1.13 1.2 0 2.135-.376 2.836-1.13m-8.6.442a2.03 2.03 0 0 0 .718-1.591c0-.58-.192-1.06-.574-1.434-.293-.297-.775-.587-1.44-.865-.594-.253-.988-.47-1.173-.65-.208-.192-.314-.46-.314-.806 0-.32.126-.582.376-.788s.58-.303.995-.303c.668 0 1.258.185 1.772.557v-1.26c-.493-.244-1.048-.365-1.67-.365-.8 0-1.47.214-1.984.647s-.77.97-.77 1.617c0 .58.165 1.05.496 1.412.274.305.74.6 1.395.886.635.28 1.063.518 1.282.717s.33.45.33.754c0 .727-.496 1.092-1.487 1.092-.742 0-1.417-.25-2.03-.748v1.344c.55.315 1.198.47 1.94.47.902 0 1.62-.23 2.142-.686m-11.15-5.673c.466-.508 1.1-.763 1.867-.763.788 0 1.4.25 1.84.754.45.524.677 1.287.677 2.288 0 .955-.2 1.7-.634 2.213-.43.533-1.06.8-1.882.8-.795 0-1.428-.263-1.898-.8s-.7-1.258-.7-2.193c0-.997.247-1.765.74-2.3m1.775 6.36c1.2 0 2.135-.376 2.84-1.13s1.05-1.75 1.05-2.995c0-1.266-.328-2.26-.978-2.985-.656-.72-1.566-1.082-2.73-1.082-1.184 0-2.128.347-2.836 1.036-.764.744-1.145 1.793-1.145 3.15 0 1.2.337 2.15 1.007 2.874.686.752 1.62 1.13 2.8 1.13m-6.306-7.7c-.38.3-.663.75-.846 1.32h-.03v-1.62h-1.25v7.813h1.25V53.27c0-.907.195-1.614.588-2.128.346-.457.773-.685 1.28-.685.417 0 .734.082.955.25V49.4c-.17-.07-.417-.106-.75-.106-.443 0-.843.142-1.198.427m-6.16 7.7c.825 0 1.54-.182 2.14-.55V55.7c-.6.448-1.238.672-1.922.672-.8 0-1.45-.264-1.932-.793s-.722-1.25-.722-2.16c0-.946.266-1.705.788-2.272.5-.554 1.15-.832 1.944-.832a3.17 3.17 0 0 1 1.862.612v-1.284c-.526-.263-1.128-.397-1.808-.397-1.24 0-2.228.394-2.962 1.182s-1.104 1.823-1.104 3.102c0 1.14.336 2.072 1.006 2.793.7.743 1.6 1.114 2.7 1.114m-6.904-.188h1.248v-7.81H27.22v7.813zm.64-9.795a.79.79 0 0 0 .582-.238.78.78 0 0 0 .24-.579.77.77 0 0 0-.24-.575.8.8 0 0 0-.582-.232c-.224 0-.417.076-.577.232a.78.78 0 0 0-.238.575c0 .24.08.435.238.588a.81.81 0 0 0 .577.229M14.6 49.92l-.06-2.135h.028c.1.513.22.888.326 1.122l3.738 8.345h.626L23 48.846c.096-.22.206-.572.326-1.06h.03l-.108 2.12v7.347h1.283v-10.94h-1.607L19.487 53.9c-.133.294-.305.743-.524 1.34h-.054c-.08-.298-.243-.735-.496-1.3l-3.357-7.63h-1.693v10.94H14.6v-7.33zm65.74 1.273c-.358.356-.792.53-1.3.53s-.945-.174-1.3-.524-.54-.794-.54-1.32c0-.518.174-.954.523-1.307s.788-.527 1.317-.527a1.79 1.79 0 0 1 1.302.524 1.77 1.77 0 0 1 .533 1.311c0 .524-.18.966-.536 1.314m-1.292-3.378a2.03 2.03 0 0 0-1.493.599 2 2 0 0 0-.599 1.47c0 .593.195 1.082.6 1.47s.9.58 1.485.58a2.04 2.04 0 0 0 1.49-.596c.404-.396.605-.886.605-1.472 0-.596-.202-1.1-.6-1.48a2.04 2.04 0 0 0-1.468-.573M79 49.747h-.397v-.902h.33c.23 0 .392.04.488.116.085.072.127.18.127.33 0 .303-.18.454-.547.454m.273.235v-.01c.212-.045.38-.13.495-.26a.65.65 0 0 0 .178-.463.64.64 0 0 0-.217-.499c-.172-.15-.42-.222-.752-.222h-.745v2.648h.372v-1.1h.243c.17 0 .328.158.474.477l.288.634h.452l-.348-.704c-.144-.3-.3-.454-.438-.5" fill="#231f20"/></svg>