<svg width="430" height="932" viewBox="0 0 430 932" fill="none" xmlns="http://www.w3.org/2000/svg">
<rect width="430" height="932" fill="white"/>
<mask id="mask0_2_351" style="mask-type:luminance" maskUnits="userSpaceOnUse" x="132" y="0" width="57" height="70">
<path d="M188.588 0H132V69.165H188.588V0Z" fill="white"/>
</mask>
<g mask="url(#mask0_2_351)">
<path d="M186.016 0V19.115H154.036C153.65 19.1107 153.267 19.1828 152.909 19.3274C152.551 19.4719 152.225 19.6859 151.95 19.957C151.727 20.1784 151.544 20.4377 151.411 20.723C151.709 15.8809 153.543 11.2601 156.649 7.53294C159.754 3.80578 163.967 1.16679 168.676 0H186.016Z" fill="black"/>
<path d="M169.26 48.209C168.997 53.0754 167.181 57.7293 164.079 61.4887C160.978 65.248 156.754 67.9151 152.026 69.099H135.482V49.988H166.544C166.94 49.9932 167.332 49.9183 167.697 49.768C168.047 49.6254 168.364 49.4139 168.63 49.146C168.898 48.8765 169.112 48.5585 169.26 48.209Z" fill="black"/>
<path d="M188.588 47.0601C188.602 50.0081 188.013 52.9278 186.858 55.6401C186.623 56.1861 186.365 56.7241 186.085 57.2481C186.077 57.2701 186.069 57.2781 186.069 57.2931C186.067 57.3044 186.061 57.315 186.054 57.3241C183.678 61.8158 179.83 65.3537 175.154 67.3441C172.436 68.5161 169.504 69.1126 166.544 69.0961H152.033L152.2 69.0511C156.888 67.8376 161.069 65.1635 164.136 61.4159C167.203 57.6683 168.998 53.0417 169.26 48.2061V48.1981C169.538 47.4764 169.543 46.6784 169.275 45.9531C169.268 45.9381 169.26 45.9151 169.252 45.9001C169.108 45.5514 168.897 45.2344 168.63 44.9671C168.357 44.6938 168.032 44.4788 167.673 44.3353C167.314 44.1917 166.93 44.1226 166.544 44.1321H154.036C153.414 44.1321 152.792 44.1101 152.177 44.0491C152.155 44.0491 152.132 44.0411 152.102 44.0411C149.805 43.8592 147.553 43.2955 145.441 42.3731C140.186 40.1107 136.001 35.9147 133.752 30.6531C133.456 29.9752 133.198 29.2815 132.978 28.5751C132.322 26.4602 131.992 24.2575 132 22.0431C131.987 19.0884 132.583 16.1628 133.752 13.4491C136.014 8.20359 140.196 4.0216 145.441 1.76011C146.972 1.08979 148.58 0.610842 150.228 0.33411C150.289 0.31811 150.334 0.311104 150.364 0.303104C150.379 0.299268 150.395 0.29692 150.41 0.296101C151.608 0.0957257 152.821 -0.00462338 154.036 -0.00390239H168.676C163.967 1.16289 159.754 3.80188 156.649 7.52904C153.543 11.2562 151.709 15.877 151.411 20.7191C151.379 20.7753 151.351 20.8338 151.328 20.8941C151.178 21.257 151.104 21.6465 151.108 22.0391C151.104 22.4502 151.181 22.858 151.335 23.2391C151.351 23.2815 151.372 23.322 151.396 23.3601C151.527 23.6639 151.715 23.9396 151.95 24.1721C152.224 24.4447 152.55 24.6596 152.908 24.8042C153.266 24.9489 153.65 25.0202 154.036 25.0141H166.544C169.498 24.9984 172.424 25.5843 175.144 26.7361C180.433 28.9594 184.64 33.1664 186.863 38.4551C187.157 39.1406 187.413 39.8416 187.63 40.5551C188.273 42.6634 188.596 44.8561 188.588 47.0601Z" fill="black"/>
<g style="mix-blend-mode:multiply" opacity="0.16">
<path d="M169.26 48.209C168.996 53.0754 167.18 57.7293 164.079 61.4887C160.978 65.248 156.754 67.9151 152.026 69.099H147.414C151.284 67.2777 154.701 64.6182 157.416 61.3134C160.132 58.0085 162.078 54.141 163.114 49.991H166.542C166.937 49.9962 167.329 49.9213 167.695 49.771C168.045 49.6284 168.362 49.4169 168.628 49.149C168.897 48.8788 169.111 48.5597 169.26 48.209Z" fill="black"/>
</g>
<g style="mix-blend-mode:multiply" opacity="0.16">
<path d="M172.833 0C168.562 3.178 159.892 10.513 157.707 19.115H154.036C153.65 19.1107 153.267 19.1828 152.909 19.3274C152.551 19.4719 152.225 19.6859 151.95 19.957C151.727 20.1784 151.544 20.4377 151.411 20.723C151.709 15.8809 153.543 11.2601 156.649 7.53294C159.754 3.80578 163.967 1.16679 168.676 0H172.833Z" fill="black"/>
</g>
<g style="mix-blend-mode:multiply" opacity="0.25">
<path d="M186.017 5.71899V19.119H159.309C161.531 18.899 163.761 18.748 165.984 18.641C168.207 18.534 170.437 18.441 172.659 18.406C174.889 18.338 177.112 18.346 179.342 18.323C181.342 18.346 183.324 18.346 185.32 18.391C185.342 17.519 185.358 16.646 185.395 15.767C185.433 14.651 185.471 13.536 185.54 12.421C185.65 10.187 185.797 7.94899 186.017 5.71899Z" fill="black"/>
</g>
<g style="mix-blend-mode:screen" opacity="0.7">
<path d="M188.588 47.0602C188.602 50.0081 188.013 52.9278 186.858 55.6402C186.623 56.1862 186.365 56.7242 186.085 57.2482C186.161 57.0432 186.411 56.3901 186.785 55.3891C187.364 53.6869 187.744 51.9231 187.915 50.1332C188.023 48.9477 188.046 47.7559 187.984 46.5671C187.908 45.2525 187.725 43.9462 187.438 42.6612C187.289 41.9966 187.104 41.3406 186.884 40.6962C186.626 40.0292 186.368 39.3531 186.11 38.6781C185.531 37.3508 184.819 36.0854 183.986 34.9012C183.174 33.7012 182.235 32.5921 181.186 31.5931C180.175 30.6236 179.078 29.748 177.909 28.9771C176.8 28.2568 175.636 27.6252 174.427 27.0882C173.338 26.6197 172.215 26.2366 171.067 25.9421C169.32 25.5088 167.533 25.2522 165.734 25.1762C164.414 25.0762 163.663 25.0172 163.663 25.0172H166.538C169.492 25.0014 172.418 25.5873 175.138 26.7392C180.427 28.9625 184.634 33.1695 186.857 38.4581C187.151 39.1436 187.407 39.8447 187.624 40.5582C188.268 42.6652 188.593 44.8568 188.588 47.0602Z" fill="black"/>
</g>
<g style="mix-blend-mode:multiply" opacity="0.25">
<path d="M149.636 69.096H135.482V54.646C135.656 55.852 135.762 57.046 135.876 58.257C135.967 59.463 136.051 60.669 136.104 61.867C136.18 63.073 136.195 64.28 136.24 65.486L136.271 68.307C137.188 68.322 138.106 68.322 139.024 68.345C140.2 68.391 141.376 68.406 142.559 68.482C144.918 68.596 147.277 68.77 149.636 69.096Z" fill="black"/>
</g>
<g style="mix-blend-mode:screen" opacity="0.7">
<path d="M152.102 44.041C149.805 43.8591 147.553 43.2953 145.441 42.373C140.186 40.1106 136.001 35.9146 133.752 30.653C133.456 29.9751 133.198 29.2814 132.978 28.575C132.322 26.4601 131.992 24.2574 132 22.043C131.987 19.0883 132.583 16.1627 133.752 13.449C136.014 8.20346 140.196 4.02147 145.441 1.75998C146.972 1.08966 148.58 0.610716 150.228 0.333984C149.401 0.532809 148.586 0.775821 147.785 1.06198C142.353 3.00203 137.859 6.92976 135.209 12.053C133.457 15.4172 132.632 19.1874 132.819 22.976C132.878 24.8797 133.208 26.7653 133.798 28.576C133.972 29.038 134.139 29.501 134.306 29.956L134.427 30.297L134.458 30.381C134.465 30.3952 134.47 30.4104 134.473 30.426L134.549 30.593L134.837 31.238C135.22 32.0729 135.659 32.8814 136.149 33.658C137.079 35.1366 138.177 36.5033 139.419 37.731C140.547 38.8299 141.782 39.8134 143.105 40.667C144.235 41.3838 145.42 42.0101 146.648 42.54C147.607 42.9477 148.596 43.28 149.606 43.534C150.429 43.7449 151.262 43.9141 152.102 44.041Z" fill="black"/>
</g>
<g style="mix-blend-mode:screen" opacity="0.7">
<path d="M168.676 0C163.967 1.16679 159.754 3.80578 156.649 7.53294C153.543 11.2601 151.709 15.8809 151.411 20.723C151.379 20.7792 151.351 20.8377 151.328 20.898L151.389 20.708C151.366 20.108 151.366 19.502 151.366 18.895C151.411 18.289 151.479 17.682 151.54 17.067C151.64 16.467 151.775 15.867 151.889 15.267C152.041 14.667 152.246 14.091 152.42 13.492C152.62 12.908 152.868 12.346 153.11 11.77C153.368 11.209 153.672 10.67 153.945 10.116C154.263 9.578 154.612 9.06999 154.945 8.53899C155.309 8.03899 155.688 7.54499 156.068 7.05899C156.477 6.58899 156.91 6.14199 157.327 5.68599C157.782 5.26199 158.227 4.83699 158.7 4.42699L160.179 3.297C160.695 2.956 161.218 2.63699 161.749 2.31099C162.303 2.03799 162.842 1.742 163.395 1.476L165.11 0.80899C165.71 0.63399 166.293 0.45999 166.885 0.30899C167.477 0.18899 168.077 0.091 168.676 0Z" fill="black"/>
</g>
<g style="mix-blend-mode:screen" opacity="0.7">
<path d="M169.397 48.1981C169.404 48.8201 169.404 49.4271 169.389 50.0411C169.351 50.6561 169.275 51.2631 169.207 51.8771C169.101 52.4838 168.98 53.0908 168.843 53.6981C168.691 54.2981 168.494 54.8891 168.319 55.4801C168.119 56.0721 167.857 56.6331 167.619 57.2101C167.362 57.7791 167.066 58.3251 166.777 58.8791C166.466 59.4171 166.118 59.9331 165.784 60.4641C165.42 60.9721 165.04 61.4641 164.661 61.9581C164.252 62.4291 163.819 62.8841 163.402 63.3461C162.947 63.7791 162.502 64.2041 162.029 64.6211L160.549 65.7591C160.033 66.1004 159.51 66.4337 158.979 66.7591L157.333 67.6161L155.611 68.3061L153.843 68.8221C153.388 68.9131 152.943 69.0041 152.493 69.0801L152.593 69.0951L152.069 69.1561C152.062 69.1641 152.046 69.1641 152.039 69.1641L152.031 69.0951L152.024 69.0271L152.198 69.0501C156.887 67.8366 161.067 65.1625 164.134 61.4148C167.201 57.6672 168.996 53.0407 169.258 48.2051V48.1971C169.406 47.8361 169.478 47.4489 169.47 47.0591C169.525 47.4397 169.501 47.8276 169.397 48.1981Z" fill="black"/>
</g>
</g>
<mask id="mask1_2_351" style="mask-type:luminance" maskUnits="userSpaceOnUse" x="198" y="0" width="56" height="68">
<path d="M253.02 0H198V67.182H253.02V0Z" fill="white"/>
</mask>
<g mask="url(#mask1_2_351)">
<path d="M253.02 27.5321C253.022 29.8669 252.722 32.1921 252.128 34.4501C251.548 36.6649 250.698 38.8002 249.598 40.8081C248.983 41.9234 248.287 42.9929 247.518 44.0081C247.488 44.0601 247.466 44.0891 247.459 44.1081L247.452 44.1151C246.853 44.9053 246.213 45.6637 245.534 46.3871C244.572 47.4104 243.531 48.3572 242.422 49.2191C242.422 49.2191 234.441 54.9501 224.868 54.9501L223.297 54.9571L216.578 55.0011V36.4791H225.532C226.711 36.4887 227.879 36.2523 228.962 35.7851C230.029 35.3317 231.001 34.6787 231.823 33.8611C232.643 33.0359 233.295 32.0587 233.741 30.9841C234.211 29.8945 234.447 28.7185 234.434 27.5321C234.438 26.9305 234.381 26.3301 234.264 25.7401C234.26 25.7333 234.258 25.7258 234.257 25.7181C234.146 25.1503 233.973 24.5963 233.741 24.0661C232.834 21.9032 231.116 20.182 228.954 19.2721C227.874 18.8044 226.709 18.5683 225.532 18.5791H216.578C216.577 13.6522 214.619 8.92748 211.135 5.44356C207.651 1.95964 202.927 0.00167306 198 8.25541e-05H225.532C228.002 -0.0060215 230.461 0.326403 232.841 0.988082C235.135 1.62808 237.336 2.56287 239.39 3.76908C240.128 4.20408 240.843 4.67608 241.537 5.17808L241.595 5.21408C244.703 7.46981 247.31 10.3453 249.251 13.6591C250.456 15.7162 251.391 17.92 252.032 20.2161C252.693 22.5983 253.026 25.0598 253.02 27.5321Z" fill="black"/>
<path d="M250.04 67.1821H230.156L227.022 59.9321L224.865 54.9471C234.438 54.9471 242.419 49.2161 242.419 49.2161L244.705 54.6161L245.105 55.5531C245.105 55.5601 245.113 55.5601 245.113 55.5671L250.04 67.1821Z" fill="black"/>
<path d="M216.578 18.579V67.179H198V0C202.927 0.00159051 207.651 1.95956 211.135 5.44348C214.619 8.9274 216.577 13.6521 216.578 18.579Z" fill="black"/>
<g style="mix-blend-mode:multiply" opacity="0.16">
<path d="M216.578 18.579C216.577 13.6521 214.619 8.9274 211.135 5.44348C207.651 1.95956 202.927 0.00159051 198 0H214.823C218.577 3.511 222.184 9.264 223.076 18.579H216.578Z" fill="black"/>
</g>
<g style="mix-blend-mode:multiply" opacity="0.16">
<path d="M223.297 36.479V54.954L216.578 54.998V36.479H223.297Z" fill="black"/>
</g>
<g style="mix-blend-mode:multiply" opacity="0.16">
<path d="M244.708 54.6151C239.206 57.4988 233.203 59.3035 227.022 59.9321L224.865 54.9471C234.438 54.9471 242.419 49.2161 242.419 49.2161L244.708 54.6151Z" fill="black"/>
</g>
<g style="mix-blend-mode:multiply" opacity="0.25">
<path d="M253.02 27.532C253.022 29.8668 252.722 32.192 252.128 34.45C251.548 36.6648 250.698 38.8001 249.598 40.808C248.983 41.9233 248.288 42.9928 247.518 44.008C247.651 43.794 247.975 43.278 248.41 42.489C249.205 41.0513 249.888 39.5545 250.453 38.012C251.243 35.853 251.785 33.6113 252.069 31.33C252.217 30.0521 252.286 28.7663 252.275 27.48C252.262 26.1513 252.154 24.8252 251.951 23.512C251.759 22.1986 251.468 20.9016 251.08 19.632C250.706 18.4009 250.255 17.1942 249.731 16.019C249.231 14.9185 248.67 13.8471 248.049 12.81C247.449 11.829 246.825 10.922 246.212 10.118C245.215 8.8127 244.118 7.5873 242.93 6.453C242.068 5.619 241.537 5.177 241.537 5.177L241.595 5.213C244.703 7.46873 247.31 10.3442 249.251 13.658C250.456 15.7151 251.391 17.9189 252.032 20.215C252.693 22.5976 253.026 25.0594 253.02 27.532Z" fill="black"/>
</g>
<g style="mix-blend-mode:multiply" opacity="0.25">
<path d="M250.04 67.1821H235.208C236.447 66.9981 237.679 66.8871 238.918 66.7821C240.157 66.6771 241.389 66.6051 242.618 66.5461C243.847 66.4871 245.096 66.4581 246.328 66.4351L248.894 66.4131C248.643 65.7941 248.394 65.1741 248.157 64.5471C247.766 63.5671 247.397 62.5861 247.043 61.5901C246.689 60.5941 246.343 59.5991 246.01 58.5901C245.677 57.5811 245.376 56.5771 245.11 55.5591L250.04 67.1821Z" fill="black"/>
</g>
<g style="mix-blend-mode:screen" opacity="0.7">
<path d="M198.774 33.595C198.767 35.695 198.759 37.795 198.745 39.857C198.731 41.919 198.7 43.957 198.678 45.927C198.627 49.865 198.545 53.538 198.442 56.687C198.258 62.987 198 67.182 198 67.182V0C198 0 198.258 4.2 198.442 10.495C198.542 13.645 198.627 17.317 198.678 21.256C198.7 23.225 198.745 25.261 198.745 27.326C198.745 29.391 198.765 31.493 198.774 33.595Z" fill="white"/>
</g>
<g style="mix-blend-mode:multiply" opacity="0.25">
<path d="M234.773 28.978C234.745 29.5294 234.656 30.0761 234.508 30.608C234.427 30.888 234.323 31.198 234.227 31.463C234.115 31.7612 233.985 32.0521 233.837 32.334C233.531 32.9324 233.155 33.492 232.716 34.001C232.262 34.5241 231.752 34.9962 231.196 35.409C230.627 35.8069 230.02 36.1457 229.382 36.42C228.765 36.6814 228.119 36.867 227.457 36.973C226.843 37.0724 226.219 37.0996 225.598 37.054C225.038 37.025 224.522 36.973 224.035 36.921C222.11 36.737 220.826 36.479 220.826 36.479H225.532C226.711 36.4886 227.879 36.2523 228.962 35.785C230.03 35.3316 231.001 34.6786 231.823 33.861C232.643 33.0358 233.295 32.0586 233.741 30.984C234.211 29.8944 234.447 28.7184 234.434 27.532C234.438 26.9304 234.381 26.3301 234.264 25.74C234.382 26.0092 234.476 26.2883 234.545 26.574C234.739 27.3597 234.816 28.1698 234.773 28.978Z" fill="black"/>
</g>
<g style="mix-blend-mode:screen" opacity="0.7">
<path d="M216.578 18.579V67.179C216.578 67.179 216.512 65.963 216.438 63.838C216.364 61.713 216.238 58.668 216.158 55.025C216.058 51.381 215.981 47.125 215.929 42.568C215.907 40.289 215.885 37.936 215.863 35.539C215.841 33.142 215.848 30.716 215.841 28.289C215.834 25.862 215.855 23.421 215.87 21.032C215.863 19.844 215.9 18.632 215.863 17.514C215.811 16.4015 215.653 15.2965 215.391 14.214C214.895 12.1491 214.047 10.1853 212.883 8.40898C210.921 5.43331 208.15 3.07948 204.896 1.62398C203.741 1.1055 202.534 0.709991 201.296 0.443977C200.495 0.27147 199.684 0.143274 198.869 0.0599766C198.301 0.0229766 197.999 0.000976562 197.999 0.000976562C202.926 0.00256707 207.651 1.96053 211.134 5.44446C214.618 8.92838 216.576 13.6531 216.577 18.58L216.578 18.579Z" fill="black"/>
</g>
</g>
</svg>
