<svg width="430" height="932" viewBox="0 0 430 932" fill="none" xmlns="http://www.w3.org/2000/svg">
<g clip-path="url(#clip0_1_250)">
<rect width="430" height="932" fill="white"/>
<g filter="url(#filter0_di_1_250)">
<ellipse cx="193" cy="461" rx="569" ry="585" fill="black"/>
</g>
<mask id="mask0_1_250" style="mask-type:luminance" maskUnits="userSpaceOnUse" x="142" y="431" width="57" height="70">
<path d="M198.588 431H142V500.165H198.588V431Z" fill="white"/>
</mask>
<g mask="url(#mask0_1_250)">
<path d="M196.016 431V450.115H164.036C163.65 450.111 163.267 450.183 162.909 450.327C162.551 450.472 162.225 450.686 161.95 450.957C161.727 451.178 161.544 451.438 161.411 451.723C161.709 446.881 163.543 442.26 166.649 438.533C169.754 434.806 173.967 432.167 178.676 431H196.016Z" fill="white"/>
<path d="M179.26 479.209C178.997 484.075 177.181 488.729 174.079 492.489C170.978 496.248 166.754 498.915 162.026 500.099H145.482V480.988H176.544C176.94 480.993 177.332 480.918 177.697 480.768C178.047 480.625 178.364 480.414 178.63 480.146C178.898 479.876 179.112 479.558 179.26 479.209Z" fill="white"/>
<path d="M198.588 478.06C198.602 481.008 198.013 483.928 196.858 486.64C196.623 487.186 196.365 487.724 196.085 488.248C196.077 488.27 196.069 488.278 196.069 488.293C196.067 488.304 196.061 488.315 196.054 488.324C193.678 492.816 189.83 496.354 185.154 498.344C182.436 499.516 179.504 500.113 176.544 500.096H162.033L162.2 500.051C166.888 498.838 171.069 496.163 174.136 492.416C177.203 488.668 178.998 484.042 179.26 479.206V479.198C179.538 478.476 179.543 477.678 179.275 476.953C179.268 476.938 179.26 476.915 179.252 476.9C179.108 476.551 178.897 476.234 178.63 475.967C178.357 475.694 178.032 475.479 177.673 475.335C177.314 475.192 176.93 475.123 176.544 475.132H164.036C163.414 475.132 162.792 475.11 162.177 475.049C162.155 475.049 162.132 475.041 162.102 475.041C159.805 474.859 157.553 474.296 155.441 473.373C150.186 471.111 146.001 466.915 143.752 461.653C143.456 460.975 143.198 460.281 142.978 459.575C142.322 457.46 141.992 455.257 142 453.043C141.987 450.088 142.583 447.163 143.752 444.449C146.014 439.204 150.196 435.022 155.441 432.76C156.972 432.09 158.58 431.611 160.228 431.334C160.289 431.318 160.334 431.311 160.364 431.303C160.379 431.299 160.395 431.297 160.41 431.296C161.608 431.096 162.821 430.995 164.036 430.996H178.676C173.967 432.163 169.754 434.802 166.649 438.529C163.543 442.256 161.709 446.877 161.411 451.719C161.379 451.775 161.351 451.834 161.328 451.894C161.178 452.257 161.104 452.647 161.108 453.039C161.104 453.45 161.181 453.858 161.335 454.239C161.351 454.281 161.372 454.322 161.396 454.36C161.527 454.664 161.715 454.94 161.95 455.172C162.224 455.445 162.55 455.66 162.908 455.804C163.266 455.949 163.65 456.02 164.036 456.014H176.544C179.498 455.998 182.424 456.584 185.144 457.736C190.433 459.959 194.64 464.166 196.863 469.455C197.157 470.141 197.413 470.842 197.63 471.555C198.273 473.663 198.596 475.856 198.588 478.06Z" fill="white"/>
<g style="mix-blend-mode:multiply" opacity="0.16">
<path d="M179.26 479.209C178.996 484.075 177.18 488.729 174.079 492.489C170.978 496.248 166.754 498.915 162.026 500.099H157.414C161.284 498.278 164.701 495.618 167.416 492.313C170.132 489.009 172.078 485.141 173.114 480.991H176.542C176.937 480.996 177.329 480.921 177.695 480.771C178.045 480.628 178.362 480.417 178.628 480.149C178.897 479.879 179.111 479.56 179.26 479.209Z" fill="white"/>
</g>
<g style="mix-blend-mode:multiply" opacity="0.16">
<path d="M182.833 431C178.562 434.178 169.892 441.513 167.707 450.115H164.036C163.65 450.111 163.267 450.183 162.909 450.327C162.551 450.472 162.225 450.686 161.95 450.957C161.727 451.178 161.544 451.438 161.411 451.723C161.709 446.881 163.543 442.26 166.649 438.533C169.754 434.806 173.967 432.167 178.676 431H182.833Z" fill="white"/>
</g>
<g style="mix-blend-mode:multiply" opacity="0.25">
<path d="M196.017 436.719V450.119H169.309C171.531 449.899 173.761 449.748 175.984 449.641C178.207 449.534 180.437 449.441 182.659 449.406C184.889 449.338 187.112 449.346 189.342 449.323C191.342 449.346 193.324 449.346 195.32 449.391C195.342 448.519 195.358 447.646 195.395 446.767C195.433 445.651 195.471 444.536 195.54 443.421C195.65 441.187 195.797 438.949 196.017 436.719Z" fill="white"/>
</g>
<g style="mix-blend-mode:screen" opacity="0.7">
<path d="M198.588 478.06C198.602 481.008 198.013 483.928 196.858 486.64C196.623 487.186 196.365 487.724 196.085 488.248C196.161 488.043 196.411 487.39 196.785 486.389C197.364 484.687 197.744 482.923 197.915 481.133C198.023 479.948 198.046 478.756 197.984 477.567C197.908 476.253 197.725 474.946 197.438 473.661C197.289 472.997 197.104 472.341 196.884 471.696C196.626 471.029 196.368 470.353 196.11 469.678C195.531 468.351 194.82 467.085 193.986 465.901C193.174 464.701 192.235 463.592 191.186 462.593C190.175 461.624 189.079 460.748 187.909 459.977C186.8 459.257 185.636 458.625 184.427 458.088C183.339 457.62 182.215 457.237 181.067 456.942C179.32 456.509 177.533 456.252 175.734 456.176C174.414 456.076 173.663 456.017 173.663 456.017H176.538C179.492 456.001 182.418 456.587 185.138 457.739C190.427 459.963 194.634 464.17 196.857 469.458C197.151 470.144 197.407 470.845 197.624 471.558C198.268 473.665 198.593 475.857 198.588 478.06Z" fill="white"/>
</g>
<g style="mix-blend-mode:multiply" opacity="0.25">
<path d="M159.636 500.096H145.482V485.646C145.656 486.852 145.762 488.046 145.876 489.257C145.967 490.463 146.051 491.669 146.104 492.867C146.18 494.073 146.195 495.28 146.24 496.486L146.271 499.307C147.188 499.322 148.106 499.322 149.024 499.345C150.2 499.391 151.376 499.406 152.559 499.482C154.918 499.596 157.277 499.77 159.636 500.096Z" fill="white"/>
</g>
<g style="mix-blend-mode:screen" opacity="0.7">
<path d="M162.102 475.041C159.805 474.859 157.553 474.295 155.441 473.373C150.186 471.111 146.001 466.915 143.752 461.653C143.456 460.975 143.198 460.281 142.978 459.575C142.322 457.46 141.992 455.257 142 453.043C141.987 450.088 142.583 447.163 143.752 444.449C146.014 439.203 150.196 435.021 155.441 432.76C156.972 432.09 158.58 431.611 160.228 431.334C159.401 431.533 158.586 431.776 157.785 432.062C152.353 434.002 147.859 437.93 145.209 443.053C143.457 446.417 142.632 450.187 142.819 453.976C142.878 455.88 143.208 457.765 143.798 459.576C143.972 460.038 144.139 460.501 144.306 460.956L144.427 461.297L144.458 461.381C144.465 461.395 144.47 461.41 144.473 461.426L144.549 461.593L144.837 462.238C145.22 463.073 145.659 463.881 146.149 464.658C147.079 466.137 148.177 467.503 149.419 468.731C150.547 469.83 151.782 470.813 153.105 471.667C154.235 472.384 155.42 473.01 156.648 473.54C157.607 473.948 158.596 474.28 159.606 474.534C160.429 474.745 161.262 474.914 162.102 475.041Z" fill="white"/>
</g>
<g style="mix-blend-mode:screen" opacity="0.7">
<path d="M178.676 431C173.967 432.167 169.754 434.806 166.649 438.533C163.543 442.26 161.708 446.881 161.411 451.723C161.379 451.779 161.351 451.838 161.328 451.898L161.389 451.708C161.366 451.108 161.366 450.502 161.366 449.895C161.411 449.289 161.479 448.682 161.54 448.067C161.64 447.467 161.775 446.867 161.889 446.267C162.041 445.667 162.246 445.091 162.42 444.492C162.62 443.908 162.868 443.346 163.11 442.77C163.368 442.209 163.672 441.67 163.945 441.116C164.263 440.578 164.612 440.07 164.945 439.539C165.309 439.039 165.688 438.545 166.068 438.059C166.477 437.589 166.91 437.142 167.327 436.686C167.782 436.262 168.227 435.837 168.7 435.427L170.179 434.297C170.695 433.956 171.218 433.637 171.749 433.311C172.303 433.038 172.842 432.742 173.395 432.476L175.11 431.809C175.71 431.634 176.293 431.46 176.885 431.309C177.477 431.189 178.077 431.091 178.676 431Z" fill="white"/>
</g>
<g style="mix-blend-mode:screen" opacity="0.7">
<path d="M179.397 479.198C179.404 479.82 179.404 480.427 179.389 481.041C179.351 481.656 179.275 482.263 179.207 482.877C179.101 483.484 178.98 484.091 178.843 484.698C178.691 485.298 178.494 485.889 178.319 486.48C178.119 487.072 177.857 487.633 177.619 488.21C177.362 488.779 177.066 489.325 176.777 489.879C176.466 490.417 176.118 490.933 175.784 491.464C175.42 491.972 175.04 492.464 174.661 492.958C174.252 493.429 173.819 493.884 173.402 494.346C172.947 494.779 172.502 495.204 172.029 495.621L170.549 496.759C170.033 497.1 169.51 497.434 168.979 497.759L167.333 498.616L165.611 499.306L163.843 499.822C163.388 499.913 162.943 500.004 162.493 500.08L162.593 500.095L162.069 500.156C162.062 500.164 162.046 500.164 162.039 500.164L162.031 500.095L162.024 500.027L162.198 500.05C166.887 498.837 171.067 496.162 174.134 492.415C177.201 488.667 178.996 484.041 179.258 479.205V479.197C179.406 478.836 179.478 478.449 179.47 478.059C179.525 478.44 179.5 478.828 179.397 479.198Z" fill="white"/>
</g>
</g>
<mask id="mask1_1_250" style="mask-type:luminance" maskUnits="userSpaceOnUse" x="209" y="431" width="56" height="68">
<path d="M264.02 431H209V498.182H264.02V431Z" fill="white"/>
</mask>
<g mask="url(#mask1_1_250)">
<path d="M264.02 458.532C264.022 460.867 263.722 463.192 263.128 465.45C262.548 467.665 261.698 469.8 260.598 471.808C259.983 472.923 259.287 473.993 258.518 475.008C258.488 475.06 258.466 475.089 258.459 475.108L258.452 475.115C257.853 475.905 257.213 476.664 256.534 477.387C255.572 478.41 254.531 479.357 253.422 480.219C253.422 480.219 245.441 485.95 235.868 485.95L234.297 485.957L227.578 486.001V467.479H236.532C237.711 467.489 238.879 467.252 239.962 466.785C241.029 466.332 242.001 465.679 242.823 464.861C243.643 464.036 244.295 463.059 244.741 461.984C245.211 460.895 245.447 459.719 245.434 458.532C245.438 457.931 245.381 457.33 245.264 456.74C245.26 456.733 245.258 456.726 245.257 456.718C245.146 456.15 244.973 455.596 244.741 455.066C243.834 452.903 242.116 451.182 239.954 450.272C238.874 449.804 237.709 449.568 236.532 449.579H227.578C227.577 444.652 225.619 439.927 222.135 436.444C218.651 432.96 213.927 431.002 209 431H236.532C239.002 430.994 241.461 431.326 243.841 431.988C246.135 432.628 248.336 433.563 250.39 434.769C251.128 435.204 251.843 435.676 252.537 436.178L252.595 436.214C255.703 438.47 258.31 441.345 260.251 444.659C261.456 446.716 262.391 448.92 263.032 451.216C263.693 453.598 264.026 456.06 264.02 458.532Z" fill="white"/>
<path d="M261.04 498.182H241.156L238.022 490.932L235.865 485.947C245.438 485.947 253.419 480.216 253.419 480.216L255.705 485.616L256.105 486.553C256.105 486.56 256.113 486.56 256.113 486.567L261.04 498.182Z" fill="white"/>
<path d="M227.578 449.579V498.179H209V431C213.927 431.002 218.651 432.96 222.135 436.443C225.619 439.927 227.577 444.652 227.578 449.579Z" fill="white"/>
<g style="mix-blend-mode:multiply" opacity="0.16">
<path d="M227.578 449.579C227.577 444.652 225.619 439.927 222.135 436.443C218.651 432.96 213.927 431.002 209 431H225.823C229.577 434.511 233.184 440.264 234.076 449.579H227.578Z" fill="white"/>
</g>
<g style="mix-blend-mode:multiply" opacity="0.16">
<path d="M234.297 467.479V485.954L227.578 485.998V467.479H234.297Z" fill="white"/>
</g>
<g style="mix-blend-mode:multiply" opacity="0.16">
<path d="M255.708 485.615C250.206 488.499 244.203 490.303 238.022 490.932L235.865 485.947C245.438 485.947 253.419 480.216 253.419 480.216L255.708 485.615Z" fill="white"/>
</g>
<g style="mix-blend-mode:multiply" opacity="0.25">
<path d="M264.02 458.532C264.022 460.867 263.722 463.192 263.128 465.45C262.548 467.665 261.698 469.8 260.598 471.808C259.983 472.923 259.288 473.993 258.518 475.008C258.651 474.794 258.975 474.278 259.41 473.489C260.205 472.051 260.888 470.554 261.453 469.012C262.243 466.853 262.785 464.611 263.069 462.33C263.217 461.052 263.286 459.766 263.275 458.48C263.262 457.151 263.154 455.825 262.951 454.512C262.759 453.199 262.468 451.902 262.08 450.632C261.706 449.401 261.255 448.194 260.731 447.019C260.231 445.918 259.67 444.847 259.049 443.81C258.449 442.829 257.825 441.922 257.212 441.118C256.215 439.813 255.118 438.587 253.93 437.453C253.068 436.619 252.537 436.177 252.537 436.177L252.595 436.213C255.703 438.469 258.31 441.344 260.251 444.658C261.456 446.715 262.391 448.919 263.032 451.215C263.693 453.598 264.026 456.059 264.02 458.532Z" fill="white"/>
</g>
<g style="mix-blend-mode:multiply" opacity="0.25">
<path d="M261.04 498.182H246.208C247.447 497.998 248.679 497.887 249.918 497.782C251.157 497.677 252.389 497.605 253.618 497.546C254.847 497.487 256.096 497.458 257.328 497.435L259.894 497.413C259.643 496.794 259.394 496.174 259.157 495.547C258.766 494.567 258.397 493.586 258.043 492.59C257.689 491.594 257.343 490.599 257.01 489.59C256.677 488.581 256.376 487.577 256.11 486.559L261.04 498.182Z" fill="white"/>
</g>
<g style="mix-blend-mode:screen" opacity="0.7">
<path d="M209.774 464.595C209.767 466.695 209.759 468.795 209.745 470.857C209.731 472.919 209.7 474.957 209.678 476.927C209.627 480.865 209.545 484.538 209.442 487.687C209.258 493.987 209 498.182 209 498.182V431C209 431 209.258 435.2 209.442 441.495C209.542 444.645 209.627 448.317 209.678 452.256C209.7 454.225 209.745 456.261 209.745 458.326C209.745 460.391 209.765 462.493 209.774 464.595Z" fill="white"/>
</g>
<g style="mix-blend-mode:multiply" opacity="0.25">
<path d="M245.773 459.978C245.745 460.529 245.656 461.076 245.508 461.608C245.427 461.888 245.323 462.198 245.227 462.463C245.116 462.761 244.985 463.052 244.837 463.334C244.531 463.932 244.155 464.492 243.716 465.001C243.262 465.524 242.752 465.996 242.196 466.409C241.628 466.807 241.02 467.146 240.382 467.42C239.765 467.681 239.119 467.867 238.457 467.973C237.843 468.072 237.219 468.1 236.598 468.054C236.038 468.025 235.522 467.973 235.035 467.921C233.11 467.737 231.826 467.479 231.826 467.479H236.532C237.711 467.489 238.88 467.252 239.962 466.785C241.03 466.332 242.001 465.679 242.823 464.861C243.644 464.036 244.295 463.059 244.741 461.984C245.211 460.894 245.447 459.718 245.434 458.532C245.438 457.93 245.381 457.33 245.264 456.74C245.382 457.009 245.476 457.288 245.545 457.574C245.739 458.36 245.816 459.17 245.773 459.978Z" fill="white"/>
</g>
<g style="mix-blend-mode:screen" opacity="0.7">
<path d="M227.578 449.579V498.179C227.578 498.179 227.512 496.963 227.438 494.838C227.364 492.713 227.238 489.668 227.158 486.025C227.058 482.381 226.981 478.125 226.929 473.568C226.907 471.289 226.885 468.936 226.863 466.539C226.841 464.142 226.848 461.716 226.841 459.289C226.834 456.862 226.855 454.421 226.87 452.032C226.863 450.844 226.9 449.632 226.863 448.514C226.811 447.402 226.653 446.296 226.391 445.214C225.895 443.149 225.047 441.185 223.883 439.409C221.921 436.433 219.15 434.079 215.896 432.624C214.741 432.105 213.534 431.71 212.296 431.444C211.495 431.271 210.684 431.143 209.869 431.06C209.301 431.023 208.999 431.001 208.999 431.001C213.926 431.003 218.651 432.961 222.134 436.444C225.618 439.928 227.576 444.653 227.577 449.58L227.578 449.579Z" fill="white"/>
</g>
</g>
</g>
<defs>
<filter id="filter0_di_1_250" x="-476" y="-226" width="1338" height="1370" filterUnits="userSpaceOnUse" color-interpolation-filters="sRGB">
<feFlood flood-opacity="0" result="BackgroundImageFix"/>
<feColorMatrix in="SourceAlpha" type="matrix" values="0 0 0 0 0 0 0 0 0 0 0 0 0 0 0 0 0 0 127 0" result="hardAlpha"/>
<feOffset dy="-2"/>
<feGaussianBlur stdDeviation="50"/>
<feComposite in2="hardAlpha" operator="out"/>
<feColorMatrix type="matrix" values="0 0 0 0 0 0 0 0 0 0 0 0 0 0 0 0 0 0 0.75 0"/>
<feBlend mode="normal" in2="BackgroundImageFix" result="effect1_dropShadow_1_250"/>
<feBlend mode="normal" in="SourceGraphic" in2="effect1_dropShadow_1_250" result="shape"/>
<feColorMatrix in="SourceAlpha" type="matrix" values="0 0 0 0 0 0 0 0 0 0 0 0 0 0 0 0 0 0 127 0" result="hardAlpha"/>
<feOffset dy="1"/>
<feGaussianBlur stdDeviation="12.5"/>
<feComposite in2="hardAlpha" operator="arithmetic" k2="-1" k3="1"/>
<feColorMatrix type="matrix" values="0 0 0 0 0 0 0 0 0 0 0 0 0 0 0 0 0 0 1 0"/>
<feBlend mode="normal" in2="shape" result="effect2_innerShadow_1_250"/>
</filter>
<clipPath id="clip0_1_250">
<rect width="430" height="932" fill="white"/>
</clipPath>
</defs>
</svg>
