<svg width="430" height="932" viewBox="0 0 430 932" fill="none" xmlns="http://www.w3.org/2000/svg">
<g clip-path="url(#clip0_1_298)">
<rect width="430" height="932" fill="white"/>
<g filter="url(#filter0_di_1_298)">
<ellipse cx="193" cy="461" rx="569" ry="585" fill="black"/>
</g>
<path d="M80.7557 476.778C80.6989 476.153 80.446 475.668 79.9972 475.321C79.554 474.969 78.9205 474.793 78.0966 474.793C77.5511 474.793 77.0966 474.864 76.733 475.006C76.3693 475.148 76.0966 475.344 75.9148 475.594C75.733 475.838 75.6392 476.119 75.6335 476.438C75.6222 476.699 75.6733 476.929 75.7869 477.128C75.9063 477.327 76.0767 477.503 76.2983 477.656C76.5256 477.804 76.7983 477.935 77.1165 478.048C77.4347 478.162 77.7926 478.261 78.1903 478.347L79.6903 478.688C80.554 478.875 81.3153 479.125 81.9744 479.438C82.6392 479.75 83.196 480.122 83.6449 480.554C84.0994 480.986 84.4432 481.483 84.6761 482.045C84.9091 482.608 85.0284 483.239 85.0341 483.938C85.0284 485.04 84.75 485.986 84.1989 486.776C83.6477 487.565 82.8551 488.17 81.821 488.591C80.7926 489.011 79.5511 489.222 78.0966 489.222C76.6364 489.222 75.3636 489.003 74.2784 488.565C73.1932 488.128 72.3494 487.463 71.7472 486.571C71.1449 485.679 70.8352 484.551 70.8182 483.188H74.858C74.892 483.75 75.0426 484.219 75.3097 484.594C75.5767 484.969 75.9432 485.253 76.4091 485.446C76.8807 485.639 77.4261 485.736 78.0455 485.736C78.6136 485.736 79.0966 485.659 79.4943 485.506C79.8977 485.352 80.2074 485.139 80.4233 484.866C80.6392 484.594 80.75 484.281 80.7557 483.929C80.75 483.599 80.6477 483.318 80.4489 483.085C80.25 482.847 79.9432 482.642 79.5284 482.472C79.1193 482.295 78.5966 482.134 77.9602 481.986L76.1364 481.56C74.625 481.213 73.4347 480.653 72.5653 479.881C71.696 479.102 71.2642 478.051 71.2699 476.727C71.2642 475.648 71.554 474.702 72.1392 473.889C72.7244 473.077 73.5341 472.443 74.5682 471.989C75.6023 471.534 76.7813 471.307 78.1051 471.307C79.4574 471.307 80.6307 471.537 81.625 471.997C82.625 472.452 83.4006 473.091 83.9517 473.915C84.5028 474.739 84.7841 475.693 84.7955 476.778H80.7557ZM87.1648 489V471.545H91.3835V478.551H98.2614V471.545H102.472V489H98.2614V481.986H91.3835V489H87.1648ZM108.893 489H104.359L110.249 471.545H115.865L121.754 489H117.22L113.121 475.943H112.984L108.893 489ZM108.288 482.131H117.766V485.335H108.288V482.131ZM123.634 489V471.545H130.844C132.151 471.545 133.278 471.781 134.227 472.253C135.182 472.719 135.918 473.389 136.435 474.264C136.952 475.134 137.21 476.165 137.21 477.358C137.21 478.568 136.946 479.597 136.418 480.443C135.889 481.284 135.139 481.926 134.168 482.369C133.196 482.807 132.045 483.026 130.716 483.026H126.156V479.702H129.932C130.568 479.702 131.099 479.619 131.526 479.455C131.957 479.284 132.284 479.028 132.506 478.688C132.727 478.341 132.838 477.898 132.838 477.358C132.838 476.818 132.727 476.372 132.506 476.02C132.284 475.662 131.957 475.395 131.526 475.219C131.094 475.037 130.563 474.946 129.932 474.946H127.852V489H123.634ZM133.46 481.023L137.807 489H133.205L128.943 481.023H133.46ZM143.3 489H138.766L144.655 471.545H150.271L156.161 489H151.626L147.527 475.943H147.391L143.3 489ZM142.695 482.131H152.172V485.335H142.695V482.131ZM172.895 471.545V489H169.315L162.369 478.926H162.259V489H158.04V471.545H161.67L168.54 481.602H168.685V471.545H172.895ZM180.704 489V471.545H187.914C189.221 471.545 190.349 471.781 191.298 472.253C192.252 472.719 192.988 473.389 193.505 474.264C194.022 475.134 194.281 476.165 194.281 477.358C194.281 478.568 194.016 479.597 193.488 480.443C192.96 481.284 192.21 481.926 191.238 482.369C190.266 482.807 189.116 483.026 187.786 483.026H183.227V479.702H187.002C187.638 479.702 188.17 479.619 188.596 479.455C189.028 479.284 189.354 479.028 189.576 478.688C189.798 478.341 189.908 477.898 189.908 477.358C189.908 476.818 189.798 476.372 189.576 476.02C189.354 475.662 189.028 475.395 188.596 475.219C188.164 475.037 187.633 474.946 187.002 474.946H184.923V489H180.704ZM190.531 481.023L194.877 489H190.275L186.013 481.023H190.531ZM196.594 489V471.545H208.765V474.972H200.813V478.551H208.143V481.986H200.813V485.574H208.765V489H196.594ZM217.859 489H211.407V471.545H217.85C219.629 471.545 221.16 471.895 222.444 472.594C223.734 473.287 224.728 474.287 225.427 475.594C226.126 476.895 226.475 478.452 226.475 480.264C226.475 482.082 226.126 483.645 225.427 484.952C224.734 486.259 223.742 487.261 222.452 487.96C221.163 488.653 219.631 489 217.859 489ZM215.626 485.403H217.697C218.674 485.403 219.501 485.239 220.177 484.909C220.859 484.574 221.373 484.031 221.719 483.281C222.072 482.526 222.248 481.52 222.248 480.264C222.248 479.009 222.072 478.009 221.719 477.264C221.367 476.514 220.847 475.974 220.16 475.645C219.478 475.31 218.637 475.142 217.637 475.142H215.626V485.403ZM235.39 489H228.938V471.545H235.381C237.16 471.545 238.691 471.895 239.975 472.594C241.265 473.287 242.259 474.287 242.958 475.594C243.657 476.895 244.006 478.452 244.006 480.264C244.006 482.082 243.657 483.645 242.958 484.952C242.265 486.259 241.273 487.261 239.984 487.96C238.694 488.653 237.163 489 235.39 489ZM233.157 485.403H235.228C236.205 485.403 237.032 485.239 237.708 484.909C238.39 484.574 238.904 484.031 239.251 483.281C239.603 482.526 239.779 481.52 239.779 480.264C239.779 479.009 239.603 478.009 239.251 477.264C238.898 476.514 238.379 475.974 237.691 475.645C237.009 475.31 236.168 475.142 235.168 475.142H233.157V485.403ZM244.452 471.545H249.165L252.855 478.849H253.009L256.699 471.545H261.412L255.028 483.17V489H250.835V483.17L244.452 471.545ZM268.337 489V471.545H272.555V478.926H272.786L278.555 471.545H283.524L277.337 479.335L283.635 489H278.589L274.243 482.139L272.555 484.27V489H268.337ZM300.631 480.273C300.631 482.193 300.262 483.821 299.523 485.156C298.785 486.491 297.785 487.506 296.523 488.199C295.268 488.892 293.859 489.239 292.296 489.239C290.728 489.239 289.316 488.889 288.06 488.19C286.805 487.491 285.808 486.477 285.069 485.148C284.336 483.812 283.969 482.187 283.969 480.273C283.969 478.352 284.336 476.724 285.069 475.389C285.808 474.054 286.805 473.04 288.06 472.347C289.316 471.653 290.728 471.307 292.296 471.307C293.859 471.307 295.268 471.653 296.523 472.347C297.785 473.04 298.785 474.054 299.523 475.389C300.262 476.724 300.631 478.352 300.631 480.273ZM296.319 480.273C296.319 479.136 296.157 478.176 295.833 477.392C295.515 476.608 295.055 476.014 294.452 475.611C293.856 475.207 293.137 475.006 292.296 475.006C291.461 475.006 290.742 475.207 290.14 475.611C289.538 476.014 289.075 476.608 288.751 477.392C288.433 478.176 288.273 479.136 288.273 480.273C288.273 481.409 288.433 482.369 288.751 483.153C289.075 483.937 289.538 484.531 290.14 484.935C290.742 485.338 291.461 485.54 292.296 485.54C293.137 485.54 293.856 485.338 294.452 484.935C295.055 484.531 295.515 483.937 295.833 483.153C296.157 482.369 296.319 481.409 296.319 480.273ZM317.95 471.545V489H314.37L307.424 478.926H307.313V489H303.094V471.545H306.725L313.594 481.602H313.739V471.545H317.95ZM327.054 489H320.602V471.545H327.045C328.824 471.545 330.355 471.895 331.639 472.594C332.929 473.287 333.923 474.287 334.622 475.594C335.321 476.895 335.67 478.452 335.67 480.264C335.67 482.082 335.321 483.645 334.622 484.952C333.929 486.259 332.938 487.261 331.648 487.96C330.358 488.653 328.827 489 327.054 489ZM324.821 485.403H326.892C327.869 485.403 328.696 485.239 329.372 484.909C330.054 484.574 330.568 484.031 330.915 483.281C331.267 482.526 331.443 481.52 331.443 480.264C331.443 479.009 331.267 478.009 330.915 477.264C330.563 476.514 330.043 475.974 329.355 475.645C328.673 475.31 327.832 475.142 326.832 475.142H324.821V485.403ZM340.878 489H336.344L342.233 471.545H347.849L353.739 489H349.205L345.105 475.943H344.969L340.878 489ZM340.273 482.131H349.75V485.335H340.273V482.131Z" fill="white"/>
</g>
<defs>
<filter id="filter0_di_1_298" x="-476" y="-226" width="1338" height="1370" filterUnits="userSpaceOnUse" color-interpolation-filters="sRGB">
<feFlood flood-opacity="0" result="BackgroundImageFix"/>
<feColorMatrix in="SourceAlpha" type="matrix" values="0 0 0 0 0 0 0 0 0 0 0 0 0 0 0 0 0 0 127 0" result="hardAlpha"/>
<feOffset dy="-2"/>
<feGaussianBlur stdDeviation="50"/>
<feComposite in2="hardAlpha" operator="out"/>
<feColorMatrix type="matrix" values="0 0 0 0 0 0 0 0 0 0 0 0 0 0 0 0 0 0 0.75 0"/>
<feBlend mode="normal" in2="BackgroundImageFix" result="effect1_dropShadow_1_298"/>
<feBlend mode="normal" in="SourceGraphic" in2="effect1_dropShadow_1_298" result="shape"/>
<feColorMatrix in="SourceAlpha" type="matrix" values="0 0 0 0 0 0 0 0 0 0 0 0 0 0 0 0 0 0 127 0" result="hardAlpha"/>
<feOffset dy="1"/>
<feGaussianBlur stdDeviation="12.5"/>
<feComposite in2="hardAlpha" operator="arithmetic" k2="-1" k3="1"/>
<feColorMatrix type="matrix" values="0 0 0 0 0 0 0 0 0 0 0 0 0 0 0 0 0 0 1 0"/>
<feBlend mode="normal" in2="shape" result="effect2_innerShadow_1_298"/>
</filter>
<clipPath id="clip0_1_298">
<rect width="430" height="932" fill="white"/>
</clipPath>
</defs>
</svg>
