<svg width="430" height="932" viewBox="0 0 430 932" fill="none" xmlns="http://www.w3.org/2000/svg">
<rect width="430" height="932" fill="white"/>
<mask id="mask0_1_2" style="mask-type:luminance" maskUnits="userSpaceOnUse" x="135" y="431" width="57" height="70">
<path d="M191.588 431H135V500.165H191.588V431Z" fill="white"/>
</mask>
<g mask="url(#mask0_1_2)">
<path d="M189.016 431V450.115H157.036C156.65 450.111 156.267 450.183 155.909 450.327C155.551 450.472 155.225 450.686 154.95 450.957C154.727 451.178 154.544 451.438 154.411 451.723C154.709 446.881 156.543 442.26 159.649 438.533C162.754 434.806 166.967 432.167 171.676 431H189.016Z" fill="black"/>
<path d="M172.26 479.209C171.997 484.075 170.181 488.729 167.079 492.489C163.978 496.248 159.754 498.915 155.026 500.099H138.482V480.988H169.544C169.94 480.993 170.332 480.918 170.697 480.768C171.047 480.625 171.364 480.414 171.63 480.146C171.898 479.876 172.112 479.558 172.26 479.209Z" fill="black"/>
<path d="M191.588 478.06C191.602 481.008 191.013 483.928 189.858 486.64C189.623 487.186 189.365 487.724 189.085 488.248C189.077 488.27 189.069 488.278 189.069 488.293C189.067 488.304 189.061 488.315 189.054 488.324C186.678 492.816 182.83 496.354 178.154 498.344C175.436 499.516 172.504 500.113 169.544 500.096H155.033L155.2 500.051C159.888 498.838 164.069 496.163 167.136 492.416C170.203 488.668 171.998 484.042 172.26 479.206V479.198C172.538 478.476 172.543 477.678 172.275 476.953C172.268 476.938 172.26 476.915 172.252 476.9C172.108 476.551 171.897 476.234 171.63 475.967C171.357 475.694 171.032 475.479 170.673 475.335C170.314 475.192 169.93 475.123 169.544 475.132H157.036C156.414 475.132 155.792 475.11 155.177 475.049C155.155 475.049 155.132 475.041 155.102 475.041C152.805 474.859 150.553 474.296 148.441 473.373C143.186 471.111 139.001 466.915 136.752 461.653C136.456 460.975 136.198 460.281 135.978 459.575C135.322 457.46 134.992 455.257 135 453.043C134.987 450.088 135.583 447.163 136.752 444.449C139.014 439.204 143.196 435.022 148.441 432.76C149.972 432.09 151.58 431.611 153.228 431.334C153.289 431.318 153.334 431.311 153.364 431.303C153.379 431.299 153.395 431.297 153.41 431.296C154.608 431.096 155.821 430.995 157.036 430.996H171.676C166.967 432.163 162.754 434.802 159.649 438.529C156.543 442.256 154.709 446.877 154.411 451.719C154.379 451.775 154.351 451.834 154.328 451.894C154.178 452.257 154.104 452.647 154.108 453.039C154.104 453.45 154.181 453.858 154.335 454.239C154.351 454.281 154.372 454.322 154.396 454.36C154.527 454.664 154.715 454.94 154.95 455.172C155.224 455.445 155.55 455.66 155.908 455.804C156.266 455.949 156.65 456.02 157.036 456.014H169.544C172.498 455.998 175.424 456.584 178.144 457.736C183.433 459.959 187.64 464.166 189.863 469.455C190.157 470.141 190.413 470.842 190.63 471.555C191.273 473.663 191.596 475.856 191.588 478.06Z" fill="black"/>
<g style="mix-blend-mode:multiply" opacity="0.16">
<path d="M172.26 479.209C171.996 484.075 170.18 488.729 167.079 492.489C163.978 496.248 159.754 498.915 155.026 500.099H150.414C154.284 498.278 157.701 495.618 160.416 492.313C163.132 489.009 165.078 485.141 166.114 480.991H169.542C169.937 480.996 170.329 480.921 170.695 480.771C171.045 480.628 171.362 480.417 171.628 480.149C171.897 479.879 172.111 479.56 172.26 479.209Z" fill="black"/>
</g>
<g style="mix-blend-mode:multiply" opacity="0.16">
<path d="M175.833 431C171.562 434.178 162.892 441.513 160.707 450.115H157.036C156.65 450.111 156.267 450.183 155.909 450.327C155.551 450.472 155.225 450.686 154.95 450.957C154.727 451.178 154.544 451.438 154.411 451.723C154.709 446.881 156.543 442.26 159.649 438.533C162.754 434.806 166.967 432.167 171.676 431H175.833Z" fill="black"/>
</g>
<g style="mix-blend-mode:multiply" opacity="0.25">
<path d="M189.017 436.719V450.119H162.309C164.531 449.899 166.761 449.748 168.984 449.641C171.207 449.534 173.437 449.441 175.659 449.406C177.889 449.338 180.112 449.346 182.342 449.323C184.342 449.346 186.324 449.346 188.32 449.391C188.342 448.519 188.358 447.646 188.395 446.767C188.433 445.651 188.471 444.536 188.54 443.421C188.65 441.187 188.797 438.949 189.017 436.719Z" fill="black"/>
</g>
<g style="mix-blend-mode:screen" opacity="0.7">
<path d="M191.588 478.06C191.602 481.008 191.013 483.928 189.858 486.64C189.623 487.186 189.365 487.724 189.085 488.248C189.161 488.043 189.411 487.39 189.785 486.389C190.364 484.687 190.744 482.923 190.915 481.133C191.023 479.948 191.046 478.756 190.984 477.567C190.908 476.253 190.725 474.946 190.438 473.661C190.289 472.997 190.104 472.341 189.884 471.696C189.626 471.029 189.368 470.353 189.11 469.678C188.531 468.351 187.819 467.085 186.986 465.901C186.174 464.701 185.235 463.592 184.186 462.593C183.175 461.624 182.078 460.748 180.909 459.977C179.8 459.257 178.636 458.625 177.427 458.088C176.338 457.62 175.215 457.237 174.067 456.942C172.32 456.509 170.533 456.252 168.734 456.176C167.414 456.076 166.663 456.017 166.663 456.017H169.538C172.492 456.001 175.418 456.587 178.138 457.739C183.427 459.963 187.634 464.17 189.857 469.458C190.151 470.144 190.407 470.845 190.624 471.558C191.268 473.665 191.593 475.857 191.588 478.06Z" fill="black"/>
</g>
<g style="mix-blend-mode:multiply" opacity="0.25">
<path d="M152.636 500.096H138.482V485.646C138.656 486.852 138.762 488.046 138.876 489.257C138.967 490.463 139.051 491.669 139.104 492.867C139.18 494.073 139.195 495.28 139.24 496.486L139.271 499.307C140.188 499.322 141.106 499.322 142.024 499.345C143.2 499.391 144.376 499.406 145.559 499.482C147.918 499.596 150.277 499.77 152.636 500.096Z" fill="black"/>
</g>
<g style="mix-blend-mode:screen" opacity="0.7">
<path d="M155.102 475.041C152.805 474.859 150.553 474.295 148.441 473.373C143.186 471.111 139.001 466.915 136.752 461.653C136.456 460.975 136.198 460.281 135.978 459.575C135.322 457.46 134.992 455.257 135 453.043C134.987 450.088 135.583 447.163 136.752 444.449C139.014 439.203 143.196 435.021 148.441 432.76C149.972 432.09 151.58 431.611 153.228 431.334C152.401 431.533 151.586 431.776 150.785 432.062C145.353 434.002 140.859 437.93 138.209 443.053C136.457 446.417 135.632 450.187 135.819 453.976C135.878 455.88 136.208 457.765 136.798 459.576C136.972 460.038 137.139 460.501 137.306 460.956L137.427 461.297L137.458 461.381C137.465 461.395 137.47 461.41 137.473 461.426L137.549 461.593L137.837 462.238C138.22 463.073 138.659 463.881 139.149 464.658C140.079 466.137 141.177 467.503 142.419 468.731C143.547 469.83 144.782 470.813 146.105 471.667C147.235 472.384 148.42 473.01 149.648 473.54C150.607 473.948 151.596 474.28 152.606 474.534C153.429 474.745 154.262 474.914 155.102 475.041Z" fill="black"/>
</g>
<g style="mix-blend-mode:screen" opacity="0.7">
<path d="M171.676 431C166.967 432.167 162.754 434.806 159.649 438.533C156.543 442.26 154.708 446.881 154.411 451.723C154.379 451.779 154.351 451.838 154.328 451.898L154.389 451.708C154.366 451.108 154.366 450.502 154.366 449.895C154.411 449.289 154.479 448.682 154.54 448.067C154.64 447.467 154.775 446.867 154.889 446.267C155.041 445.667 155.246 445.091 155.42 444.492C155.62 443.908 155.868 443.346 156.11 442.77C156.368 442.209 156.672 441.67 156.945 441.116C157.263 440.578 157.612 440.07 157.945 439.539C158.309 439.039 158.688 438.545 159.068 438.059C159.477 437.589 159.91 437.142 160.327 436.686C160.782 436.262 161.227 435.837 161.7 435.427L163.179 434.297C163.695 433.956 164.218 433.637 164.749 433.311C165.303 433.038 165.842 432.742 166.395 432.476L168.11 431.809C168.71 431.634 169.293 431.46 169.885 431.309C170.477 431.189 171.077 431.091 171.676 431Z" fill="black"/>
</g>
<g style="mix-blend-mode:screen" opacity="0.7">
<path d="M172.397 479.198C172.404 479.82 172.404 480.427 172.389 481.041C172.351 481.656 172.275 482.263 172.207 482.877C172.101 483.484 171.98 484.091 171.843 484.698C171.691 485.298 171.494 485.889 171.319 486.48C171.119 487.072 170.857 487.633 170.619 488.21C170.362 488.779 170.066 489.325 169.777 489.879C169.466 490.417 169.118 490.933 168.784 491.464C168.42 491.972 168.04 492.464 167.661 492.958C167.252 493.429 166.819 493.884 166.402 494.346C165.947 494.779 165.502 495.204 165.029 495.621L163.549 496.759C163.033 497.1 162.51 497.434 161.979 497.759L160.333 498.616L158.611 499.306L156.843 499.822C156.388 499.913 155.943 500.004 155.493 500.08L155.593 500.095L155.069 500.156C155.062 500.164 155.046 500.164 155.039 500.164L155.031 500.095L155.024 500.027L155.198 500.05C159.887 498.837 164.067 496.162 167.134 492.415C170.201 488.667 171.996 484.041 172.258 479.205V479.197C172.406 478.836 172.478 478.449 172.47 478.059C172.525 478.44 172.501 478.828 172.397 479.198Z" fill="black"/>
</g>
</g>
<mask id="mask1_1_2" style="mask-type:luminance" maskUnits="userSpaceOnUse" x="201" y="431" width="56" height="68">
<path d="M256.02 431H201V498.182H256.02V431Z" fill="white"/>
</mask>
<g mask="url(#mask1_1_2)">
<path d="M256.02 458.532C256.022 460.867 255.722 463.192 255.128 465.45C254.548 467.665 253.698 469.8 252.598 471.808C251.983 472.923 251.287 473.993 250.518 475.008C250.488 475.06 250.466 475.089 250.459 475.108L250.452 475.115C249.853 475.905 249.213 476.664 248.534 477.387C247.572 478.41 246.531 479.357 245.422 480.219C245.422 480.219 237.441 485.95 227.868 485.95L226.297 485.957L219.578 486.001V467.479H228.532C229.711 467.489 230.879 467.252 231.962 466.785C233.029 466.332 234.001 465.679 234.823 464.861C235.643 464.036 236.295 463.059 236.741 461.984C237.211 460.895 237.447 459.719 237.434 458.532C237.438 457.931 237.381 457.33 237.264 456.74C237.26 456.733 237.258 456.726 237.257 456.718C237.146 456.15 236.973 455.596 236.741 455.066C235.834 452.903 234.116 451.182 231.954 450.272C230.874 449.804 229.709 449.568 228.532 449.579H219.578C219.577 444.652 217.619 439.927 214.135 436.444C210.651 432.96 205.927 431.002 201 431H228.532C231.002 430.994 233.461 431.326 235.841 431.988C238.135 432.628 240.336 433.563 242.39 434.769C243.128 435.204 243.843 435.676 244.537 436.178L244.595 436.214C247.703 438.47 250.31 441.345 252.251 444.659C253.456 446.716 254.391 448.92 255.032 451.216C255.693 453.598 256.026 456.06 256.02 458.532Z" fill="black"/>
<path d="M253.04 498.182H233.156L230.022 490.932L227.865 485.947C237.438 485.947 245.419 480.216 245.419 480.216L247.705 485.616L248.105 486.553C248.105 486.56 248.113 486.56 248.113 486.567L253.04 498.182Z" fill="black"/>
<path d="M219.578 449.579V498.179H201V431C205.927 431.002 210.651 432.96 214.135 436.443C217.619 439.927 219.577 444.652 219.578 449.579Z" fill="black"/>
<g style="mix-blend-mode:multiply" opacity="0.16">
<path d="M219.578 449.579C219.577 444.652 217.619 439.927 214.135 436.443C210.651 432.96 205.927 431.002 201 431H217.823C221.577 434.511 225.184 440.264 226.076 449.579H219.578Z" fill="black"/>
</g>
<g style="mix-blend-mode:multiply" opacity="0.16">
<path d="M226.297 467.479V485.954L219.578 485.998V467.479H226.297Z" fill="black"/>
</g>
<g style="mix-blend-mode:multiply" opacity="0.16">
<path d="M247.708 485.615C242.206 488.499 236.203 490.303 230.022 490.932L227.865 485.947C237.438 485.947 245.419 480.216 245.419 480.216L247.708 485.615Z" fill="black"/>
</g>
<g style="mix-blend-mode:multiply" opacity="0.25">
<path d="M256.02 458.532C256.022 460.867 255.722 463.192 255.128 465.45C254.548 467.665 253.698 469.8 252.598 471.808C251.983 472.923 251.288 473.993 250.518 475.008C250.651 474.794 250.975 474.278 251.41 473.489C252.205 472.051 252.888 470.554 253.453 469.012C254.243 466.853 254.785 464.611 255.069 462.33C255.217 461.052 255.286 459.766 255.275 458.48C255.262 457.151 255.154 455.825 254.951 454.512C254.759 453.199 254.468 451.902 254.08 450.632C253.706 449.401 253.255 448.194 252.731 447.019C252.231 445.918 251.67 444.847 251.049 443.81C250.449 442.829 249.825 441.922 249.212 441.118C248.215 439.813 247.118 438.587 245.93 437.453C245.068 436.619 244.537 436.177 244.537 436.177L244.595 436.213C247.703 438.469 250.31 441.344 252.251 444.658C253.456 446.715 254.391 448.919 255.032 451.215C255.693 453.598 256.026 456.059 256.02 458.532Z" fill="black"/>
</g>
<g style="mix-blend-mode:multiply" opacity="0.25">
<path d="M253.04 498.182H238.208C239.447 497.998 240.679 497.887 241.918 497.782C243.157 497.677 244.389 497.605 245.618 497.546C246.847 497.487 248.096 497.458 249.328 497.435L251.894 497.413C251.643 496.794 251.394 496.174 251.157 495.547C250.766 494.567 250.397 493.586 250.043 492.59C249.689 491.594 249.343 490.599 249.01 489.59C248.677 488.581 248.376 487.577 248.11 486.559L253.04 498.182Z" fill="black"/>
</g>
<g style="mix-blend-mode:screen" opacity="0.7">
<path d="M201.774 464.595C201.767 466.695 201.759 468.795 201.745 470.857C201.731 472.919 201.7 474.957 201.678 476.927C201.627 480.865 201.545 484.538 201.442 487.687C201.258 493.987 201 498.182 201 498.182V431C201 431 201.258 435.2 201.442 441.495C201.542 444.645 201.627 448.317 201.678 452.256C201.7 454.225 201.745 456.261 201.745 458.326C201.745 460.391 201.765 462.493 201.774 464.595Z" fill="white"/>
</g>
<g style="mix-blend-mode:multiply" opacity="0.25">
<path d="M237.773 459.978C237.745 460.529 237.656 461.076 237.508 461.608C237.427 461.888 237.323 462.198 237.227 462.463C237.116 462.761 236.985 463.052 236.837 463.334C236.531 463.932 236.155 464.492 235.716 465.001C235.262 465.524 234.752 465.996 234.196 466.409C233.628 466.807 233.02 467.146 232.382 467.42C231.765 467.681 231.119 467.867 230.457 467.973C229.843 468.072 229.219 468.1 228.598 468.054C228.038 468.025 227.522 467.973 227.035 467.921C225.11 467.737 223.826 467.479 223.826 467.479H228.532C229.711 467.489 230.88 467.252 231.962 466.785C233.03 466.332 234.001 465.679 234.823 464.861C235.644 464.036 236.295 463.059 236.741 461.984C237.211 460.894 237.447 459.718 237.434 458.532C237.438 457.93 237.381 457.33 237.264 456.74C237.382 457.009 237.476 457.288 237.545 457.574C237.739 458.36 237.816 459.17 237.773 459.978Z" fill="black"/>
</g>
<g style="mix-blend-mode:screen" opacity="0.7">
<path d="M219.578 449.579V498.179C219.578 498.179 219.512 496.963 219.438 494.838C219.364 492.713 219.238 489.668 219.158 486.025C219.058 482.381 218.981 478.125 218.929 473.568C218.907 471.289 218.885 468.936 218.863 466.539C218.841 464.142 218.848 461.716 218.841 459.289C218.834 456.862 218.855 454.421 218.87 452.032C218.863 450.844 218.9 449.632 218.863 448.514C218.811 447.402 218.653 446.296 218.391 445.214C217.895 443.149 217.047 441.185 215.883 439.409C213.921 436.433 211.15 434.079 207.896 432.624C206.741 432.105 205.534 431.71 204.296 431.444C203.495 431.271 202.684 431.143 201.869 431.06C201.301 431.023 200.999 431.001 200.999 431.001C205.926 431.003 210.651 432.961 214.134 436.444C217.618 439.928 219.576 444.653 219.577 449.58L219.578 449.579Z" fill="black"/>
</g>
</g>
</svg>
