<?xml version="1.0" encoding="utf-8"?>
<svg version="1.1" id="Layer_1" xmlns="http://www.w3.org/2000/svg" xmlns:xlink="http://www.w3.org/1999/xlink" x="0px" y="0px"
	 viewBox="0 0 1707.433 1654.416" enable-background="new 0 0 1707.433 1654.416" xml:space="preserve">
<g>
	<path fill="#0E0E0E" stroke="#0E0E0E" stroke-width="0.5" d="M480.362,28.672c5.89-2.346,12.354-1.098,18.519-1.373
		c9.596,0.299,19.28-0.774,28.789,0.836c3.319,0.349,6.938-0.25,9.921,1.61c10.932,5.728,21.851,11.456,32.795,17.146
		c5.391,2.658,8.573,8.049,13.353,11.493c9.534,6.314,19.305,12.292,28.702,18.806c7.001,6.689,12.616,14.738,19.48,21.576
		c5.84,2.671,11.294,6.115,16.71,9.571c1.847,0.898,1.984,3.095,2.558,4.829c1.997,7.987,3.856,15.998,6.027,23.947
		c-7.001,6.264-13.677,12.903-21.015,18.769c0.225-4.592,0.112-9.185-0.112-13.764c0.037-3.694-0.562-7.65-3.494-10.22
		c-5.079-4.455-11.181-7.537-16.635-11.493c-15.225,14.775-30.025,29.987-45.162,44.85c-2.933,2.783-5.516,5.953-7.188,9.659
		c-14.975,30.524-30.312,60.898-45.274,91.434c-1.984,5.378-6.389,9.085-10.869,12.379c-6.352,5.017-12.704,10.046-18.931,15.212
		c-1.56,1.298-3.095,2.608-4.617,3.943c-7.138,4.942-13.265,11.381-21.227,15.075c-10.395,5.091-20.728,10.32-31.11,15.449
		c-0.761,4.892-1.385,9.809-2.022,14.738c-12.691-12.953-25.083-26.181-37.649-39.234c-4.031-4.617-10.57-4.755-16.023-6.514
		c-5.74-1.235-11.481-4.243-17.458-2.745c-6.564,1.46-13.303,0.574-19.942,0.275c-3.881-0.287-7.762-0.674-11.655-0.749
		c0.799-8.66,0.811-17.371,1.335-26.056c3.893-19.967,9.996-39.521,12.679-59.725c0.262-1.535,1.048-2.883,1.797-4.218
		c26.605-44.151,53.099-88.365,79.667-132.541c3.569-5.865,6.664-12.18,11.793-16.897c5.091-4.904,9.434-10.632,14.875-15.137
		C459.285,35.598,469.942,32.466,480.362,28.672 M541.035,46.492c3.157,1.41,6.402,2.633,9.584,4.018
		c-6.09,3.082-12.479,5.578-18.519,8.748c9.484,0.487,18.831,2.296,28.153,4.093c-6.601,6.552-13.939,12.329-20.328,19.081
		c8.124-2.234,15.075-8.561,23.835-8.174c4.817-0.05,9.634,0.025,14.451,0.25c-6.514,6.364-13.964,11.618-20.678,17.745
		c6.502-1.285,12.804-3.369,19.243-4.879c-3.12,4.63-6.764,8.898-9.721,13.64c5.378-2.209,10.058-5.803,15.474-7.874
		c8.835,0.1,17.458,2.621,26.281,3.07c0.237-2.246,2.109-4.904,0.2-6.863c-4.056-5.466-8.561-10.57-12.716-15.961
		c-3.594-4.33-6.651-9.297-11.468-12.417c-7.6-5.216-15.2-10.433-22.749-15.736c-1.46-0.749-2.833-2.259-4.592-1.872
		C551.93,44.021,546.514,45.456,541.035,46.492 M470.953,91.579c-4.23,4.393-5.354,10.582-7.637,16.023
		c-6.364,16.16-12.142,32.546-18.806,48.569c-0.275-2.933-0.412-5.878-0.686-8.798c-2.633,6.938-4.567,14.114-6.227,21.339
		c9.235-9.809,16.759-21.102,25.969-30.948c-1.41,8.311-6.115,15.449-9.484,23.036c-3.681,8.037-8.099,15.749-11.406,23.96
		c5.441-5.94,8.86-13.365,14.089-19.48c-1.51,8.299-3.007,16.722-5.915,24.646c-7.937,15.312-16.522,30.299-24.409,45.636
		c-3.893,11.056-6.377,22.575-9.721,33.806c10.283-10.819,19.617-22.55,30.199-33.095c-3.731,10.869-8.96,21.152-13.066,31.884
		c2.995-1.298,6.14-2.296,9.022-3.844c5.042-4.73,8.66-10.794,13.877-15.374c-2.621,5.715-6.202,10.907-9.309,16.348
		c-2.396,4.28-5.815,8.274-6.152,13.378c8.249-6.938,15.112-15.362,22.575-23.124c10.42-14.301,19.393-29.638,29.887-43.902
		c-3.756,18.881-8.299,37.612-12.167,56.468c8.111-14.613,14.226-30.274,22.25-44.937c-3.993,13.927-9.996,27.229-13.727,41.218
		c2.346-3.619,4.18-7.525,6.127-11.368c12.666-24.384,25.345-48.768,37.999-73.153c1.71-3.207,3.12-6.676,5.678-9.322
		c18.432-17.458,37.225-34.542,55.532-52.125c-1.136-1.772-2.271-3.557-3.382-5.329c-8.748,4.779-17.159,10.158-25.757,15.212
		c-4.093,2.533-8.498,4.642-12.192,7.75c-9.135,8.561-17.408,18.057-26.855,26.269c9.085-15.986,19.717-31.073,29.014-46.946
		c-5.641,2.708-11.131,5.74-16.597,8.773c-4.904,2.533-7.213,7.824-10.482,11.967c-6.439,8.698-12.242,17.87-19.143,26.206
		c3.681-11.256,9.035-21.901,12.729-33.169c-13.952,14.326-25.757,30.561-39.097,45.436c3.145-14.501,8.211-28.502,11.418-42.978
		c-11.456,17.596-21.115,36.314-32.071,54.209c1.485-12.392,2.995-24.833,5.092-37.125c3.731-7.625,9.921-13.802,13.353-21.626
		c6.227-13.54,13.265-26.705,19.068-40.432c-7.75,6.015-14.276,13.428-21.976,19.505c6.801-14.064,15.224-27.279,22.088-41.318
		c-1.086-0.2-3.257-0.599-4.343-0.799C487.974,73.322,479.251,82.257,470.953,91.579 M404.264,164.669
		c-7.175,9.883-14.401,19.729-21.601,29.588c-2.808,3.968-6.452,7.65-7.438,12.591c-3.344,14.201-6.389,28.49-9.958,42.641
		c1.76,1.572,3.494,3.182,5.254,4.767c2.246-6.19,3.332-12.716,5.641-18.881c1.198,7.238-0.711,15.125,2.621,21.913
		c3.082-9.634,4.093-19.754,6.414-29.563c2.396,10.957,3.232,22.2,5.616,33.169c2.77-8.898,2.995-18.469,6.352-27.155
		c9.497-14.289,20.478-27.616,29.7-42.08c-4.717,3.619-8.336,8.436-13.053,12.055c5.653-17.209,13.016-33.831,18.819-51.002
		c-6.19,5.141-11.331,11.393-17.358,16.71c5.503-12.591,12.005-24.734,17.483-37.338
		C422.945,142.669,412.488,152.764,404.264,164.669z"/>
	<path fill="#A1826D" stroke="#A1826D" stroke-width="0.5" d="M541.035,46.492c5.478-1.036,10.894-2.471,16.447-3.132
		c1.76-0.387,3.132,1.123,4.592,1.872c7.55,5.304,15.15,10.52,22.749,15.736c4.817,3.12,7.874,8.086,11.468,12.417
		c4.156,5.391,8.661,10.495,12.716,15.961c1.909,1.959,0.037,4.617-0.2,6.863c-8.823-0.449-17.446-2.97-26.281-3.07
		c-5.416,2.072-10.096,5.666-15.474,7.874c2.958-4.742,6.601-9.01,9.721-13.64c-6.439,1.51-12.741,3.594-19.243,4.879
		c6.714-6.127,14.164-11.381,20.678-17.745c-4.817-0.225-9.634-0.299-14.451-0.25c-8.76-0.387-15.711,5.94-23.835,8.174
		c6.389-6.751,13.727-12.529,20.328-19.081c-9.322-1.797-18.669-3.606-28.153-4.093c6.04-3.17,12.429-5.666,18.519-8.748
		C547.437,49.125,544.192,47.902,541.035,46.492z"/>
	<path fill="#A1826D" stroke="#A1826D" stroke-width="0.5" d="M470.953,91.579c8.299-9.322,17.022-18.257,25.358-27.554
		c1.086,0.2,3.257,0.599,4.343,0.799c-6.864,14.039-15.287,27.254-22.088,41.318c7.7-6.077,14.226-13.49,21.976-19.505
		c-5.803,13.727-12.841,26.892-19.068,40.432c-3.432,7.824-9.621,14.002-13.353,21.626c-2.097,12.292-3.607,24.734-5.092,37.125
		c10.957-17.895,20.616-36.614,32.071-54.209c-3.207,14.476-8.274,28.477-11.418,42.978c13.34-14.875,25.145-31.11,39.097-45.436
		c-3.694,11.269-9.047,21.913-12.729,33.169c6.901-8.336,12.704-17.508,19.143-26.206c3.27-4.143,5.578-9.434,10.482-11.967
		c5.466-3.032,10.957-6.065,16.597-8.773c-9.297,15.873-19.929,30.961-29.014,46.946c9.447-8.211,17.72-17.708,26.855-26.269
		c3.694-3.107,8.099-5.216,12.192-7.75c8.598-5.054,17.009-10.433,25.757-15.212c1.111,1.772,2.246,3.557,3.382,5.329
		c-18.307,17.583-37.1,34.667-55.532,52.125c-2.558,2.646-3.968,6.115-5.678,9.322c-12.654,24.384-25.333,48.768-37.999,73.153
		c-1.947,3.844-3.781,7.75-6.127,11.368c3.731-13.989,9.734-27.292,13.727-41.218c-8.024,14.663-14.139,30.324-22.25,44.937
		c3.868-18.856,8.411-37.587,12.167-56.468c-10.495,14.264-19.467,29.6-29.887,43.902c-7.462,7.762-14.326,16.185-22.575,23.124
		c0.337-5.104,3.756-9.097,6.152-13.378c3.107-5.441,6.689-10.632,9.309-16.348c-5.216,4.58-8.835,10.645-13.877,15.374
		c-2.883,1.547-6.027,2.546-9.022,3.844c4.106-10.732,9.334-21.015,13.066-31.884c-10.582,10.545-19.917,22.275-30.199,33.095
		c3.344-11.231,5.828-22.749,9.721-33.806c7.887-15.337,16.472-30.324,24.409-45.636c2.908-7.924,4.405-16.348,5.915-24.646
		c-5.229,6.115-8.648,13.54-14.089,19.48c3.307-8.211,7.725-15.923,11.406-23.96c3.369-7.587,8.074-14.725,9.484-23.036
		c-9.21,9.846-16.734,21.14-25.969,30.948c1.66-7.225,3.594-14.401,6.227-21.339c0.275,2.92,0.412,5.865,0.686,8.798
		c6.664-16.023,12.442-32.408,18.806-48.569C465.599,102.161,466.722,95.972,470.953,91.579z"/>
	<path fill="#DA8B6C" stroke="#DA8B6C" stroke-width="0.5" d="M570.798,165.256c15.137-14.863,29.937-30.075,45.162-44.85
		c5.453,3.956,11.556,7.038,16.635,11.493c2.933,2.571,3.532,6.527,3.494,10.22c-0.374-1.061-0.749-2.109-1.111-3.145
		c-6.626-0.287-13.165-1.984-19.804-1.697c-3.893,0.861-6.477,4.33-9.297,6.901c-7.35,7.625-15.224,14.738-23.124,21.789
		c-4.58,3.756-9.16,7.762-14.626,10.17c-1.647,0.923-3.095-0.636-4.517-1.223C565.282,171.208,567.865,168.039,570.798,165.256z"/>
	<path fill="#A1826D" stroke="#A1826D" stroke-width="0.5" d="M404.264,164.669c8.224-11.905,18.681-22.001,28.49-32.583
		c-5.478,12.604-11.98,24.746-17.483,37.338c6.027-5.316,11.169-11.568,17.358-16.71c-5.803,17.171-13.166,33.793-18.819,51.002
		c4.717-3.619,8.336-8.436,13.053-12.055c-9.222,14.463-20.204,27.791-29.7,42.08c-3.357,8.685-3.582,18.257-6.352,27.155
		c-2.384-10.969-3.22-22.213-5.616-33.169c-2.321,9.809-3.332,19.929-6.414,29.563c-3.332-6.789-1.423-14.675-2.621-21.913
		c-2.309,6.165-3.394,12.691-5.641,18.881c-1.76-1.585-3.494-3.195-5.254-4.767c3.569-14.151,6.614-28.44,9.958-42.641
		c0.986-4.942,4.63-8.623,7.438-12.591C389.863,184.399,397.089,174.553,404.264,164.669z"/>
	<path fill="#F4A07E" stroke="#F4A07E" stroke-width="0.5" d="M605.877,144.179c2.82-2.571,5.403-6.04,9.297-6.901
		c6.639-0.287,13.178,1.41,19.804,1.697c0.362,1.036,0.736,2.084,1.111,3.145c0.225,4.58,0.337,9.172,0.112,13.764
		c-2.034,9.933-4.318,20.079-9.734,28.814c-5.403,10.944-13.003,21.277-14.625,33.681c-1.186,8.636,0.961,17.596-1.772,26.044
		c-2.334,7.063-3.394,15.474-9.821,20.216c-4.156,2.421-9.247,1.423-13.827,1.31c-2.022,3.956-3.494,8.136-5.129,12.254
		c-4.355,5.067-8.423,10.47-13.727,14.613l-0.998-0.212c-3.17-0.661-6.414-1.859-9.671-1.136c-5.79,1.048-10.819,4.642-16.647,5.416
		c-5.141-0.112-10.133-1.61-15.125-2.658c-8.548-1.235-11.855-10.283-17.658-15.499c4.48-3.294,8.885-7.001,10.869-12.379
		c14.962-30.536,30.299-60.911,45.274-91.434c1.423,0.587,2.87,2.146,4.517,1.223c5.466-2.408,10.046-6.414,14.626-10.17
		C590.652,158.916,598.527,151.803,605.877,144.179z"/>
	<path fill="#F4A07E" stroke="#F4A07E" stroke-width="0.5" d="M603.044,269.506c2.683-4.842,7.063-8.96,12.105-11.231
		c5.229-0.861,8.898,3.257,11.094,7.425c-0.462,1.622-0.861,3.257-1.285,4.879c-7.974,3.856-9.734,13.041-13.515,20.179
		c-2.72,5.828-6.689,10.957-9.309,16.809c-1.834,3.731-0.561,7.887-0.037,11.755c9.022-4.992,20.341-7.5,26.381-16.547
		c1.847-2.646,3.457-5.441,5.104-8.224c-2.159-2.009-4.33-4.018-6.477-6.027c3.107-4.48,9.097-6.751,14.176-4.293
		c4.967,4.043,7.937,9.983,12.741,14.214c-3.544,6.077-7.088,12.167-10.046,18.544c-2.321,4.717-0.836,10.033,0.025,14.913
		c6.289-9.309,11.568-19.792,12.454-31.16c1.71,1.76,3.794,3.606,3.981,6.252c0.786,8.311-0.212,16.672,0.387,24.996
		c-0.537-0.986-1.061-1.947-1.597-2.908c-2.296,8.885-4.255,17.845-7.013,26.605c-7.388,0.587-13.552,4.917-19.729,8.586
		c-3.806,2.284-7.113,5.279-10.183,8.461c-7.188,7.425-14.9,14.376-21.377,22.462c1.622,2.196,3.257,4.393,4.892,6.601
		c3.569-5.753,5.878-12.492,10.894-17.221c5.928-4.405,13.066-6.776,19.505-10.358c7.625-3.532,14.251-9.16,22.487-11.381
		c1.298-7.962,2.196-15.973,3.07-23.985c1.023,5.004,2.808,9.846,3.457,14.938c0.424,5.104-0.948,10.133-2.034,15.075
		c-1.023,3.544-3.806,7.126-7.837,7.013c-2.471,0.312-4.992,0.387-7.338,1.235c-2.895,1.71-4.829,4.567-7.138,6.938
		c-8.299,6.552-18.257,10.682-27.204,16.248c-2.121,1.26-3.781,3.232-4.143,5.715c-3.344,16.56-6.988,33.057-10.133,49.654
		c-1.335,11.032-0.362,22.2-1.56,33.257c0.037,3.819-1.298,8.548,1.822,11.556c3.831,4.081,8.049,7.799,11.581,12.167
		c6.177,7.475,13.852,13.565,19.767,21.277c-4.705-2.421-9.347-4.942-14.002-7.425c1.348,11.331,6.601,21.589,10.57,32.146
		c1.735,3.918,2.895,8.336,5.928,11.506c5.903,2.446,12.467,2.583,18.719,3.619c-1.772-7.725-3.394-15.599-7.088-22.675
		c-3.057-5.753-6.077-11.93-11.581-15.724c3.669,0.225,7.338,0.562,10.969,1.26c51.152,8.71,102.453,16.585,153.668,24.946
		c17.209,2.508,34.605,3.394,51.863,5.491c5.067,0.512,10.595,1.497,15.224-1.273c15.012-8.261,29.987-16.61,45-24.883
		c2.421-1.448,5.316-2.134,8.012-0.898c14.388,5.091,28.128,12.517,43.552,14.064c-1.223,0.524-2.421,1.061-3.606,1.61
		c4.418,1.934,9.147,3.357,13.178,6.102c2.982,2.683,4.305,6.664,6.215,10.108c4.143,7.812,7.799,15.898,12.467,23.436
		c-0.948-8.074-1.111-16.884-6.077-23.735c-2.571-3.631-5.166-7.25-8.086-10.607c-3.145-3.881-8.573-3.918-12.991-5.241
		c0.512-0.275,1.51-0.849,2.022-1.123c4.031,0.674,8.261,0.998,12.005,2.833c2.895,2.646,4.58,6.302,6.689,9.559
		c6.29,10.133,12.454,20.328,19.106,30.224c0.612,1.747,1.111,3.557,1.423,5.403c-4.942-4.804-9.272-10.208-12.579-16.26
		c1.061,6.801,2.458,13.565,4.355,20.204c-2.284,2.146-4.567,4.305-6.614,6.664c-0.262-8.71-7.45-14.625-11.63-21.614
		c-5.666-9.122-14.463-15.487-21.701-23.224c-2.708-2.621-5.229-5.666-8.698-7.275c-4.243-0.973-8.623,0.137-12.878,0.374
		c-7.712,0.911-16.011,0.2-22.962,4.243c-7.774,4.418-15.786,8.398-23.373,13.141c4.63,3.507,9.347,7.325,15.162,8.598
		c8.124,1.797,16.66,1.335,24.609,4.106c5.753,2.072,11.643,3.769,17.72,4.617c0.599,0.137,1.809,0.412,2.408,0.549
		c3.195,2.483,6.215,5.341,8.211,8.91c0.936,1.298-0.025,2.92-0.611,4.143c-7.101,2.533-14.763,2.783-22.088,4.418
		c-13.727-7.887-30.237-10.632-45.848-8.523c-5.304,0.549-10.62,0.961-15.911,1.485c-2.77,0.225-5.528,0.586-8.274,0.836
		c-9.16,1.398-15.337-7.088-23.935-8.037c-11.131-1.435-22.388-0.761-33.556-1.647c-10.819-1.248-21.264-4.567-31.972-6.402
		c-8.423-1.335-16.859,0.499-25.245,1.048c-20.491,1.585-40.969,3.22-61.435,4.942c-13.128,1.547-25.969-2.471-38.91-3.968
		c-8.124-1.547-16.535-1.81-24.447-4.318c-4.118-2.508-6.24-7.2-8.96-11.032c-4.904-7.151-4.992-16.111-6.826-24.284
		c-3.232-15.624-5.004-31.56-9.172-46.971c0.275,14.725,1.647,29.401,2.508,44.089c1.086,14.089-4.992,27.342-6.601,41.131
		c-0.661,4.655,1.023,9.21,3.394,13.141c-3.968,8.373-5.229,17.608-7.35,26.543c-1.273,5.928-2.945,11.755-4.418,17.633
		c-6.152,3.369-11.643,7.774-17.633,11.393c-4.517,2.845-10.046,2.408-15.137,2.408c-5.428-0.15-10.857,0.125-16.285,0
		c-8.361,0.05-15.112-5.503-22.388-8.81c-27.466-14.925-55.607-28.54-83.598-42.441c-3.844-1.934-8.037-3.357-11.356-6.152
		c-2.82-3.494-3.656-8.086-5.304-12.167c-3.057-9.185-8.773-17.783-8.511-27.791c0.287-14.601-1.41-29.176-0.924-43.777
		c-0.112-3.644,3.145-5.828,5.491-8.062c7.6-6.539,14.326-13.989,21.526-20.94c2.396-2.334,5.254-4.243,8.548-5.042
		c13.116-3.22,26.568-5.042,39.559-8.835c3.17,1.186,6.389,2.246,9.571,3.432c5.279,2.833,7.225,8.81,9.272,14.039
		c2.72,7.462,5.753,14.8,9.147,21.988c2.259,6.052,4.53,12.105,6.689,18.195c-0.736,9.497-0.524,19.13,1.56,28.465
		c2.296,10.158,4.854,20.266,6.913,30.474c0.686,2.97,1.21,6.077,2.72,8.785c1.922,2.958,4.854,5.042,7.462,7.375
		c5.378,4.38,9.434,10.532,16.173,13.066c-3.195-10.32-9.809-19.081-14.101-28.914c-2.321-5.191-2.022-11.007-2.109-16.547
		c0.062-8.336-0.087-16.672-0.462-24.996c-0.774-10.395,4.355-19.842,7.013-29.6c3.357-12.08,8.935-23.735,9.459-36.439
		c1.185-19.592,2.596-39.184,3.956-58.764c0.562-5.828-2.658-10.944-6.04-15.349c-0.212-6.489-0.1-13.066,1.772-19.33
		c9.833,0.599,19.38-2.246,29.101-2.982c2.933-0.337,5.516,1.26,8.062,2.433c8.199-8.174,15.112-17.957,25.283-23.873
		c8.923-5.204,17.745-10.607,26.63-15.873c5.965-3.469,5.965-11.181,7.575-17.121c-4.842-0.162-9.684-0.275-14.526-0.374
		c0.262-3.369,0.512-6.739,0.749-10.108c-7.101,1.909-14.388,5.229-21.863,3.444c-5.191-0.911-7.313-6.339-9.958-10.22
		c-9.534,2.121-18.719,5.678-28.44,6.963c0.262-0.412,0.761-1.235,1.011-1.66c6.165-8.935,13.265-17.383,17.596-27.442
		C594.895,289.024,599.063,279.302,603.044,269.506 M577.075,526.102c-1.111,8.136-3.681,15.973-6.015,23.823
		c-3.769,12.517-6.739,25.258-10.957,37.637c-1.136,3.145-0.362,6.489,0.262,9.646c1.622,7.587,2.77,15.287,4.817,22.774
		c4.368-5.428,9.147-11.081,10.383-18.157c1.947-16.398,5.653-32.67,5.653-49.243c-0.25-16.734,0.324-33.481-0.349-50.203
		C578.66,510.116,578.373,518.19,577.075,526.102z"/>
	<path fill="#B5B5B4" stroke="#B5B5B4" stroke-width="0.5" d="M627.203,262.83c5.953-2.995,13.153-4.717,19.742-3.07
		c4.305,3.307,6.552,8.498,9.571,12.878c7.288,10.707,9.983,23.536,14.426,35.503c3.931,10.183,4.592,21.165,6.864,31.747
		c1.597,7.987,2.97,16.734-0.25,24.472c-4.443,2.895-9.621,4.305-14.663,5.753l0.299-1.248c1.086-4.942,2.458-9.971,2.034-15.075
		c-0.649-5.091-2.433-9.933-3.457-14.938c-0.299-2.296-0.624-4.592-0.948-6.863c-0.599-8.324,0.399-16.685-0.387-24.996
		c-0.187-2.646-2.271-4.492-3.981-6.252c-0.611-0.574-1.822-1.722-2.433-2.296c-4.804-4.23-7.774-10.17-12.741-14.214
		c-5.079-2.458-11.069-0.187-14.176,4.293c-0.512,0.549-1.547,1.635-2.059,2.184c-1.323-3.145-2.646-6.289-4.006-9.409
		c1.61-3.457,2.97-7.026,3.918-10.72c0.424-1.622,0.824-3.257,1.285-4.879C626.48,264.976,626.966,263.554,627.203,262.83z"/>
	<path fill="#797979" stroke="#797979" stroke-width="0.5" d="M581.293,278.204c7.113-3.207,13.827-7.762,21.751-8.698
		c-3.981,9.796-8.149,19.517-12.279,29.251c-4.33,10.058-11.431,18.507-17.596,27.442c-2.783-7.899-4.43-16.135-5.915-24.359
		c-0.599-2.995-0.25-6.052,0.312-9.022C572.87,288.674,576.938,283.271,581.293,278.204z"/>
	<path fill="#D98B6C" stroke="#D98B6C" stroke-width="0.5" d="M611.442,290.758c3.781-7.138,5.541-16.323,13.515-20.179
		c-0.948,3.694-2.309,7.263-3.918,10.72c-2.808,5.865-5.591,11.78-7.537,18.007c4.106-2.483,8.199-5.116,11.543-8.598
		c0.512-0.549,1.547-1.635,2.059-2.184c2.146,2.009,4.318,4.018,6.477,6.027c-1.647,2.783-3.257,5.578-5.104,8.224
		c-6.04,9.047-17.358,11.556-26.381,16.547c-0.524-3.868-1.797-8.024,0.037-11.755C604.754,301.715,608.722,296.586,611.442,290.758
		z"/>
	<path fill="#D98B6C" stroke="#D98B6C" stroke-width="0.5" d="M488.536,293.94c6.227-5.166,12.579-10.195,18.931-15.212
		c5.803,5.216,9.11,14.264,17.658,15.499c4.992,1.048,9.983,2.546,15.125,2.658c5.828-0.774,10.857-4.368,16.647-5.416
		c3.257-0.724,6.502,0.474,9.671,1.136c-9.646,1.41-18.294,6.926-24.359,14.438c-8.473-1.635-16.697-4.243-25.12-6.002
		C507.541,298.782,497.658,297.709,488.536,293.94z"/>
	<path fill="#7B7677" stroke="#7B7677" stroke-width="0.5" d="M613.501,299.306c1.947-6.227,4.73-12.142,7.537-18.007
		c1.36,3.12,2.683,6.265,4.006,9.409C621.7,294.19,617.607,296.823,613.501,299.306z"/>
	<path fill="#308977" stroke="#308977" stroke-width="0.5" d="M320.767,298.283c1.934-1.398,3.532-3.968,6.065-4.106
		c3.893,0.075,7.774,0.462,11.655,0.749c-0.661,1.36-1.36,2.72-2.072,4.068c-2.483,3.706-5.229,7.225-7.687,10.957
		c9.709,1.073,19.48,0.986,29.214,1.647c7.176,0.437,13.852,3.282,20.541,5.641c0.499,0.187,1.51,0.549,2.009,0.736
		c2.421,4.542,4.68,9.222,7.762,13.365c2.396,3.157,6.09,4.892,9.497,6.739c11.768,6.102,22.849,13.552,35.141,18.606
		c1.922,1.809,3.869,3.619,5.666,5.566c7.999,9.821,16.235,19.455,24.359,29.176c4.193,4.942,7.962,11.106,14.688,12.816
		c4.455,1.909,9.709,0.786,12.966-2.82c-0.724-5.541-3.794-10.358-6.04-15.374c-3.507-7.712-7.475-15.224-10.595-23.124
		c-2.633-6.439-5.191-12.916-7.487-19.48c8.972,13.041,16.497,27.005,25.62,39.946c8.486,12.741,16.797,25.582,25.507,38.174
		c4.542,6.389,7.413,14.002,13.465,19.255c1.822-3.057,3.644-6.115,5.441-9.185c-9.222-14.151-18.257-28.427-27.516-42.554
		c-4.268-6.489-7.962-13.465-13.552-18.956c-7.55-7.438-15.137-14.85-22.437-22.537c-1.984-2.159-4.48-3.731-7.001-5.179
		c-1.672-3.831-3.819-7.612-4.205-11.83c2.908-6.589,8.124-11.855,12.229-17.72c10.033,7.725,20.678,15.087,28.465,25.233
		c12.242,14.788,24.509,29.551,36.901,44.201c3.644,3.856,3.245,9.472,3.731,14.376c0.537,9.172,1.797,18.294,2.321,27.467
		c0.449,7.999-3.107,15.424-4.468,23.174c-0.961,4.318,1.51,8.311,2.77,12.292c-1.485,13.39-3.294,26.768-5.491,40.07
		c-3.045,11.967-6.626,23.81-10.295,35.615c-1.073-7.126-3.756-13.852-6.027-20.64c-6.127-18.407-12.304-36.801-18.419-55.208
		c-2.221-6.976-4.218-14.201-8.66-20.154c-6.651-9.172-13.378-18.282-19.692-27.691c-2.696-4.106-5.666-8.037-8.96-11.693
		c1.56,5.441,3.794,10.645,6.227,15.749c9.709,21.514,19.068,43.178,28.976,64.604c3.532,7.338,2.346,15.674,3.781,23.473
		c0.948,5.179,2.196,10.295,3.382,15.424c-3.394-7.188-6.427-14.526-9.147-21.988c-2.047-5.229-3.993-11.206-9.272-14.039
		c0.624-0.324,1.872-0.961,2.496-1.285c-10.507-3.332-20.528-8.274-31.422-10.283c-6.489-1.46-13.115-2.134-19.605-3.594
		c-9.397-3.382-19.405-4.093-29.101-6.19c-5.715-2.596-11.344-5.391-17.071-7.962c-2.908-1.285-6.127-2.521-9.322-1.585
		c-6.439,1.585-12.579,4.23-19.018,5.84c-8.336-0.2-16.635,1.909-23.186,7.225c-0.499,0.2-1.485,0.587-1.972,0.786
		c0.175,1.572,0.362,3.145,0.611,4.73c-6.676,2.783-13.814,4.804-19.717,9.16c-15.212,9.384-30.299,18.993-45.199,28.877
		c4.68,6.252,9.846,12.092,14.9,18.032c4.755,5.603,8.923,12.067,15.611,15.599c11.443,6.427,22.949,12.754,34.218,19.492
		c5.815,3.694,12.741,4.642,19.442,5.503c9.721,1.173,19.318,3.332,29.101,4.118c1.909,2.92,4.081,5.653,6.215,8.411
		c-11.418,1.111-22.874-0.25-34.305-0.287c-6.265-0.412-13.24,0.399-18.619-3.494c-20.74-15.062-41.555-30.025-62.458-44.85
		c-3.582-2.633-4.892-7.076-6.539-10.994c-2.458-6.576-6.227-12.941-6.215-20.154c-0.574-10.158,4.979-19.056,8.199-28.315
		c3.956-11.119,9.06-21.813,12.254-33.182c-7.837,13.153-13.727,27.367-20.665,41.006c-4.792,9.771-9.646,19.505-14.376,29.313
		c4.742,5.191,9.883,9.983,14.85,14.962c3.407,3.344,6.277,7.462,10.72,9.547c3.157,1.585,6.477,3.02,8.96,5.628
		c11.007,11.031,22.213,21.876,33.619,32.496c3.532,3.532,9.571,5.491,10.245,11.081c2.458,13.802,4.617,27.666,7.113,41.481
		c1.086,5.553,1.198,11.381,3.294,16.697c1.984,2.995,5.216,4.829,8.024,6.976c12.741,9.222,25.27,18.731,37.862,28.153
		c4.255,3.344,9.933,2.583,14.987,2.646c15.512-0.374,31.036,0.287,46.535-0.374c-8.099-4.33-16.759-7.4-25.133-11.094
		c-13.764-5.828-27.529-11.643-41.368-17.284c-3.968-1.51-7.5-4.131-9.696-7.812c-13.502-21.364-28.003-42.08-41.468-63.456
		c11.119,4.418,21.789,9.896,32.695,14.825c3.544,1.772,7.6,1.672,11.356,0.636c8.685-2.234,17.371-4.48,26.069-6.726
		c12.541,15.711,24.896,31.585,37.25,47.458c2.521,3.257,5.503,6.177,8.985,8.423c24.135,15.424,47.945,31.323,71.979,46.884
		c-3.332,3.27-7.038,6.564-8.286,11.269c-4.081,13.078-8.324,26.106-12.167,39.259c-6.127-1.572-13.203-2.745-18.868,0.824
		c-9.946,7.038-19.467,14.7-29.451,21.701c-2.621,2.458-5.903,0.212-8.548-0.948c-14.413-7.762-29.089-15.037-43.54-22.712
		c-5.304-3.082-11.269-4.717-17.358-5.216c-14.638-1.423-29.114-4.642-43.876-4.655c-10.982-0.05-21.938-1.535-32.92-0.986
		c7.999,4.118,16.597,6.888,24.883,10.395c16.36,6.464,32.62,13.166,49.043,19.467c11.456,4.243,20.166,13.19,30.399,19.542
		c5.566,3.294,12.142,3.956,18.319,5.428c11.793,2.72,23.66,5.154,35.391,8.174c-14.738,0.449-29.825-2.558-44.251,1.497
		c-23.536,6.227-47.271,11.693-70.831,17.845c-11.805,3.22-24.16,2.708-36.264,3.606c-20.378,1.185-40.744,2.408-61.11,3.482
		c-10.108,0.287-18.706,6.09-27.754,9.846l-0.936,0.399c0.225-14.214,2.408-28.315,3.619-42.466
		c0.886-7.887,0.649-16.135,3.856-23.548c20.303-44.688,40.295-89.525,60.561-134.238c5.591-11.793,8.885-24.459,13.178-36.726
		c1.947-5.516,3.769-11.069,4.979-16.784c-3.956,5.116-7.088,10.794-10.308,16.385c-13.228,22.175-26.256,44.451-39.434,66.651
		c-6.077,9.696-10.819,20.304-18.556,28.852c0.15-9.846,1.722-19.592,2.808-29.351c2.047-20.74,4.967-41.393,6.664-62.171
		c-0.237-35.778-1.448-71.568-1.46-107.333c5.441-33.843,11.743-67.562,17.408-101.368c0.724-5.441,3.993-9.971,6.676-14.601
		c11.431-19.754,22.849-39.509,34.143-59.326C310.384,306.494,316.112,302.825,320.767,298.283 M307.688,318.187
		c5.528,4.58,11.631,8.373,17.408,12.616c4.592,4.38,11.081,3.132,16.784,2.671c8.573-0.861,17.259-0.175,25.769-1.722
		c0.05-0.861,0.15-2.596,0.2-3.457c-8.735-0.911-17.458-1.859-26.169-2.92C330.151,323.978,319.169,319.897,307.688,318.187
		 M403.64,369.152c11.98,15.075,25.457,28.914,37.799,43.714c2.508,3.344,7.013,4.642,9.022,8.411
		c4.867,8.473,9.11,17.321,14.501,25.482c-2.184-9.484-5.528-18.631-8.349-27.928c-1.398-5.116-6.152-7.962-9.784-11.368
		c-7.338-6.789-14.788-13.465-22.275-20.104C417.654,381.207,411.103,374.643,403.64,369.152z"/>
	<path fill="#DA8B6C" stroke="#DA8B6C" stroke-width="0.5" d="M358.429,294.652c5.977-1.497,11.718,1.51,17.458,2.745
		c5.453,1.76,11.992,1.897,16.023,6.514c12.566,13.053,24.958,26.281,37.649,39.234c0.636-4.929,1.26-9.846,2.022-14.738
		c10.383-5.129,20.715-10.358,31.11-15.449c7.962-3.694,14.089-10.133,21.227-15.075c-2.483,5.503-6.04,10.383-9.921,14.975
		c-4.106,5.865-9.322,11.131-12.229,17.72c0.387,4.218,2.533,7.999,4.205,11.83l0.474,1.036c2.296,6.564,4.854,13.041,7.487,19.48
		c-10.757,6.564-24.384,4.018-35.378-0.674c-1.797-1.947-3.744-3.756-5.666-5.566c-5.354-6.726-11.206-13.028-17.209-19.168
		c-4.555-4.592-8.448-10.445-14.863-12.604c-6.726-2.458-13.64-4.368-20.328-6.938c-0.499-0.187-1.51-0.549-2.009-0.736
		c-0.611-2.708-1.635-5.441-4.181-6.888c-5.453-3.706-10.919-7.662-17.121-10.008c-6.801-1.56-13.864-0.624-20.765-1.348
		c0.711-1.348,1.41-2.708,2.072-4.068C345.126,295.226,351.865,296.112,358.429,294.652z"/>
	<path fill="#F3A07F" stroke="#F3A07F" stroke-width="0.5" d="M328.728,309.951c2.458-3.731,5.204-7.25,7.687-10.957
		c6.901,0.724,13.964-0.212,20.765,1.348c6.202,2.346,11.668,6.302,17.121,10.008c2.546,1.448,3.569,4.18,4.181,6.888
		c-6.689-2.359-13.365-5.204-20.541-5.641C348.208,310.937,338.437,311.024,328.728,309.951z"/>
	<path fill="#D98B6B" stroke="#D98B6B" stroke-width="0.5" d="M643.975,316.989c2.958-6.377,6.502-12.467,10.046-18.544
		c0.611,0.574,1.822,1.722,2.433,2.296c-0.886,11.368-6.165,21.851-12.454,31.16C643.139,327.022,641.654,321.706,643.975,316.989z"
		/>
	<path fill="#155548" stroke="#155548" stroke-width="0.5" d="M307.688,318.187c11.481,1.71,22.462,5.79,33.993,7.188
		c8.71,1.061,17.433,2.009,26.169,2.92c-0.05,0.861-0.15,2.596-0.2,3.457c-8.511,1.547-17.196,0.861-25.769,1.722
		c-5.703,0.462-12.192,1.71-16.784-2.671C319.319,326.561,313.217,322.767,307.688,318.187z"/>
	<path fill="#7C8069" stroke="#7C8069" stroke-width="0.5" d="M380.492,317.975c6.689,2.571,13.602,4.48,20.328,6.938
		c6.414,2.159,10.308,8.012,14.863,12.604c6.002,6.14,11.855,12.442,17.209,19.168c-12.292-5.054-23.373-12.504-35.141-18.606
		c-3.407-1.847-7.101-3.581-9.497-6.739C385.171,327.197,382.913,322.518,380.492,317.975z"/>
	<path fill="#DA8B6C" stroke="#DA8B6C" stroke-width="0.5" d="M572.158,327.859c9.721-1.285,18.906-4.842,28.44-6.963
		c2.646,3.881,4.767,9.309,9.958,10.22c7.475,1.785,14.763-1.535,21.863-3.444c-0.237,3.369-0.487,6.739-0.749,10.108
		c4.842,0.1,9.684,0.212,14.526,0.374c-1.61,5.94-1.61,13.652-7.575,17.121c-8.885,5.266-17.708,10.67-26.63,15.873
		c-10.17,5.915-17.084,15.699-25.283,23.873c-2.546-1.173-5.129-2.77-8.062-2.433c-9.721,0.736-19.268,3.581-29.101,2.982
		c2.646-9.122,5.653-18.157,8.149-27.329c1.972-7.288,1.248-14.987,3.057-22.288C563.036,339.065,568.739,334.136,572.158,327.859z"
		/>
	<path fill="#DA8B6B" stroke="#DA8B6B" stroke-width="0.5" d="M659.225,329.082c0.537,0.961,1.061,1.922,1.597,2.908
		c0.324,2.271,0.649,4.567,0.948,6.863c-0.874,8.012-1.772,16.023-3.07,23.985c-8.236,2.221-14.863,7.849-22.487,11.381
		c-6.439,3.582-13.577,5.953-19.505,10.358c-5.017,4.73-7.325,11.468-10.894,17.221c-1.635-2.209-3.27-4.405-4.892-6.601
		c6.477-8.086,14.189-15.037,21.377-22.462c3.07-3.182,6.377-6.177,10.183-8.461c6.177-3.669,12.342-7.999,19.729-8.586
		C654.97,346.927,656.929,337.967,659.225,329.082z"/>
	<path fill="#165548" stroke="#165548" stroke-width="0.5" d="M465.973,342.409c2.521,1.448,5.017,3.02,7.001,5.179
		c7.3,7.687,14.888,15.1,22.437,22.537c5.591,5.491,9.284,12.467,13.552,18.956c9.259,14.126,18.294,28.402,27.516,42.554
		c-1.797,3.07-3.619,6.127-5.441,9.185c-6.052-5.254-8.923-12.866-13.465-19.255c-8.71-12.591-17.021-25.432-25.507-38.174
		c-9.122-12.941-16.647-26.905-25.62-39.946L465.973,342.409z"/>
	<path fill="#454545" stroke="#454545" stroke-width="0.5" d="M1193.792,360.117c24.846,2.833,49.704,5.578,74.525,8.71
		c-4.817,22.837-13.19,44.7-20.179,66.913c-21.052,64.654-42.154,129.284-63.207,193.938c-2.084,8.199-5.765,15.911-11.131,22.487
		c-0.237,0.349-0.724,1.073-0.973,1.423c0.874-4.068,1.235-8.236,1.597-12.367c-32.171,0.711-64.33,1.772-96.501,2.496
		c-68.76,0.349-137.532-0.087-206.292,0.25c-6.102-11.219-12.816-22.437-14.626-35.303c2.146-0.212,4.305-0.424,6.477-0.624
		c2.745-0.25,5.503-0.611,8.274-0.836c8.398-0.811,16.535,1.822,24.721,3.307c7.65,1.435,15.25,3.145,22.899,4.605
		c4.705,0.998,9.497,0.037,14.139-0.874c7.325-1.635,14.987-1.884,22.088-4.418c0.587-1.223,1.547-2.845,0.611-4.143
		c-1.997-3.569-5.017-6.427-8.211-8.91c6.077-0.312,12.13-0.861,18.232-1.023c2.458,3.694,4.567,7.725,7.874,10.769
		c4.143,3.332,9.384,4.742,14.014,7.25c6.065,6.751,11.094,14.576,18.182,20.341c5.74,2.383,12.279,1.547,18.282,0.586
		c-5.279-0.761-10.757-0.25-15.898-1.722c-7.525-5.191-12.08-13.69-19.742-18.756l0.399-0.961c2.047-2.359,4.33-4.517,6.614-6.664
		c1.872,0.012,3.769,0.025,5.678,0.05c0.849-1.335,1.697-2.658,2.546-3.993c-0.312-1.847-0.811-3.656-1.423-5.403
		c12.13-1.273,24.309,0.287,36.476-0.025c25.719-0.062,51.451,0.761,77.171,0.212c7.25-18.269,12.629-37.213,18.706-55.894
		C1154.72,481.077,1174.075,420.541,1193.792,360.117 M1191.683,378.723c-21.888,68.897-44.488,137.595-66.576,206.442
		c-1.061,1.884,1.597,2.77,2.683,3.756c18.319,11.743,36.551,23.635,54.896,35.353c9.646-28.552,18.893-57.242,28.402-85.831
		c16.547-50.59,33.581-101.018,49.804-151.696C1237.806,384.214,1214.807,380.882,1191.683,378.723 M1026.785,601.326
		c-7.051,0.911-14.151-0.399-21.19,0.237c-2.159,1.685,1.685,1.56,2.683,1.385c5.029-0.661,10.395,0.225,14.114,3.931
		c9.584,8.735,19.53,17.071,28.989,25.944c1.535,1.335,3.157,2.933,5.354,3.02c5.241,0.512,10.632,0.973,15.774-0.499
		c-6.951-2.022-15.923,1.198-21.152-5.029c-8.598-8.735-18.219-16.435-26.393-25.582c10.258-1.385,20.578,3.332,27.342,10.944
		c7.637,6.826,14.651,14.426,22.587,20.915c6.302,2.121,13.353,0.936,19.929,0.537c-4.205-1.61-8.71-1.46-13.09-1.909
		c-4.305-0.162-7.263-3.644-10.308-6.215c-9.372-8.648-19.567-16.373-28.689-25.295c4.318,0.549,8.685,0.874,13.041,0.499
		c1.547,0.037,3.457-0.487,4.692,0.824c7.6,6.988,15.736,13.353,23.623,20.016c5.154,3.956,9.534,9.047,15.312,12.142
		c5.753,0.649,11.581-0.062,17.358-0.437c-5.566-2.371-11.643-1.285-17.471-1.809c-3.956-1.597-6.776-5.042-10.021-7.675
		c-8.336-7.088-16.51-14.376-24.996-21.277c-0.849-0.799-2.022-1.473-1.922-2.77c8.523,0.037,17.047,0.424,25.582,0.349
		c5.815-0.15,11.344,1.735,16.66,3.893c-5.915-7.038-15.986-5.603-24.172-5.89C1062.525,601.925,1044.58,598.368,1026.785,601.326
		 M1110.095,603.272c10.046,7.175,19.642,15.162,30.649,20.828c-6.889-7.3-16.036-11.98-22.949-19.268
		c7.225,1.198,12.08,7.263,18.232,10.72c10.345,6.277,19.917,13.852,30.711,19.355c-2.508-4.63-7.3-7.063-11.393-10.033
		c-9.908-7.126-19.917-14.114-29.75-21.327C1121.126,599.741,1115.149,602.823,1110.095,603.272 M1003.661,604.895
		c3.12,5.279,7.999,9.11,12.23,13.465c6.027,5.591,11.194,12.155,17.608,17.308c4.817,1.011,9.796,0.349,14.663,0.025
		c-6.04-1.497-13.552-0.15-18.007-5.391C1021.206,621.966,1013.507,612.183,1003.661,604.895 M1082.554,605.806
		c4.405,5.091,9.983,8.91,15.112,13.203c6.664,5.341,13.203,10.844,19.767,16.31c3.968,3.731,9.809,1.81,14.6,1.31
		c-4.567-1.784-10.108-0.936-13.877-4.443c-6.439-5.266-13.128-10.195-19.667-15.337
		C1093.348,612.931,1088.731,608.114,1082.554,605.806z"/>
	<path fill="#F4A07E" stroke="#F4A07E" stroke-width="0.5" d="M438.557,362.251c10.994,4.692,24.621,7.238,35.378,0.674
		c3.12,7.899,7.088,15.412,10.595,23.124c2.246,5.017,5.316,9.834,6.04,15.374c-3.257,3.606-8.511,4.73-12.966,2.82
		c-6.726-1.71-10.495-7.874-14.688-12.816C454.792,381.706,446.556,372.072,438.557,362.251z"/>
	<path fill="#155548" stroke="#155548" stroke-width="0.5" d="M403.64,369.152c7.463,5.491,14.014,12.055,20.915,18.207
		c7.487,6.639,14.938,13.315,22.275,20.104c3.631,3.407,8.386,6.252,9.784,11.368c2.82,9.297,6.165,18.444,8.349,27.928
		c-5.391-8.161-9.634-17.009-14.501-25.482c-2.009-3.769-6.514-5.067-9.022-8.411C429.098,398.066,415.62,384.227,403.64,369.152z"
		/>
	<path fill="#121111" stroke="#121111" stroke-width="0.5" d="M1268.318,368.827c1.548,0.112,3.132,0.212,4.717,0.324
		c-0.674,7.313,0.424,14.925-2.171,21.938c-16.709,50.091-32.92,100.345-49.817,150.373c-8.411,26.269-17.308,52.387-25.807,78.618
		c-4.056,11.718-6.439,24.484-15.037,33.968c-2.146-0.636-4.28-1.273-6.402-1.884c5.366-6.576,9.047-14.289,11.131-22.487
		c21.052-64.654,42.154-129.284,63.207-193.938C1255.127,413.528,1263.501,391.664,1268.318,368.827z"/>
	<path fill="#D29074" stroke="#D29074" stroke-width="0.5" d="M648.019,377.114c2.346-0.849,4.867-0.923,7.338-1.235
		c-4.23,3.656-9.122,6.527-14.476,8.174C643.189,381.681,645.123,378.823,648.019,377.114z"/>
	<path fill="#DFDFDF" stroke="#DFDFDF" stroke-width="0.5" d="M1191.683,378.723c23.124,2.159,46.123,5.491,69.209,8.024
		c-16.223,50.678-33.257,101.106-49.804,151.696c-9.509,28.59-18.756,57.279-28.402,85.831
		c-18.344-11.718-36.576-23.61-54.896-35.353c-1.086-0.986-3.744-1.872-2.683-3.756
		C1147.195,516.318,1169.795,447.621,1191.683,378.723z"/>
	<path fill="#165548" stroke="#165548" stroke-width="0.5" d="M466.173,399.9c3.294,3.656,6.264,7.587,8.96,11.693
		c6.314,9.409,13.041,18.519,19.692,27.691c4.443,5.953,6.439,13.178,8.66,20.154c6.115,18.407,12.292,36.801,18.419,55.208
		c2.271,6.789,4.954,13.515,6.027,20.64c-1.497,12.467-0.312,25.058-0.874,37.587c-4.655-11.618-6.539-24.16-11.83-35.528
		c-2.159-6.09-4.43-12.142-6.689-18.195c-1.185-5.129-2.433-10.245-3.382-15.424c-1.435-7.799-0.25-16.135-3.781-23.473
		c-9.908-21.427-19.268-43.09-28.976-64.604C469.967,410.545,467.733,405.341,466.173,399.9z"/>
	<path fill="#DA8B6C" stroke="#DA8B6C" stroke-width="0.5" d="M547.774,414.9c3.382,4.405,6.602,9.522,6.04,15.349
		c-1.36,19.58-2.77,39.172-3.956,58.764c-0.524,12.704-6.102,24.359-9.459,36.439c-2.658,9.759-7.787,19.205-7.013,29.6
		c0.374,8.324,0.524,16.66,0.462,24.996c0.087,5.541-0.212,11.356,2.109,16.547c4.293,9.833,10.907,18.594,14.101,28.914
		c-6.739-2.533-10.794-8.685-16.173-13.066c-2.608-2.334-5.541-4.418-7.462-7.375c-1.51-2.708-2.034-5.815-2.72-8.785
		c-2.059-10.208-4.617-20.316-6.913-30.474c-2.084-9.334-2.296-18.968-1.56-28.465c5.291,11.368,7.175,23.91,11.83,35.528
		c0.562-12.529-0.624-25.12,0.874-37.587c3.669-11.805,7.25-23.648,10.295-35.615c2.196-13.303,4.006-26.68,5.491-40.07
		C546.139,444.813,548.51,429.938,547.774,414.9z"/>
	<path fill="#165548" stroke="#165548" stroke-width="0.5" d="M268.754,479.729c6.938-13.64,12.829-27.853,20.665-41.006
		c-3.195,11.368-8.299,22.063-12.254,33.182c-3.22,9.259-8.773,18.157-8.199,28.315c-0.012,7.213,3.756,13.577,6.215,20.154
		c1.647,3.918,2.958,8.361,6.539,10.994c20.902,14.825,41.718,29.788,62.458,44.85c5.378,3.893,12.354,3.082,18.619,3.494
		c11.431,0.037,22.887,1.398,34.305,0.287c1.972,2.471,3.968,4.929,5.94,7.425c-8.698,2.246-17.383,4.493-26.069,6.726
		c-3.756,1.036-7.812,1.136-11.356-0.636c-10.907-4.929-21.576-10.408-32.695-14.825c13.465,21.377,27.966,42.092,41.468,63.456
		c2.196,3.681,5.728,6.302,9.696,7.812c13.839,5.641,27.604,11.456,41.368,17.284c8.373,3.694,17.034,6.764,25.133,11.094
		c-15.499,0.661-31.023,0-46.535,0.374c-5.054-0.062-10.732,0.699-14.987-2.646c-12.591-9.422-25.12-18.931-37.862-28.153
		c-2.808-2.146-6.04-3.981-8.024-6.976c-2.096-5.316-2.209-11.144-3.294-16.697c-2.496-13.814-4.655-27.679-7.113-41.481
		c-0.674-5.591-6.714-7.55-10.245-11.081c-11.406-10.62-22.612-21.464-33.619-32.496c-2.483-2.608-5.803-4.043-8.96-5.628
		c-4.443-2.084-7.313-6.202-10.72-9.547c-4.967-4.979-10.108-9.771-14.85-14.962C259.107,499.234,263.962,489.5,268.754,479.729z"/>
	<path fill="#DA8B6C" stroke="#DA8B6C" stroke-width="0.5" d="M386.095,452.225c3.195-0.936,6.414,0.3,9.322,1.585
		c5.728,2.571,11.356,5.366,17.071,7.962c8.848,5.017,19.268,5.067,29.101,6.19c6.489,1.46,13.116,2.134,19.605,3.594
		c6.289,3.07,12.816,5.641,19.355,8.136c-12.991,3.794-26.443,5.616-39.559,8.835c-3.294,0.799-6.152,2.708-8.548,5.042
		c-7.2,6.951-13.927,14.401-21.526,20.94c-2.346,2.234-5.603,4.418-5.491,8.062c-0.487,14.601,1.211,29.176,0.924,43.777
		c-0.262,10.008,5.453,18.606,8.511,27.791c1.647,4.081,2.483,8.673,5.304,12.167c3.319,2.795,7.512,4.218,11.356,6.152
		c27.991,13.902,56.131,27.517,83.598,42.441c7.275,3.307,14.027,8.86,22.388,8.81c5.428,0.125,10.857-0.15,16.285,0
		c5.092,0,10.62,0.437,15.137-2.408c5.99-3.619,11.481-8.024,17.633-11.393c-3.494,15.661-7.225,31.26-11.069,46.822
		c-7.912,2.321-16.023,3.893-24.022,5.84c-3.719,0.749-7.949,2.109-11.393-0.212c-6.452-3.769-12.479-8.224-18.819-12.167
		c-24.035-15.561-47.845-31.46-71.979-46.884c-3.482-2.246-6.464-5.166-8.985-8.423c-12.354-15.873-24.709-31.747-37.25-47.458
		c-1.972-2.496-3.968-4.954-5.94-7.425c-2.134-2.758-4.305-5.491-6.215-8.411c-3.582-6.002-6.676-12.279-10.183-18.307
		c-10.632-20.428-21.639-40.657-32.458-60.985c-3.245-6.726-4.068-14.276-5.715-21.489c-0.25-1.585-0.437-3.157-0.611-4.73
		c0.487-0.2,1.473-0.587,1.972-0.786c7.912-1.772,15.599-4.405,23.186-7.225C373.516,456.456,379.655,453.81,386.095,452.225z"/>
	<path fill="#2E4F3D" stroke="#2E4F3D" stroke-width="0.5" d="M343.89,465.291c6.552-5.316,14.85-7.425,23.186-7.225
		C359.489,460.886,351.802,463.519,343.89,465.291z"/>
	<path fill="#4F6D57" stroke="#4F6D57" stroke-width="0.5" d="M412.488,461.772c9.696,2.096,19.704,2.808,29.101,6.19
		C431.756,466.838,421.336,466.788,412.488,461.772z"/>
	<path fill="#010101" stroke="#010101" stroke-width="0.5" d="M322.813,479.966c5.903-4.355,13.041-6.377,19.717-9.16
		c1.647,7.213,2.471,14.763,5.715,21.489c10.819,20.328,21.826,40.557,32.458,60.985c-10.77-6.801-19.18-16.597-29.551-23.922
		c-7.937-5.803-16.947-10.195-23.96-17.196c-5.566-5.603-11.194-11.131-16.622-16.872
		C315.126,490.574,319.157,485.395,322.813,479.966z"/>
	<path fill="#32543F" stroke="#32543F" stroke-width="0.5" d="M461.194,471.556c10.894,2.009,20.915,6.951,31.422,10.283
		c-0.624,0.324-1.872,0.961-2.496,1.285c-3.182-1.185-6.402-2.246-9.571-3.432C474.01,477.196,467.483,474.625,461.194,471.556z"/>
	<path fill="#175548" stroke="#175548" stroke-width="0.5" d="M277.614,508.843c14.9-9.883,29.987-19.492,45.199-28.877
		c-3.656,5.428-7.687,10.607-12.242,15.324c5.428,5.74,11.057,11.269,16.622,16.872c7.013,7.001,16.023,11.393,23.96,17.196
		c10.37,7.325,18.781,17.121,29.551,23.922c3.507,6.027,6.601,12.304,10.183,18.307c-9.784-0.786-19.38-2.945-29.101-4.118
		c-6.701-0.861-13.627-1.809-19.442-5.503c-11.269-6.739-22.774-13.066-34.218-19.492c-6.689-3.532-10.857-9.996-15.611-15.599
		C287.46,520.935,282.293,515.095,277.614,508.843z"/>
	<path fill="#FCF7E7" stroke="#FCF7E7" stroke-width="0.5" d="M148.517,500.282C152.186,498.273,148.767,504.438,148.517,500.282z"
		/>
	<path fill="#B5B5B5" stroke="#B5B5B5" stroke-width="0.5" d="M150.339,504.837c3.107-1.647,6.477-3.02,10.033-3.082
		c6.913,13.49,11.967,27.878,18.332,41.643c5.354,10.507,6.339,22.462,8.685,33.843c5.99,29.076,11.368,58.265,17.284,87.341
		c1.909,10.17,4.393,20.241,5.528,30.536c1.235,10.283,1.872,20.615,3.12,30.898c0.886,7.213,1.036,14.576,3.282,21.564
		c-4.093,8.012-10.944,15.175-11.131,24.646c-2.034,21.751-5.354,43.39-6.714,65.216c0.649,0.324,1.934,0.961,2.583,1.285
		c0.424,13.215,0.324,26.581,3.157,39.559c1.797,8.423,2.546,17.146,5.828,25.195c6.976,18.032,13.827,36.127,20.753,54.184
		c0.749,2.783,3.407,4.143,5.728,5.466c13.69,7.5,27.354,15.025,40.919,22.724c2.321,1.323,4.867,2.458,7.612,2.146
		c17.071-1.136,34.155-2.059,51.239-3.07c11.855-0.474,23.373-3.494,35.041-5.416c26.069-4.817,52.163-9.484,78.219-14.351
		c5.878-1.185,11.893-0.936,17.858-0.911c36.913,0.137,73.839-0.2,110.752,0.175c11.256,0.998,22.7,0.986,33.669,4.018
		c10.607,2.77,21.576,4.255,31.922,7.962c3.494,5.965,0.112,12.442-1.198,18.507c-0.187-0.449-0.549-1.373-0.736-1.822
		c-5.216,11.331-12.853,21.264-19.268,31.922c-5.815-6.726-10.932-13.989-16.298-21.065c-2.695-3.694-6.601-6.19-10.645-8.161
		c-9.596-4.779-19.018-9.908-28.427-15.025c-3.382-1.909-7.188-3.157-11.106-2.783c-33.694,2.396-67.362,5.191-101.081,7.225
		c-52.038,1.348-104.063,3.12-156.101,4.555c-15.786-0.262-31.572,0.162-47.358,0.087c-8.286,0.05-16.36-2.009-24.447-3.544
		c-10.782-2.121-21.601-4.068-32.396-6.152c-5.853-10.545-11.169-21.377-17.071-31.884c-2.321-4.23-4.755-8.573-5.316-13.44
		c-0.973-7.625,0.3-15.262,0.661-22.874c0.649-9.559,1.048-19.118,1.535-28.677c0.649-13.091,5.528-25.57,5.815-38.71
		c0.287-8.898,4.655-17.159,4.205-26.119c-0.462-14.625-1.273-29.239-1.834-43.852c-0.212-7.2-2.958-13.914-5.154-20.665
		c-9.896-30.948-19.642-61.959-29.638-92.87c-8.81-23.486-17.97-46.822-26.98-70.232c-5.953-14.626-9.022-30.174-13.403-45.299
		c-0.749-3.07-3.432-4.967-5.204-7.4c1.685-9.247,9.746-15.387,17.808-19.168c2.246,0.062,4.58-0.037,6.601-1.186
		C134.89,513.66,142.527,509.08,150.339,504.837z"/>
	<path fill="#DA8B6C" stroke="#DA8B6C" stroke-width="0.5" d="M577.075,526.102c1.298-7.912,1.585-15.986,3.794-23.723
		c0.674,16.722,0.1,33.469,0.349,50.203c0,16.572-3.706,32.845-5.653,49.243c-1.235,7.076-6.015,12.729-10.383,18.157
		c-2.047-7.487-3.195-15.187-4.817-22.774c-0.624-3.157-1.398-6.502-0.262-9.646c4.218-12.379,7.188-25.12,10.957-37.637
		C573.394,542.075,575.964,534.238,577.075,526.102z"/>
	<path fill="#FFFFFE" stroke="#FFFFFE" stroke-width="0.5" d="M129.886,509.217c4.468-2.184,8.997-4.293,13.827-5.578
		c-6.913,6.327-15.761,9.871-23.311,15.324c-8.062,3.781-16.123,9.921-17.808,19.168c1.772,2.433,4.455,4.33,5.204,7.4
		c4.38,15.125,7.45,30.674,13.403,45.299c9.01,23.411,18.17,46.747,26.98,70.232c9.996,30.911,19.742,61.921,29.638,92.87
		c2.196,6.751,4.942,13.465,5.154,20.665c0.562,14.613,1.373,29.226,1.834,43.852c0.449,8.96-3.918,17.221-4.205,26.119
		c-0.287,13.141-5.166,25.62-5.815,38.71c-0.487,9.559-0.886,19.118-1.535,28.677c-0.362,7.612-1.635,15.25-0.661,22.874
		c0.562,4.867,2.995,9.21,5.316,13.44c5.903,10.507,11.219,21.339,17.071,31.884c10.794,2.084,21.614,4.031,32.396,6.152
		c8.086,1.535,16.16,3.594,24.447,3.544c15.786,0.075,31.572-0.349,47.358-0.087c52.038-1.435,104.063-3.207,156.101-4.555
		c33.719-2.034,67.387-4.829,101.081-7.225c3.918-0.374,7.725,0.874,11.106,2.783c9.409,5.116,18.831,10.245,28.427,15.025
		c4.043,1.972,7.949,4.468,10.645,8.161c5.366,7.076,10.482,14.339,16.298,21.065c-3.943,5.728-7.675,11.83-8.286,18.943
		c-1.098,0.487-2.184,0.973-3.27,1.473c-2.945,1.21-5.84,2.521-8.723,3.831c1.373,4.205,2.77,8.423,3.569,12.791
		c1.098,7.612,1.884,15.249,3.095,22.849c1.36,8.411,1.198,17.259,4.904,25.133c-2.271,9.933-4.892,19.779-7.051,29.725
		c-2.047-5.678-3.082-11.63-3.918-17.583c-5.391-31.647-10.732-63.307-16.086-94.954c-0.649-5.403-5.166-8.885-8.573-12.641
		c-5.728-6.252-12.155-12.005-16.447-19.405c-13.74,0.162-27.442,1.385-41.144,2.184c11.443,2.92,23.336,3.132,34.879,5.516
		c-2.234,0.711-4.443,1.76-6.839,1.697c-33.02-0.462-66.064-0.836-99.072-1.884c15.499-3.107,31.323-4.056,46.921-6.527
		c-8.336-1.859-16.872-2.146-25.32-3.095c-11.593-1.597-22.999,1.809-34.455,3.032c-20.241,3.157-40.669,5.179-60.736,9.347
		c-31.697,3.494-63.606,4.206-95.378,6.701c-1.635,2.546-3.257,5.091-4.829,7.687c-7.313-4.492-15.961-4.967-24.284-5.516
		c-9.671-0.462-17.071-7.887-26.443-9.472c-4.455-0.749-8.86-1.735-13.178-3.032c-5.616-1.735-11.743-0.849-17.184-3.17
		c-7.912-3.394-14.725-8.76-22.038-13.203c-4.068-2.633-5.965-7.275-8.373-11.256c-6.626-11.206-13.54-22.25-19.942-33.581
		c-1.385-1.922-0.923-4.205-0.212-6.265c8.086-25.245,16.135-50.503,24.047-75.798c1.797-6.065,4.917-12.229,3.307-18.706
		c-9.958-54.01-20.216-107.957-30.199-161.966c-1.46-7.213-2.246-14.601-4.78-21.539c-6.601-18.357-13.153-36.738-19.705-55.108
		c-1.697-4.779-3.195-9.696-5.99-13.964c-7.812-11.73-16.635-22.774-24.209-34.667c1.597-2.795,3.207-5.578,4.755-8.398
		c-0.724-1.522-1.922-3.045-1.398-4.817c0.898-4.617,2.558-9.035,3.844-13.54C105.914,520.062,117.969,514.771,129.886,509.217z"/>
	<path fill="#DA8B6C" stroke="#DA8B6C" stroke-width="0.5" d="M599.026,507.371c4.168,15.412,5.94,31.348,9.172,46.971
		c1.834,8.174,1.922,17.134,6.826,24.284c2.72,3.831,4.842,8.523,8.96,11.032c7.912,2.508,16.323,2.77,24.447,4.318
		c12.941,1.497,25.782,5.516,38.91,3.968c20.466-1.722,40.944-3.357,61.435-4.942c8.386-0.549,16.822-2.384,25.245-1.048
		c10.707,1.834,21.152,5.154,31.972,6.402c11.169,0.886,22.425,0.212,33.556,1.647c8.598,0.948,14.775,9.434,23.935,8.037
		c-2.171,0.2-4.33,0.412-6.477,0.624c-21.626,2.009-43.24,4.006-64.866,6.04c-19.892,2.433-39.933,0.012-59.9,0.162
		c-38.186-1.385-76.422-1.123-114.571-3.357c-6.863-0.112-13.802-1.535-19.343-5.778c-2.371-3.931-4.056-8.486-3.394-13.141
		c1.61-13.789,7.687-27.042,6.601-41.131C600.673,536.771,599.3,522.096,599.026,507.371z"/>
	<path fill="#DA8B6C" stroke="#DA8B6C" stroke-width="0.5" d="M617.008,526.501c4.655,2.483,9.297,5.004,14.002,7.425
		c0.636,0.362,1.909,1.086,2.546,1.448c5.503,3.794,8.523,9.971,11.581,15.724c3.694,7.076,5.316,14.95,7.088,22.675
		c-6.252-1.036-12.816-1.173-18.719-3.619c-3.032-3.17-4.193-7.587-5.928-11.506C623.609,548.09,618.356,537.832,617.008,526.501z"
		/>
	<path fill="#905847" stroke="#905847" stroke-width="0.5" d="M646.559,532.978c151.272,2.733,302.556,5.428,453.828,8.324
		c11.568-0.1,23.149,0.761,34.729,0.237c-6.077,18.681-11.456,37.625-18.706,55.894c-25.719,0.549-51.451-0.275-77.171-0.212
		c-12.167,0.312-24.347-1.248-36.476,0.025c-6.651-9.896-12.816-20.091-19.106-30.224c-2.109-3.257-3.794-6.913-6.689-9.559
		c-3.744-1.834-7.974-2.159-12.005-2.833c-0.786-0.137-2.346-0.412-3.12-0.549c-15.424-1.547-29.164-8.972-43.552-14.064
		c-2.695-1.235-5.591-0.549-8.012,0.898c-15.012,8.274-29.987,16.622-45,24.883c-4.63,2.77-10.158,1.784-15.224,1.273
		c-17.259-2.096-34.655-2.982-51.863-5.491c-51.214-8.361-102.516-16.235-153.668-24.946
		C645.186,535.411,645.872,534.188,646.559,532.978z"/>
	<path fill="#905847" stroke="#905847" stroke-width="0.5" d="M1195.24,620.082c8.498-26.231,17.396-52.35,25.807-78.618
		c0.337,2.109,2.321,2.146,4.081,2.171c67.487,0.749,134.962,2.795,202.448,3.294c-0.549-1.635-1.073-3.27-1.56-4.892
		c3.719,2.072,4.393,6.19,5.903,9.721c68.398,101.767,136.609,203.671,204.969,305.464c5.865,8.86,12.092,17.496,17.583,26.605
		c-12.467,0.874-24.971,0.437-37.45,0.537c-336.1-0.013-672.2,0-1008.312-0.013c-30.087,0.212-60.174-0.412-90.261,0.299
		c9.696-25.208,18.556-50.728,27.828-76.085c1.111-3.02,2.184-6.052,3.27-9.072c0.811-2.321,1.635-4.63,2.471-6.926
		c21.976-60.312,43.976-120.623,65.653-181.059c38.149,2.234,76.385,1.972,114.571,3.357c19.967-0.15,40.008,2.271,59.9-0.162
		c21.626-2.034,43.24-4.031,64.866-6.04c1.809,12.866,8.523,24.085,14.626,35.303c1.76,3.482,3.182,7.138,4.542,10.807
		c36.863,0.961,73.764,0.462,110.64,1.161c61.497,0.1,123.007,0.212,184.504-0.013c0.387-0.586,1.136-1.747,1.51-2.334
		c0.25-0.349,0.736-1.073,0.973-1.423c2.122,0.611,4.255,1.248,6.402,1.884C1188.801,644.566,1191.184,631.8,1195.24,620.082
		 M725.027,660.202c-6.477,2.234-13.29,3.557-19.517,6.502c-0.374,0.037-1.111,0.112-1.485,0.15
		c-2.309,3.906-1.485,8.411-0.187,12.479c-4.555-1.173-2.808,6.052,1.061,5.329c52.075,3.282,104.151,6.714,156.251,9.634
		c11.344-1.747,22.325-5.516,33.432-8.386c-1.622-2.483-3.294-4.954-4.755-7.525c2.982-2.87,1.859-7.288,2.096-10.957
		c-0.549,0.337-1.622,1.011-2.171,1.348c-0.162-0.849-0.499-2.521-0.661-3.357c-49.617-2.745-99.209-6.04-148.826-8.873
		C734.961,656.433,730.056,658.842,725.027,660.202 M1075.391,660.027c-8.336,0.399-16.759,0.05-24.971,1.772
		c-1.547,0.025-3.082,0.075-4.592,0.25c-6.764-2.296-14.75-1.323-20.491,3.045c-4.73,1.186-8.935,3.744-13.403,5.591
		c-0.699,0.449-2.109,1.348-2.808,1.797c0.374,4.48,0.462,9.022,1.373,13.452c1.086,3.669,3.382,6.839,5.541,9.958
		c-1.061,1.048-2.097,2.096-3.132,3.157c0.636,3.257,0.961,6.676,2.471,9.696c2.982,2.97,6.764,4.967,10.32,7.175
		c4.355,2.895,9.796,2.134,14.763,2.546c37.437,1.972,74.862,4.181,112.337,5.291c12.529-0.736,24.946-2.97,37.475-4.081
		c5.628,0.012,8.748-5.404,11.843-9.297c1.547-1.735-0.349-3.557-1.036-5.179c-2.184-3.656-4.156-7.924-8.373-9.596
		c1.585-1.61,3.17-3.207,4.667-4.892c3.37-2.958,1.747-7.899,1.061-11.668c-3.444-3.332-7.899-5.366-11.868-7.962
		c-4.792-3.157-10.57-3.943-16.023-5.279c-5.129-1.26-10.295-2.396-15.574-2.745c-16.934-1.211-33.843-2.945-50.79-3.993
		C1094.571,658.705,1084.987,659.728,1075.391,660.027z"/>
	<path fill="#DB8B6A" stroke="#DB8B6A" stroke-width="0.5" d="M961.843,554.08c0.774,0.137,2.334,0.412,3.12,0.549
		c-0.512,0.275-1.51,0.849-2.022,1.123c4.418,1.323,9.846,1.36,12.991,5.241c2.92,3.357,5.516,6.976,8.086,10.607
		c4.967,6.851,5.129,15.661,6.077,23.735c-4.667-7.537-8.324-15.624-12.467-23.436c-1.909-3.444-3.232-7.425-6.215-10.108
		c-4.031-2.745-8.76-4.168-13.178-6.102C959.422,555.141,960.62,554.604,961.843,554.08z"/>
	<path fill="#DA8B6C" stroke="#DA8B6C" stroke-width="0.5" d="M934.439,561.517c4.255-0.237,8.635-1.348,12.878-0.374
		c3.469,1.61,5.99,4.655,8.698,7.275c7.238,7.737,16.036,14.101,21.701,23.224c4.181,6.988,11.368,12.903,11.63,21.614l-0.399,0.961
		l-0.823-0.449c-4.63-2.508-9.871-3.918-14.014-7.25c-3.307-3.045-5.416-7.076-7.874-10.769c-2.97-6.739-10.72-8.024-17.234-8.711
		c-4.23-0.225-8.086,1.847-11.918,3.294c2.833,1.947,5.628,3.993,8.511,5.89c-6.077-0.849-11.968-2.546-17.72-4.617
		c-7.949-2.77-16.485-2.309-24.609-4.106c-5.815-1.273-10.532-5.091-15.162-8.598c7.587-4.742,15.599-8.723,23.373-13.141
		C918.428,561.717,926.727,562.428,934.439,561.517z"/>
	<path fill="#175548" stroke="#175548" stroke-width="0.5" d="M299.015,591.03c3.22-5.591,6.352-11.269,10.308-16.385
		c-1.21,5.715-3.032,11.269-4.979,16.784c-4.293,12.267-7.587,24.933-13.178,36.726c-20.266,44.713-40.258,89.55-60.561,134.238
		c-3.207,7.413-2.97,15.661-3.856,23.548c-1.21,14.151-3.394,28.253-3.619,42.466c-6.814,3.02-12.841,7.462-18.606,12.13
		c-1.061-0.636-2.121-1.235-3.182-1.81c-0.649-0.324-1.934-0.961-2.583-1.285c1.36-21.826,4.68-43.465,6.714-65.216
		c0.187-9.472,7.038-16.635,11.131-24.646c6.639-11.381,13.427-22.674,20.016-34.08c3.332-8.561,1.498-18.332,4.405-26.967
		c7.737-8.548,12.479-19.155,18.556-28.852C272.759,635.481,285.788,613.206,299.015,591.03z"/>
	<path fill="#8F5847" stroke="#8F5847" stroke-width="0.5" d="M937.085,590.332c3.831-1.448,7.687-3.519,11.918-3.294
		c6.514,0.686,14.264,1.972,17.234,8.711c-6.102,0.162-12.155,0.711-18.232,1.023c-0.599-0.137-1.81-0.412-2.408-0.549
		C942.713,594.325,939.917,592.278,937.085,590.332z"/>
	<path fill="#DB8A6C" stroke="#DB8A6C" stroke-width="0.5" d="M991.606,586.388c3.307,6.052,7.637,11.456,12.579,16.26
		c-0.849,1.335-1.697,2.658-2.546,3.993c-1.909-0.025-3.806-0.037-5.678-0.05C994.064,599.953,992.667,593.189,991.606,586.388z"/>
	<path fill="#111411" stroke="#111411" stroke-width="0.5" d="M1026.785,601.326c17.795-2.958,35.74,0.599,53.635,0.25
		c8.186,0.287,18.257-1.148,24.172,5.89c-5.316-2.159-10.844-4.043-16.66-3.893c-8.536,0.075-17.059-0.312-25.582-0.349
		c-0.1,1.298,1.073,1.972,1.922,2.77c8.486,6.901,16.66,14.189,24.996,21.277c3.245,2.633,6.065,6.077,10.021,7.675
		c5.828,0.524,11.905-0.562,17.471,1.809c-5.778,0.374-11.606,1.086-17.358,0.437c-5.778-3.095-10.158-8.186-15.312-12.142
		c-7.887-6.664-16.023-13.028-23.623-20.016c-1.235-1.31-3.145-0.786-4.692-0.824c-4.355,0.374-8.723,0.05-13.041-0.499
		c9.122,8.923,19.318,16.647,28.689,25.295c3.045,2.571,6.002,6.052,10.308,6.215c4.38,0.449,8.885,0.3,13.09,1.909
		c-6.576,0.399-13.627,1.585-19.929-0.537c-7.937-6.489-14.95-14.089-22.587-20.915c-6.764-7.612-17.084-12.329-27.342-10.944
		c8.174,9.147,17.795,16.847,26.393,25.582c5.229,6.227,14.201,3.008,21.152,5.029c-5.141,1.473-10.532,1.011-15.774,0.499
		c-2.196-0.087-3.819-1.685-5.354-3.02c-9.459-8.873-19.405-17.209-28.989-25.944c-3.719-3.706-9.085-4.592-14.114-3.931
		c-0.998,0.175-4.842,0.299-2.683-1.385C1012.633,600.926,1019.734,602.237,1026.785,601.326z"/>
	<path fill="#111111" stroke="#111111" stroke-width="0.5" d="M1110.095,603.272c5.054-0.449,11.031-3.532,15.499,0.275
		c9.833,7.213,19.842,14.201,29.75,21.327c4.093,2.97,8.885,5.404,11.393,10.033c-10.794-5.503-20.366-13.078-30.711-19.355
		c-6.152-3.457-11.007-9.522-18.232-10.72c6.913,7.288,16.061,11.968,22.949,19.268
		C1129.737,618.435,1120.141,610.448,1110.095,603.272z"/>
	<path fill="#D88C6C" stroke="#D88C6C" stroke-width="0.5" d="M887.667,605.718c15.611-2.109,32.121,0.636,45.848,8.523
		c-4.642,0.911-9.434,1.872-14.139,0.874c-7.65-1.46-15.25-3.17-22.899-4.605c-8.186-1.485-16.323-4.118-24.721-3.307
		C877.048,606.679,882.364,606.267,887.667,605.718z"/>
	<path fill="#1B1B1B" stroke="#1B1B1B" stroke-width="0.5" d="M1003.661,604.895c9.846,7.288,17.546,17.071,26.493,25.408
		c4.455,5.241,11.968,3.893,18.007,5.391c-4.867,0.324-9.846,0.986-14.663-0.025c-6.414-5.154-11.581-11.718-17.608-17.308
		C1011.66,614.004,1006.78,610.173,1003.661,604.895z"/>
	<path fill="#141414" stroke="#141414" stroke-width="0.5" d="M1082.554,605.806c6.177,2.309,10.794,7.126,15.936,11.044
		c6.539,5.141,13.228,10.071,19.667,15.337c3.769,3.507,9.309,2.658,13.877,4.443c-4.792,0.499-10.632,2.421-14.6-1.31
		c-6.564-5.466-13.103-10.969-19.767-16.31C1092.537,614.716,1086.959,610.897,1082.554,605.806z"/>
	<path fill="#0C0C0A" stroke="#0C0C0A" stroke-width="0.5" d="M988.124,613.767l0.823,0.449
		c7.662,5.066,12.217,13.565,19.742,18.756c5.141,1.473,10.62,0.961,15.898,1.722c-6.003,0.961-12.542,1.797-18.282-0.586
		C999.218,628.343,994.189,620.519,988.124,613.767z"/>
	<path fill="#121212" stroke="#121212" stroke-width="0.5" d="M1077.924,643.717c32.171-0.724,64.33-1.785,96.501-2.496
		c-0.362,4.131-0.724,8.299-1.597,12.367c-0.374,0.586-1.123,1.747-1.51,2.334c-61.497,0.225-123.007,0.112-184.504,0.013
		c-36.876-0.699-73.776-0.2-110.64-1.161c-1.36-3.669-2.783-7.325-4.542-10.807C940.392,643.63,1009.164,644.067,1077.924,643.717z"
		/>
	<path fill="#DFDFDF" stroke="#DFDFDF" stroke-width="0.5" d="M725.027,660.202c5.029-1.36,9.933-3.769,15.237-3.656
		c49.617,2.833,99.209,6.127,148.826,8.873c0.162,0.836,0.499,2.508,0.661,3.357c-5.503,3.557-12.255,3.869-18.457,5.428
		c-7.188,1.298-14.276,4.031-21.676,3.319c-48.032-3.669-96.077-7.138-144.109-10.819
		C711.737,663.759,718.551,662.436,725.027,660.202z"/>
	<path fill="#0C0C0A" stroke="#0C0C0A" stroke-width="0.5" d="M1075.391,660.027c9.597-0.299,19.18-1.323,28.789-0.961
		c16.947,1.048,33.856,2.783,50.79,3.993c5.279,0.349,10.445,1.485,15.574,2.745c5.453,1.335,11.231,2.121,16.023,5.279
		c3.968,2.596,8.423,4.63,11.868,7.962c0.686,3.769,2.309,8.71-1.061,11.668c-1.497,1.685-3.082,3.282-4.667,4.892
		c-3.444,3.457-7.176,6.976-11.992,8.324c-7.001,1.984-14.164,3.282-21.177,5.191c-10.345,2.77-21.127,1.735-31.697,1.859
		c-18.731,0.062-37.45-0.112-56.169,0.1c-12.18,0.412-23.436-4.904-35.178-7.238c-6.938-2.109-15.187-2.334-20.453-7.949
		c-2.159-3.12-4.455-6.289-5.541-9.958c-0.911-4.43-0.998-8.972-1.373-13.452c0.699-0.449,2.109-1.348,2.808-1.797
		c0.324,2.196,0.112,4.617,1.21,6.639c2.671,3.382,7.225,4.131,11.206,4.979c11.581,2.034,23.099,4.455,34.692,6.439
		c11.98,1.847,24.147,1.685,36.202,2.82c5.553,0.961,11.206,0.986,16.834,0.699c-3.457-0.936-6.914-1.847-10.395-2.558
		c16.685,0.225,33.531,2.483,50.079-0.811c9.247-1.922,19.006-2.109,27.754-5.977c-13.39-4.43-27.641-5.304-41.368-8.374
		c-14.426-3.494-29.326-1.809-44.001-2.184c-13.278,0.362-26.68-1.048-39.821,1.335c-7.051,1.123-14.089,2.246-21.09,3.569
		c-0.162,1.073-0.487,3.22-0.636,4.305c-5.641-2.146-11.219-4.443-16.572-7.213c3.245-4.892,8.486-8.436,14.488-8.561
		c16.622-0.898,33.219-2.621,49.904-2.134c18.881-0.624,37.637,1.847,56.431,3.22c11.618,0.711,23.174,2.309,34.804,2.683
		c-13.927-3.032-27.978-6.077-42.279-6.439c-17.159-0.786-34.305-2.608-51.489-1.747c-9.147,0.474-18.319,0.324-27.467,0.424
		C1058.631,660.077,1067.055,660.427,1075.391,660.027z"/>
	<path fill="#A7867D" stroke="#A7867D" stroke-width="0.5" d="M1025.337,665.094c5.74-4.368,13.727-5.341,20.491-3.045
		C1038.989,662.997,1032.163,664.046,1025.337,665.094z"/>
	<path fill="#5B5B5B" stroke="#5B5B5B" stroke-width="0.5" d="M1045.828,662.049c1.51-0.175,3.045-0.225,4.592-0.25
		c9.147-0.1,18.319,0.05,27.467-0.424c17.184-0.861,34.33,0.961,51.489,1.747c14.301,0.362,28.352,3.407,42.279,6.439
		c-11.63-0.374-23.186-1.972-34.804-2.683c-18.793-1.373-37.55-3.844-56.431-3.22c-16.685-0.487-33.282,1.235-49.904,2.134
		c-6.003,0.125-11.244,3.669-14.488,8.561c5.353,2.77,10.932,5.067,16.572,7.213c0.15-1.086,0.474-3.232,0.636-4.305
		c7.001-1.323,14.039-2.446,21.09-3.569c13.141-2.383,26.543-0.973,39.821-1.335c14.675,0.374,29.575-1.31,44.001,2.184
		c13.727,3.07,27.978,3.943,41.368,8.374c-8.748,3.868-18.507,4.056-27.754,5.977c-16.547,3.294-33.394,1.036-50.079,0.811
		c-3.369-0.387-6.726-0.786-10.071-1.161c1.186,1.011,2.384,2.022,3.631,3.02c-12.055-1.136-24.222-0.973-36.202-2.82
		c-11.593-1.984-23.111-4.405-34.692-6.439c-3.981-0.849-8.536-1.597-11.206-4.979c-1.098-2.022-0.886-4.443-1.21-6.639
		c4.467-1.847,8.673-4.405,13.403-5.591C1032.163,664.046,1038.989,662.997,1045.828,662.049z"/>
	<path fill="#121212" stroke="#121212" stroke-width="0.5" d="M704.025,666.854c0.374-0.037,1.111-0.112,1.485-0.15
		c48.032,3.681,96.077,7.15,144.109,10.819c7.4,0.711,14.488-2.022,21.676-3.319c6.202-1.56,12.953-1.872,18.457-5.428
		c0.549-0.337,1.622-1.011,2.171-1.348c-0.237,3.669,0.886,8.086-2.096,10.957c-2.808,3.656-7.076,5.616-11.393,6.826
		c-6.502,1.847-12.616,5.74-19.58,5.366c-31.347-1.348-62.645-3.681-93.993-4.854c-15.312-1.186-30.649-1.997-45.998-2.446
		c-5.266-0.087-10.245-1.872-15.025-3.943C702.54,675.264,701.716,670.759,704.025,666.854z"/>
	<path fill="#080202" stroke="#080202" stroke-width="0.5" d="M878.433,685.21c4.318-1.211,8.586-3.17,11.393-6.826
		c1.46,2.571,3.132,5.042,4.755,7.525c-11.106,2.87-22.088,6.639-33.432,8.386c-52.1-2.92-104.176-6.352-156.251-9.634
		c-3.869,0.724-5.616-6.502-1.061-5.329c4.78,2.071,9.759,3.856,15.025,3.943c15.349,0.449,30.686,1.26,45.998,2.446
		c31.347,1.173,62.645,3.507,93.993,4.854C865.817,690.951,871.931,687.057,878.433,685.21z"/>
	<path fill="#3B3B39" stroke="#3B3B39" stroke-width="0.5" d="M1091.613,688.542c3.344,0.374,6.701,0.774,10.071,1.161
		c3.482,0.711,6.938,1.622,10.395,2.558c-5.628,0.287-11.281,0.262-16.834-0.699
		C1093.997,690.564,1092.799,689.553,1091.613,688.542z"/>
	<path fill="#010101" stroke="#010101" stroke-width="0.5" d="M1016.04,695.892c5.266,5.616,13.515,5.84,20.453,7.949
		c11.743,2.334,22.999,7.65,35.178,7.238c18.719-0.212,37.437-0.037,56.169-0.1c10.57-0.125,21.352,0.911,31.697-1.859
		c7.013-1.909,14.176-3.207,21.177-5.191c4.817-1.348,8.548-4.867,11.992-8.324c4.218,1.672,6.19,5.94,8.373,9.596
		c0.686,1.622,2.583,3.444,1.036,5.179c-3.095,3.893-6.215,9.309-11.843,9.297c-12.529,1.111-24.946,3.344-37.475,4.081
		c-37.475-1.111-74.9-3.319-112.337-5.291c-4.967-0.412-10.407,0.349-14.763-2.546c-3.557-2.209-7.338-4.205-10.32-7.175
		c-1.51-3.02-1.834-6.439-2.471-9.696C1013.943,697.989,1014.979,696.941,1016.04,695.892z"/>
	<path fill="#175548" stroke="#175548" stroke-width="0.5" d="M306.241,728.725c10.982-0.549,21.938,0.936,32.92,0.986
		c14.763,0.013,29.239,3.232,43.876,4.655c6.09,0.499,12.055,2.134,17.358,5.216c14.451,7.675,29.126,14.95,43.54,22.712
		c2.646,1.161,5.928,3.407,8.548,0.948c9.983-7.001,19.505-14.663,29.451-21.701c5.666-3.569,12.741-2.396,18.868-0.824
		c-0.899,2.658-1.535,5.491-3.008,7.924c-1.647,1.697-3.719,2.87-5.628,4.243c-0.175,9.721-0.948,19.443-0.724,29.176
		c0.037,3.419-0.225,6.876-1.073,10.208c-0.387-3.257-4.155-2.084-5.653-0.362c1.547,0.424,3.132,0.686,4.767,0.774
		c-8.423,0.362-16.822-0.587-25.208-0.948c-11.73-3.02-23.598-5.453-35.391-8.174c-6.177-1.473-12.754-2.134-18.319-5.428
		c-10.233-6.352-18.943-15.299-30.399-19.542c-16.422-6.302-32.683-13.003-49.043-19.467
		C322.838,735.613,314.24,732.843,306.241,728.725z"/>
	<path fill="#2B353E" stroke="#2B353E" stroke-width="0.5" d="M491.443,782.061c4.692-0.212,9.409,0.087,14.014,1.123
		c15.499,3.22,31.098,5.953,46.56,9.384c-0.836,2.296-1.66,4.605-2.471,6.926c-8.873-1.984-17.957-0.824-26.942-0.911
		c-14.987,0-29.937,1.036-44.925,1.011c-12.716,0.237-25.457-0.162-38.161,0.674c-0.212,1.223-0.424,2.458-0.624,3.694
		c35.803,1.385,71.593,2.895,107.383,4.605c-9.272,25.358-18.132,50.877-27.828,76.085c0.15,4.081,1.036,8.074,1.81,12.08
		c49.018,0.424,98.036,0.025,147.054,0.187c-4.705,20.541-10.844,40.744-15.012,61.41c-15.911-4.318-32.396-5.341-48.681-7.475
		c-12.342-1.448-24.671-2.995-37.013-4.48c-8.848-1.086-17.608,1.048-26.343,2.171c-44.713,6.427-89.475,12.604-134.213,18.918
		c-31.011,2.808-62.108,4.692-93.132,7.313c-4.53,0.487-9.122-0.225-13.265-2.121c-10.707-4.755-21.464-9.384-32.346-13.715
		c-4.443-1.809-9.309-3.806-11.656-8.299c-10.732-19.293-20.578-39.097-31.635-58.227c-4.343-7.363-1.61-16.086-1.21-24.06
		c0.824-13.303,2.758-26.518,3.307-39.833c-0.512-0.125-1.535-0.387-2.047-0.512c9.047-3.756,17.645-9.559,27.754-9.846
		c20.366-1.073,40.732-2.296,61.11-3.482c12.105-0.899,24.459-0.387,36.264-3.606c23.561-6.152,47.296-11.618,70.831-17.845
		c14.426-4.056,29.513-1.048,44.251-1.497c8.386,0.362,16.784,1.31,25.208,0.948l0.886-0.412
		C491.219,788.937,491.481,785.48,491.443,782.061 M316.886,833.537c-5.216,3.207-11.431,4.992-15.649,9.634
		c2.708,0.2,5.653,0.724,8.049-0.948c9.447-5.416,18.407-11.668,27.853-17.096c2.733-1.547,5.129-3.569,7.425-5.69
		C334.656,822.655,326.058,828.757,316.886,833.537z"/>
	<path fill="#49887A" stroke="#49887A" stroke-width="0.5" d="M484.717,791.907c1.498-1.722,5.266-2.895,5.653,0.362l-0.886,0.412
		C487.849,792.593,486.264,792.331,484.717,791.907z"/>
	<path fill="#131C23" stroke="#131C23" stroke-width="0.5" d="M477.679,799.594c14.987,0.025,29.937-1.011,44.925-1.011
		c8.985,0.087,18.07-1.073,26.942,0.911c-1.086,3.02-2.159,6.052-3.27,9.072c-35.79-1.71-71.58-3.22-107.383-4.605
		c0.2-1.235,0.412-2.471,0.624-3.694C452.221,799.432,464.963,799.831,477.679,799.594z"/>
	<path fill="#131C25" stroke="#131C25" stroke-width="0.5" d="M316.886,833.537c9.172-4.779,17.77-10.882,27.679-14.101
		c-2.296,2.121-4.692,4.143-7.425,5.69c-9.447,5.428-18.407,11.68-27.853,17.096c-2.396,1.672-5.341,1.148-8.049,0.948
		C305.455,838.529,311.669,836.744,316.886,833.537z"/>
	<path fill="#131C23" stroke="#131C23" stroke-width="0.5" d="M223.13,828.408l0.936-0.399c0.512,0.125,1.535,0.387,2.047,0.512
		c-0.549,13.315-2.483,26.531-3.307,39.833c-0.399,7.974-3.132,16.697,1.21,24.06c11.056,19.13,20.903,38.935,31.635,58.227
		c2.346,4.493,7.213,6.489,11.656,8.299c10.882,4.33,21.639,8.96,32.346,13.715c4.143,1.897,8.735,2.608,13.265,2.121
		c31.023-2.621,62.121-4.505,93.132-7.313c44.738-6.314,89.5-12.492,134.213-18.918c8.735-1.123,17.496-3.257,26.343-2.171
		c12.342,1.485,24.671,3.032,37.013,4.48c16.285,2.134,32.77,3.157,48.681,7.475c-1.023,2.77-2.471,5.366-3.868,7.974
		c-5.204-1.81-10.108-4.33-15.2-6.402c-5.428-2.171-11.344-0.874-16.972-0.736c-12.105,0.449-24.284,0.062-36.302,1.884
		c2.159,0.512,4.33,1.061,6.502,1.622c-2.683,0.587-5.329,1.235-8.012,1.76c-36.913-0.374-73.839-0.037-110.752-0.175
		c-5.965-0.025-11.98-0.275-17.858,0.911c-26.056,4.867-52.15,9.534-78.219,14.351c-11.668,1.922-23.186,4.942-35.041,5.416
		c-17.084,1.011-34.168,1.934-51.239,3.07c-2.745,0.312-5.291-0.824-7.612-2.146c-13.565-7.7-27.229-15.225-40.919-22.724
		c-2.321-1.323-4.979-2.683-5.728-5.466c-6.926-18.057-13.777-36.152-20.753-54.184c-3.282-8.049-4.031-16.772-5.828-25.195
		c-2.833-12.978-2.733-26.343-3.157-39.559c1.061,0.574,2.121,1.173,3.182,1.81C210.289,835.871,216.316,831.428,223.13,828.408z"/>
	<path fill="#744436" stroke="#744436" stroke-width="0.5" d="M1617.021,884.364c12.479-0.1,24.983,0.337,37.45-0.537
		c0.374,0.225,1.123,0.661,1.497,0.886c0.424,4.043,0.15,8.124,0.05,12.192c-50.054-0.1-100.107-0.025-150.161-0.037
		c-7.987-0.037-15.973-0.025-23.948,0.062c-0.025,2.546-0.05,5.116,0.137,7.687c-0.499-2.546-0.799-5.116-1.048-7.675
		c-17.883-0.187-35.778-0.025-53.66-0.075c-10.582,0.112-21.177-0.362-31.734,0.362c-6.539-0.399-13.103-0.524-19.642-0.349
		c-130.12-0.037-260.252-0.013-390.384-0.013c-45.374,0.1-90.748-0.225-136.11,0.162c-52.013-0.299-104.026-0.037-156.039-0.162
		c-8.71-0.025-17.421-0.013-26.119,0.05c-49.018-0.162-98.036,0.237-147.054-0.187c-0.774-4.006-1.66-7.999-1.81-12.08
		c30.087-0.711,60.174-0.087,90.261-0.299C944.822,884.364,1280.922,884.352,1617.021,884.364z"/>
	<path fill="#181816" stroke="#181816" stroke-width="0.5" d="M667.311,896.918c8.698-0.062,17.408-0.075,26.119-0.05
		c-4.667,16.472-8.311,33.219-12.604,49.792c-1.522,6.339-3.519,12.591-4.355,19.081c0.1,1.947,0.324,3.893,0.549,5.853
		c-0.636,0.312-1.909,0.923-2.533,1.235c-1.26,4.205-2.496,8.436-3.17,12.791c-1.747,14.538-8.798,27.941-9.559,42.654
		c-8.274,24.284-12.779,49.617-19.567,74.301c-1.285,7.999-4.505,15.524-5.79,23.523c-2.621,10.907-5.379,21.764-8.111,32.645
		c-2.583,10.096-2.234,20.628-4.567,30.774c-0.362-2.421-0.811-4.805-1.26-7.176c-1.834,7.138-3.619,14.301-5.329,21.476
		c-2.783,11.106-5.603,22.213-8.261,33.357c-7.138,26.331-13.203,52.936-19.804,79.405c-8.174,33.02-16.435,66.015-24.571,99.034
		c-1.448,5.466-2.221,11.231-4.954,16.26c-2.92,5.179-3.794,11.156-5.354,16.822c-11.643,45.636-23.274,91.272-34.792,136.946
		c-8.798-0.562-17.471-2.371-26.019-4.417c14.438-56.555,28.877-113.111,43.34-169.654c14.488-59.438,29.438-118.764,44.114-178.152
		c0.886-4.417,4.979-7.3,5.715-11.768c4.031-17.047,8.923-33.868,12.654-50.977c2.733-10.283,5.329-20.591,7.874-30.911
		c2.159-9.946,4.78-19.792,7.051-29.725c9.821-38.298,19.168-76.734,28.714-115.12c1.31-6.065,4.692-12.542,1.198-18.507
		c1.136-0.05,2.271-0.1,3.432-0.125c1.061-3.22,1.498-6.614,0.961-9.983c1.398-2.608,2.845-5.204,3.868-7.974
		C656.467,937.663,662.607,917.459,667.311,896.918z"/>
	<path fill="#2B353E" stroke="#2B353E" stroke-width="0.5" d="M693.43,896.868c52.013,0.125,104.026-0.137,156.039,0.162
		c3.669,5.416,1.073,11.768,0.275,17.62c-2.471,13.34-3.918,26.88-7.363,40.033c-4.18,17.046-8.349,34.105-12.442,51.177
		c-1.71,8.086-4.892,15.724-7.787,23.423c-14.339,38.298-28.764,76.559-43.09,114.858c-10.645,28.265-21.227,56.543-31.847,84.808
		c-2.596,7.413-5.965,14.563-7.887,22.2c-0.437,12.541-0.649,25.095-1.011,37.649c-0.287,7.2-0.524,14.413-0.15,21.626
		c-1.073,1.036-2.146,2.071-3.22,3.107l-1.198,0.162c-11.718,1.485-23.136,4.542-34.717,6.813
		c-9.659,1.834-19.23,5.104-29.201,4.355c-8.448-0.674-16.847,0.661-25.058,2.558c-4.655-29.076-9.235-58.153-13.852-87.217
		c-2.758-16.847-5.254-33.744-7.2-50.69c2.334-10.146,1.984-20.678,4.567-30.774c2.733-10.882,5.491-21.739,8.111-32.645
		c0.711,11.543-2.433,22.937-1.248,34.505c3.756-8.835,6.202-18.12,8.935-27.292c7.35-25.482,13.091-51.451,22.101-76.434
		c5.329-15.512,10.882-30.948,15.811-46.584c13.64-5.528,27.367-10.844,40.981-16.46c10.682-4.617,22.113-7.75,31.909-14.239
		c10.158-6.614,20.753-12.529,31.011-18.968c4.592-2.558,6.277-7.725,7.762-12.417c-23.461,7.837-46.447,17.046-69.771,25.258
		c-6.452,2.284-13.39,1.061-19.605-1.31c1.423-1.31,2.858-2.621,4.293-3.931c-4.542,1.385-9.085,2.845-13.702,3.956
		c3.993-2.608,8.261-5.004,13.128-5.428c10.108-1.148,19.318-5.653,28.839-8.898c12.766-4.505,24.896-10.645,37.824-14.75
		c10.445-3.694,20.99-7.138,31.41-10.932c3.744-0.811,3.731-5.141,4.318-8.174c0.948-8.548,1.784-17.109,2.695-25.657
		c-13.814,11.406-27.204,23.298-40.657,35.116c-5.903,4.954-13.665,6.477-20.678,9.197c-9.047,3.095-17.883,6.839-27.142,9.247
		c6.177-8.698,14.251-15.799,21.09-23.96c7.151-8.448,15.561-15.873,21.626-25.195c-7.687,5.291-14.014,12.23-21.19,18.145
		c-10.969,9.821-22.001,19.592-32.87,29.538c-6.626,6.227-15.012,9.996-22.699,14.688c-4.268,2.845-9.459,1.435-14.101,0.624
		c0.836-6.489,2.833-12.741,4.355-19.081C685.119,930.088,688.763,913.341,693.43,896.868 M742.773,1097.22
		c-11.693,15.724-23.71,31.198-35.279,47.021c-5.828,8.386-12.953,15.898-17.858,24.896c5.541-3.631,9.235-9.21,13.652-14.002
		c9.646-10.782,19.368-21.489,28.827-32.433c5.366-6.227,11.543-11.843,16.173-18.669c3.057-6.826,4.854-14.201,6.527-21.464
		C749.898,1086.663,746.654,1092.216,742.773,1097.22 M641.405,1213.7c-0.437,14.264-0.362,28.565,0.013,42.841
		c4.829-7.737,7.787-16.51,10.408-25.17C650.028,1224.732,645.398,1219.191,641.405,1213.7 M632.881,1217.357
		c-0.674,5.678-0.811,11.418-0.324,17.134C634.978,1229.212,638.035,1222.036,632.881,1217.357z"/>
	<path fill="#181816" stroke="#181816" stroke-width="0.5" d="M1375.962,896.881c6.539-0.175,13.103-0.05,19.642,0.349
		c20.092,82.811,41.73,165.248,63.257,247.698c1.685,7.263,4.28,14.351,5.354,21.751c-0.874,4.517-2.321,9.01-0.736,13.615
		c-5.304-0.012-10.595,0-15.886-0.025c-0.861-3.669-1.747-7.313-2.646-10.957c-1.073-4.293-2.159-8.573-3.219-12.854
		c-4.992-20.116-10.008-40.22-14.987-60.336c-13.59-55.407-28.315-110.515-42.604-165.748
		C1381.503,919.181,1377.709,908.249,1375.962,896.881z"/>
	<path fill="#181816" stroke="#181816" stroke-width="0.5" d="M1481.91,896.931c7.974-0.087,15.961-0.1,23.948-0.062
		c26.73,107.645,53.498,215.289,80.253,322.934c30.362,121.946,62.233,243.505,93.231,365.288c-3.581,0.899-6.926,2.421-10.046,4.33
		c-4.106,2.458-8.985,3.082-13.677,3.02c-0.374-1.373-0.724-2.733-1.061-4.068c-1.497-5.915-3.032-11.805-4.542-17.708
		c-29.114-114.071-58.514-228.08-87.541-342.177c-26.805-107.957-53.698-215.901-80.428-323.87
		C1481.86,902.047,1481.885,899.477,1481.91,896.931z"/>
	<path fill="#131C23" stroke="#131C23" stroke-width="0.5" d="M772.435,933.457c13.452-11.818,26.843-23.71,40.657-35.116
		c-0.911,8.548-1.747,17.109-2.695,25.657c-0.586,3.032-0.574,7.363-4.318,8.174c-10.42,3.794-20.965,7.238-31.41,10.932
		c-12.928,4.106-25.058,10.245-37.824,14.75c-9.522,3.245-18.731,7.749-28.839,8.898c-4.867,0.424-9.135,2.82-13.128,5.428
		c-5.878,1.647-11.967,0.162-17.858-0.586c-0.225-1.959-0.449-3.906-0.549-5.853c4.642,0.811,9.834,2.221,14.101-0.624
		c7.687-4.692,16.073-8.461,22.699-14.688c10.869-9.946,21.901-19.717,32.87-29.538c7.176-5.915,13.502-12.853,21.19-18.145
		c-6.065,9.322-14.476,16.747-21.626,25.195c-6.839,8.161-14.913,15.262-21.09,23.96c9.259-2.408,18.095-6.152,27.142-9.247
		C758.771,939.934,766.533,938.411,772.435,933.457z"/>
	<path fill="#131C23" stroke="#131C23" stroke-width="0.5" d="M723.892,973.465c23.323-8.211,46.31-17.421,69.771-25.258
		c-1.485,4.692-3.17,9.858-7.762,12.417c-10.258,6.439-20.853,12.354-31.011,18.968c-9.796,6.489-21.227,9.621-31.909,14.239
		c-13.615,5.616-27.342,10.932-40.981,16.46c-4.929,15.636-10.482,31.073-15.811,46.584c-9.01,24.983-14.75,50.952-22.101,76.434
		c-2.733,9.172-5.179,18.457-8.935,27.292c-1.186-11.568,1.959-22.962,1.248-34.505c1.285-7.999,4.505-15.524,5.79-23.523
		c6.789-24.684,11.294-50.016,19.567-74.301c3.145-7.862,6.714-15.562,9.796-23.461c1.635-4.255,3.906-8.349,7.475-11.256
		c8.423-7.126,16.947-14.139,25.258-21.402C710.502,974.526,717.44,975.749,723.892,973.465z"/>
	<path fill="#010101" stroke="#010101" stroke-width="0.5" d="M616.259,959.164c5.628-0.137,11.543-1.435,16.972,0.736
		c5.091,2.071,9.996,4.592,15.2,6.402c0.537,3.369,0.1,6.764-0.961,9.983c-1.161,0.025-2.296,0.075-3.432,0.125
		c-10.345-3.706-21.314-5.191-31.922-7.962c-10.969-3.032-22.412-3.02-33.669-4.018c2.683-0.524,5.329-1.173,8.012-1.76
		c-2.171-0.562-4.343-1.111-6.502-1.622C591.975,959.226,604.155,959.613,616.259,959.164z"/>
	<path fill="#000001" stroke="#000001" stroke-width="0.5" d="M694.878,972.18c4.617-1.111,9.16-2.571,13.702-3.956
		c-1.435,1.31-2.87,2.621-4.293,3.931c-8.311,7.263-16.834,14.276-25.258,21.402c-3.569,2.908-5.84,7.001-7.475,11.256
		c-3.082,7.899-6.651,15.599-9.796,23.461c0.761-14.713,7.812-28.116,9.559-42.654c0.674-4.355,1.909-8.586,3.17-12.791
		c0.624-0.312,1.897-0.923,2.533-1.235C682.91,972.342,689,973.827,694.878,972.18z"/>
	<path fill="#B5B5B4" stroke="#B5B5B4" stroke-width="0.5" d="M172.24,985.295l0.711,0.15c7.313,4.443,14.126,9.809,22.038,13.203
		c5.441,2.321,11.568,1.435,17.184,3.17c4.318,1.298,8.723,2.284,13.178,3.032c9.372,1.585,16.772,9.01,26.443,9.472
		c8.324,0.549,16.972,1.023,24.284,5.516c-0.699,1.111-1.385,2.259-2.059,3.407c-4.418-0.674-8.486,1.161-12.242,3.257
		c0.424-2.396,0.849-4.792,1.26-7.175c-8.186-1.098-16.41-1.76-24.659-2.047c-15.674-2.683-30.961-7.325-46.584-10.32
		c-3.906-1.036-9.035-0.973-11.032-5.166C177.744,996.427,173.176,991.547,172.24,985.295z"/>
	<path fill="#CFC6B3" stroke="#CFC6B3" stroke-width="0.5" d="M437.022,996.102c11.456-1.223,22.862-4.63,34.455-3.032
		c8.448,0.948,16.984,1.235,25.32,3.095c-15.599,2.471-31.422,3.419-46.921,6.527c-0.811-0.037-2.421-0.1-3.232-0.125
		c-11.381-1.073-22.799,0.262-34.13,1.285c-12.067,0.961-24.122,1.859-36.227,1.597
		C396.353,1001.281,416.781,999.259,437.022,996.102z"/>
	<path fill="#D0C6B2" stroke="#D0C6B2" stroke-width="0.5" d="M642.104,993.095c0.187,0.449,0.549,1.373,0.736,1.822
		c-9.546,38.386-18.893,76.821-28.714,115.12c-3.706-7.874-3.544-16.722-4.904-25.133c-1.21-7.6-1.997-15.237-3.095-22.849
		c2.97-0.087,7.001,1.66,9.185-1.148c1.572-5.067,0.437-10.47,0.275-15.661c-1.448,0.025-2.883,0.087-4.305,0.187
		c1.086-0.499,2.171-0.986,3.27-1.473c0.611-7.113,4.343-13.215,8.286-18.943C629.25,1014.359,636.887,1004.426,642.104,993.095z"/>
	<path fill="#918F8E" stroke="#918F8E" stroke-width="0.5" d="M520.906,997.363c13.702-0.799,27.404-2.022,41.144-2.184
		c4.293,7.4,10.72,13.153,16.447,19.405c3.407,3.756,7.924,7.238,8.573,12.641c5.354,31.647,10.695,63.307,16.086,94.954
		c0.836,5.953,1.872,11.905,3.918,17.583c-2.546,10.32-5.141,20.628-7.874,30.911c-1.71-7.575-3.157-15.2-4.156-22.887
		c-4.63-31.872-9.709-63.656-14.376-95.503c-0.986-5.815-0.761-12.641-5.578-16.847c-5.304-5.092-10.482-10.283-15.599-15.549
		c-3.045-3.432-7.874-3.594-12.092-4.106c-24.621-2.458-49.143-6.09-73.776-8.311c-16.21,0.948-32.283,3.719-48.444,5.416
		c-48.893,5.928-97.836,11.568-146.704,17.795c-7.288,38.149-15.774,76.06-23.473,114.134
		c-15.112,72.129-30.012,144.321-44.925,216.5c-0.961,4.542-1.735,9.122-2.446,13.74c-6.601-0.2-13.19-0.774-19.717-1.697
		c0.399-3.17,0.824-6.314,1.385-9.447c10.932-55.52,23.486-110.715,35.191-166.072c8.885-41.406,17.858-82.774,26.718-124.18
		c3.082-15.237,6.976-30.324,9.447-45.686c-5.017,5.017-9.659,10.395-14.476,15.624c-2.508,2.696-4.705,5.803-5.603,9.434
		c-17.321,70.806-34.792,141.588-52.15,212.382c-8.935,36.464-18.145,72.878-26.705,109.429
		c-6.277,23.486-11.581,47.221-17.695,70.756c-1.56,6.127-2.808,12.329-3.943,18.569c-6.115,1.61-12.267,3.12-18.469,4.38
		c5.516-21.065,10.233-42.329,14.363-63.693c5.703-23.635,10.42-47.495,15.786-71.206c18.843-86.817,37.749-173.609,56.643-260.427
		c2.059-8.598,2.758-17.957,8.748-24.983c6.152-10.957,14.413-20.453,21.227-30.961c8.249,0.287,16.472,0.948,24.659,2.047
		c-0.412,2.383-0.836,4.779-1.26,7.175c3.756-2.096,7.824-3.931,12.242-3.257c0.674-1.148,1.36-2.296,2.059-3.407
		c1.572-2.596,3.195-5.141,4.829-7.687c31.772-2.496,63.681-3.207,95.378-6.701c12.105,0.262,24.16-0.636,36.227-1.597
		c1.298,0.587,2.596,1.198,3.906,1.81c-20.765,1.71-41.481,4.118-62.196,6.377c-15.125,2.122-30.199,4.505-45.262,7.013
		c19.218-1.048,38.186-4.605,57.304-6.552c17.346-1.997,34.63-4.517,52.013-6.264c9.609,0.225,18.856-2.87,28.365-3.669
		c0.811,0.025,2.421,0.087,3.232,0.125c33.007,1.048,66.052,1.423,99.072,1.884c2.396,0.062,4.605-0.986,6.839-1.697
		C544.242,1000.495,532.35,1000.283,520.906,997.363 M227.984,1039.118c-7.375,5.229-9.734,14.426-13.715,22.076
		c2.171,1.697,3.257,4.156,3.631,6.839c1.423-2.396,2.858-4.779,4.218-7.2c6.414-12.342,15.112-23.299,22.35-35.141
		C238.779,1029.921,233.563,1034.738,227.984,1039.118 M185.481,1227.477c-14.875,59.575-29.65,119.163-44.588,178.713
		c-2.546,11.019-5.915,21.851-7.837,32.995c1.872-0.898,3.731-2.059,3.943-4.318c19.779-81.638,39.634-163.277,59.525-244.902
		c8.324-34.829,17.284-69.521,25.12-104.463C209.041,1132.686,197.198,1180.069,185.481,1227.477z"/>
	<path fill="#ADA8A0" stroke="#ADA8A0" stroke-width="0.5" d="M412.513,1003.852c11.331-1.023,22.749-2.359,34.13-1.285
		c-9.509,0.799-18.756,3.893-28.365,3.669c-0.474-0.137-1.398-0.424-1.859-0.574C415.109,1005.05,413.811,1004.438,412.513,1003.852
		z"/>
	<path fill="#FEFDFD" stroke="#FEFDFD" stroke-width="0.5" d="M354.223,1012.038c20.715-2.259,41.431-4.667,62.196-6.377
		c0.462,0.15,1.385,0.437,1.859,0.574c-17.383,1.747-34.667,4.268-52.013,6.264c-19.118,1.947-38.086,5.503-57.304,6.552
		C324.024,1016.543,339.098,1014.16,354.223,1012.038z"/>
	<path fill="#FDFEFD" stroke="#FDFEFD" stroke-width="0.5" d="M227.984,1039.118c5.578-4.38,10.794-9.197,16.485-13.427
		c-7.238,11.843-15.936,22.799-22.35,35.141c-1.36,2.421-2.795,4.804-4.218,7.2c-0.374-2.683-1.46-5.141-3.631-6.839
		C218.251,1053.544,220.609,1044.346,227.984,1039.118z"/>
	<path fill="#B5B5B4" stroke="#B5B5B4" stroke-width="0.5" d="M602.557,1049.263c2.883-1.31,5.778-2.621,8.723-3.831
		c1.423-0.1,2.858-0.162,4.305-0.187c0.162,5.191,1.298,10.595-0.275,15.661c-2.184,2.808-6.215,1.061-9.185,1.148
		C605.328,1057.687,603.93,1053.469,602.557,1049.263z"/>
	<path fill="#121C23" stroke="#121C23" stroke-width="0.5" d="M742.773,1097.22c3.881-5.004,7.126-10.557,12.042-14.651
		c-1.672,7.263-3.469,14.638-6.527,21.464c-4.63,6.826-10.807,12.442-16.173,18.669c-9.459,10.944-19.18,21.651-28.827,32.433
		c-4.418,4.792-8.111,10.37-13.652,14.002c4.904-8.998,12.03-16.51,17.858-24.896C719.062,1128.418,731.08,1112.944,742.773,1097.22
		z"/>
	<path fill="#FEFDFD" stroke="#FEFDFD" stroke-width="0.5" d="M185.481,1227.477c11.718-47.408,23.561-94.791,36.164-141.975
		c-7.837,34.942-16.797,69.633-25.12,104.463c-19.892,81.626-39.746,163.264-59.525,244.902c-0.212,2.259-2.072,3.419-3.943,4.318
		c1.922-11.144,5.291-21.976,7.837-32.995C155.83,1346.64,170.605,1287.053,185.481,1227.477z"/>
	<path fill="#BDB7AB" stroke="#BDB7AB" stroke-width="0.5" d="M1212.748,1136.33c28.228-1.797,56.543-0.162,84.771-2.009
		c16.535,0.062,33.07-0.799,49.592-0.062c4.53,10.12,8.398,20.553,13.552,30.374c1.248,3.045,5.229,1.56,7.799,1.71
		c13.103-1.834,26.144-4.081,39.284-5.653c11.344-1.273,22.537-3.831,33.981-4.23c1.061,4.28,2.146,8.561,3.219,12.854
		c-7.687,4.131-16.622,3.594-24.996,4.942c-17.171,2.433-34.442,3.993-51.589,6.527c0.711,2.483,1.435,4.979,2.346,7.438
		c52.637,119.949,105.249,239.936,157.923,359.897c1.759,3.956,2.932,8.336,5.728,11.755c6.077,1.884,12.542,1.722,18.818,2.596
		c21.314,2.296,42.616,4.667,63.943,6.963c10.857,1.086,21.676,2.87,32.608,3.294c0.063-0.512,0.212-1.535,0.287-2.059
		c1.51,5.903,3.045,11.793,4.542,17.708c-5.503,0.649-10.982-0.349-16.422-0.899c-28.677-2.533-57.342-5.266-85.994-7.924
		c-3.02-0.175-6.027-0.05-9.01,0.112c2.671,11.543,10.545,21.252,12.616,32.92c-11.593,0.873-23.211,0.399-34.804,0.611
		c-19.143,0.087-38.273,0.299-57.416,0.287c-35.74,1.348-71.543,1.023-107.32,1.273c-10.008-0.325-19.954,1.011-29.95,0.873
		c-23.299,0.012-46.597,0.275-69.883,0.362c-10.832-0.299-21.614,1.173-32.446,0.874c-27.866,0.125-55.744,0.362-83.61,0.399
		c-33.244,1.685-66.563,0.574-99.82,1.398c-12.879,1.173-25.794,0.437-38.698,0.724c-22.462,0.237-44.925,0.275-67.387,0.349
		c-10.42-0.237-20.778,1.173-31.198,0.886c-24.546,0.05-49.093,0.374-73.639,0.362c-12.492-0.262-24.933,1.285-37.425,0.886
		c-33.694,0.462-67.425-0.337-101.081,1.26c-17.059-0.063-34.105,0.2-51.164,0.274c-14.126,0.162-28.29-0.274-42.391,0.874
		c-33.307,0.225-66.613,0.312-99.92,0.562c-14.101,1.073-28.253,0.736-42.379,0.886c-19.979,0.062-39.971,0.212-59.937,0.337
		c-17.845,1.323-35.753,0.599-53.623,0.973c-12.205-0.1-24.422,0.562-36.614-0.187c0.923-2.421,1.697-4.917,3.12-7.088
		c10.957-16.709,20.728-34.205,32.271-50.528c4.218,0.237,10.732,3.918,13.141-1.373c9.746-21.589,21.551-42.242,30.561-64.18
		c-108.568,7.425-217.161,14.675-325.742,22.2c-10.108,0.187-20.166,2.159-30.299,1.198c1.747-6.502,5.616-12.08,8.361-18.145
		c2.558-5.503,5.191-10.982,8.249-16.223c2.646,0.25,5.815,1.073,7.762-1.348c6.926-6.814,12.791-14.663,19.954-21.252
		c6.564-5.953,11.631-13.303,18.07-19.368c4.268-4.068,8.411-8.261,12.142-12.816c6.577-7.962,14.725-14.426,21.327-22.35
		c3.519-4.056,6.651-8.948,12.017-10.72c-4.131,21.364-8.848,42.629-14.363,63.693c6.202-1.26,12.354-2.77,18.469-4.38
		c1.136-6.24,2.384-12.442,3.943-18.569c6.115-23.536,11.418-47.271,17.695-70.756c1.747-2.047,3.606-3.993,5.578-5.803
		c5.69-5.94,14.675-3.531,22.001-5.129c-0.562,3.132-0.986,6.277-1.385,9.447c6.527,0.923,13.116,1.498,19.717,1.697
		c0.711-4.617,1.485-9.197,2.446-13.74c9.497,0.125,18.893-1.335,28.328-2.121c74.35-7.188,148.701-14.426,223.039-21.651
		c5.403,0.087,7.238-5.566,9.172-9.572c5.291-12.654,11.843-24.734,17.87-37.038c5.503-10.508,9.908-21.526,15.399-32.034
		c10.507-20.478,19.867-41.506,30.362-61.984c6.377-12.142,11.655-24.808,17.833-37.05c1.972-3.731,3.344-8.062,6.651-10.844
		c3.17-1.248,6.664-1.073,10.021-1.186c8.76,0.025,17.521-0.025,26.293-0.05c0.998,7.687,2.446,15.312,4.156,22.887
		c-3.731,17.109-8.623,33.931-12.654,50.977c-0.736,4.467-4.829,7.35-5.715,11.768c-14.675,59.388-29.625,118.714-44.114,178.152
		c-14.463,56.543-28.902,113.098-43.34,169.654c8.548,2.047,17.221,3.856,26.019,4.417c11.518-45.673,23.149-91.31,34.792-136.946
		c1.56-5.665,2.433-11.643,5.354-16.822c2.733-5.029,3.507-10.794,4.954-16.26c8.136-33.02,16.398-66.014,24.571-99.034
		c6.601-26.468,12.666-53.074,19.804-79.405c1.248,6.227,2.359,12.504,2.87,18.856c-0.998,6.327-2.421,12.691-1.822,19.143
		c1.061,12.779,2.221,25.545,3.132,38.336c2.883,0.836,5.753,1.747,8.623,2.671c1.198,7.775,2.795,15.487,3.844,23.286
		c0.886,5.778-1.061,11.867,1.323,17.421c4.542,10.445,4.443,22.05,6.801,33.057c4.942,25.981,6.252,52.412,8.923,78.681
		c6.527,1.323,13.153,2.196,19.804,2.558c0.05-5.641-0.462-11.269-1.61-16.772c1.21-23.398-3.232-46.522-6.963-69.496
		c8.236,4.804,18.132,4.967,27.342,3.744c13.228-1.56,26.493-2.77,39.771-4.031c4.505-0.399,9.022,0.137,13.515,0.674
		c29.513,3.457,59.076,6.577,88.589,10.021c7.5,0.811,15.424,2.683,22.7-0.324c13.927-5.179,28.353-9.023,42.167-14.426
		c1.722-7.45,0.724-15.424-1.485-22.662c-3.245-4.355-7.413-8.873-13.103-9.522c-14.076-0.849-28.365,2.022-42.304-0.861
		c-10.794-2.446-21.489-5.304-32.446-6.888c-10.333-1.56-19.205-7.425-27.766-12.991c-10.582-7.375-22.887-13.016-35.828-14.114
		c1.073-1.036,2.146-2.072,3.22-3.107c3.794,0,7.962,0.524,11.256-1.835c7.899-5.279,17.433-6.789,26.144-10.208
		c10.083-4.031,21.04-1.81,31.56-1.872c12.891,0,25.894,2.009,38.71-0.175c5.091-0.699,9.359-3.719,13.677-6.29
		c3.769-2.309,7.974-4.168,10.819-7.687c0.636-4.355,1.61-8.698,1.809-13.091c-1.947-4.692-7.026-9.01-12.417-7.537
		c-11.344,2.196-22.313,6.539-33.906,7.35c-9.509-0.724-17.97-5.778-27.117-8.099c-11.793-3.107-22.774-9.721-35.229-9.784
		c-8.049-0.262-16.135-1.335-24.147-0.05c1.922-7.637,5.291-14.788,7.887-22.2c10.62-28.265,21.202-56.543,31.847-84.808
		c26.418,0.212,52.799-1.547,79.23-1.36c14.151,0.275,28.265-1.285,42.417-1.036c14.164-0.125,28.328-0.162,42.491-0.374
		c22.013-1.498,44.089-0.686,66.139-1.323c29.039-1.859,58.203-0.075,87.254-1.909c19.967-0.624,39.958,0.137,59.912-1.21
		C1175.248,1136.555,1194.005,1136.642,1212.748,1136.33z"/>
	<path fill="#FEFEFE" stroke="#FEFEFE" stroke-width="0.5" d="M617.133,1203.817c1.71-7.175,3.494-14.338,5.329-21.476
		c0.449,2.371,0.898,4.755,1.26,7.176c1.947,16.947,4.443,33.843,7.2,50.69c4.617,29.064,9.197,58.14,13.852,87.217
		c0.537,3.432,1.036,6.888,1.56,10.345c2.408,14.925,4.73,29.875,7.076,44.813c0.1,0.586,0.287,1.747,0.387,2.333
		c3.731,22.974,8.174,46.098,6.963,69.496c-2.084,0.449-4.143,0.948-6.202,1.448c-2.708-9.996-6.339-19.779-7.937-30.037
		c-7.725-60.149-15.474-120.299-23.199-180.46C621.962,1231.421,619.142,1217.669,617.133,1203.817z"/>
	<path fill="#918F8E" stroke="#918F8E" stroke-width="0.5" d="M608.872,1237.174c2.658-11.144,5.478-22.25,8.261-33.357
		c2.009,13.852,4.829,27.604,6.289,41.543c7.725,60.162,15.474,120.311,23.199,180.46c1.597,10.258,5.229,20.041,7.937,30.037
		c2.059-0.499,4.118-0.998,6.202-1.448c1.148,5.503,1.66,11.131,1.61,16.772c-6.651-0.362-13.278-1.235-19.804-2.558
		c-2.671-26.269-3.981-52.699-8.923-78.681c-2.359-11.007-2.259-22.612-6.801-33.057c-2.384-5.553-0.437-11.643-1.323-17.421
		c-1.048-7.799-2.646-15.512-3.844-23.286c-3.282-20.054-6.14-40.183-9.933-60.149
		C611.23,1249.678,610.12,1243.401,608.872,1237.174z"/>
	<path fill="#121C23" stroke="#121C23" stroke-width="0.5" d="M641.405,1213.7c3.993,5.491,8.623,11.031,10.42,17.67
		c-2.621,8.661-5.578,17.433-10.408,25.17C641.043,1242.265,640.968,1227.964,641.405,1213.7z"/>
	<path fill="#131D25" stroke="#131D25" stroke-width="0.5" d="M632.881,1217.357c5.154,4.68,2.096,11.855-0.324,17.134
		C632.07,1228.775,632.208,1223.035,632.881,1217.357z"/>
	<path fill="#F4A07E" stroke="#F4A07E" stroke-width="0.5" d="M739.328,1251.15c8.012-1.285,16.098-0.212,24.147,0.05
		c12.454,0.063,23.436,6.676,35.229,9.784c9.147,2.321,17.608,7.375,27.117,8.099c11.593-0.811,22.562-5.154,33.906-7.35
		c5.391-1.473,10.47,2.845,12.417,7.537c-0.2,4.393-1.173,8.735-1.809,13.091c-9.559,2.658-18.943,5.865-28.378,8.898
		c-4.967,1.622-10.283,1.41-15.387,0.699c-18.02-2.646-36.264-3.182-54.384-4.792c-11.319-1.123-22.65,0.362-33.868,1.635
		C738.679,1276.246,738.892,1263.692,739.328,1251.15z"/>
	<path fill="#29343C" stroke="#29343C" stroke-width="0.5" d="M611.742,1256.03c3.794,19.967,6.651,40.095,9.933,60.149
		c-2.87-0.923-5.74-1.834-8.623-2.671c-0.911-12.791-2.072-25.557-3.132-38.336C609.321,1268.721,610.744,1262.356,611.742,1256.03z
		"/>
	<path fill="#C2785B" stroke="#C2785B" stroke-width="0.5" d="M841.956,1291.258c9.434-3.033,18.818-6.24,28.378-8.898
		c-2.845,3.519-7.051,5.378-10.819,7.687c-4.318,2.571-8.586,5.591-13.677,6.29c-12.816,2.184-25.819,0.175-38.71,0.175
		c-10.52,0.062-21.477-2.159-31.56,1.872c-8.71,3.419-18.244,4.929-26.144,10.208c-3.294,2.359-7.462,1.835-11.256,1.835
		c-0.374-7.213-0.137-14.426,0.15-21.626c11.219-1.273,22.55-2.758,33.868-1.635c18.12,1.61,36.364,2.146,54.384,4.792
		C831.674,1292.668,836.99,1292.88,841.956,1291.258z"/>
	<path fill="#C1785C" stroke="#C1785C" stroke-width="0.5" d="M699.033,1320.509c11.581-2.271,22.999-5.329,34.717-6.813
		c-10.932,4.967-22.275,8.935-33.619,12.853c-12.117,3.382-24.609,5.229-36.838,8.174c-5.591,1.335-11.244,2.421-16.959,3.045
		c-0.524-3.457-1.023-6.913-1.56-10.345c8.211-1.897,16.61-3.232,25.058-2.558C679.803,1325.613,689.374,1322.344,699.033,1320.509z
		"/>
	<path fill="#F4A07E" stroke="#F4A07E" stroke-width="0.5" d="M733.75,1313.696l1.198-0.162
		c12.941,1.098,25.245,6.739,35.828,14.114c8.561,5.566,17.433,11.431,27.766,12.991c10.957,1.585,21.651,4.443,32.446,6.888
		c13.939,2.883,28.228,0.012,42.304,0.861c5.69,0.649,9.858,5.166,13.103,9.522c-4.343,4.118-7.799,8.998-11.556,13.627
		c-4.093,5.091-10.47,7.238-16.061,10.196c-5.641,2.795-11.356,6.676-17.97,5.728c-15.986-1.797-32.234-1.859-47.945-5.603
		c-21.052-4.393-42.104-8.748-63.132-13.24c-6.714-1.61-13.278,1.248-19.68,2.895c-9.16,2.421-18.282,5.029-27.429,7.5
		c-9.534,2.621-19.517,2.072-29.214,3.569c-2.346-14.938-4.667-29.887-7.076-44.813c5.715-0.624,11.368-1.71,16.959-3.045
		c12.229-2.945,24.721-4.792,36.838-8.174C711.475,1322.63,722.818,1318.662,733.75,1313.696z"/>
	<path fill="#C1785B" stroke="#C1785B" stroke-width="0.5" d="M874.839,1371.536c3.756-4.63,7.213-9.509,11.556-13.627
		c2.209,7.238,3.207,15.212,1.485,22.662c-13.814,5.403-28.24,9.247-42.167,14.426c-7.275,3.007-15.2,1.135-22.7,0.324
		c-29.513-3.444-59.076-6.564-88.589-10.021c-4.492-0.537-9.01-1.073-13.515-0.674c-13.278,1.26-26.543,2.471-39.771,4.031
		c-9.21,1.223-19.106,1.061-27.342-3.744c-0.1-0.586-0.287-1.747-0.387-2.333c9.696-1.497,19.68-0.948,29.214-3.569
		c9.147-2.471,18.269-5.079,27.429-7.5c6.402-1.647,12.966-4.505,19.68-2.895c21.027,4.492,42.08,8.848,63.132,13.24
		c15.711,3.744,31.959,3.806,47.945,5.603c6.614,0.948,12.329-2.932,17.97-5.728
		C864.369,1378.774,870.746,1376.628,874.839,1371.536z"/>
</g>
</svg>
