<svg xmlns="http://www.w3.org/2000/svg" xmlns:xlink="http://www.w3.org/1999/xlink" id="eb113788-f1f1-4c1f-be62-f1d0ea2e1eb6" width="795.394" height="574.038" data-name="Layer 1" viewBox="0 0 795.394 574.038"><defs><linearGradient id="b2a81085-935f-40be-bb27-75940df8c338" x1="-450.79" x2="-450.79" y1="2803.047" y2="2729.348" gradientTransform="translate(3217.53309 1009.65784) rotate(90)" gradientUnits="userSpaceOnUse"><stop offset="0" stop-color="gray" stop-opacity=".25"/><stop offset=".535" stop-color="gray" stop-opacity=".12"/><stop offset="1" stop-color="gray" stop-opacity=".1"/></linearGradient></defs><title>Graduation</title><ellipse cx="232.058" cy="450.069" fill="#e0e0e0" rx="35.095" ry="5.264" transform="translate(-476.55674 294.92367) rotate(-63.61079)"/><ellipse cx="670.577" cy="667.856" fill="#e0e0e0" rx="35.095" ry="3.577" transform="translate(-428.03695 808.73554) rotate(-63.61079)"/><rect width="21.057" height="70.19" x="397.953" y="566.935" fill="#f55f44" transform="translate(274.52069 -285.26226) rotate(39.54732)"/><rect width="23.692" height="70.19" x="409.325" y="573.566" opacity=".05" transform="translate(489.54965 1134.58125) rotate(-166.7689)"/><rect width="21.057" height="70.19" x="411.926" y="573.868" fill="#f55f44" transform="translate(492.0121 1135.47005) rotate(-166.7689)"/><rect width="73.699" height="489.572" x="414.486" y="314.082" fill="url(#b2a81085-935f-40be-bb27-75940df8c338)" transform="translate(-452.20218 551.7936) rotate(-63.61079)"/><path fill="#f5f5f5" d="M655.01556,699.105c-8.584-4.11751-444.8438-220.718-438.55625-217.5983,24.21371-36.95739,31.19689-62.87545,31.19689-62.87545l438.55625,217.5983S670.81132,663.25857,655.01556,699.105Z" transform="translate(-202.30284 -162.98099)"/><rect width="40.359" height="70.19" x="421.725" y="519.094" opacity=".05" transform="translate(90.06389 -301.64381) rotate(26.38921)"/><rect width="36.849" height="70.19" x="423.48" y="519.094" fill="#f55f44" transform="translate(90.06389 -301.64381) rotate(26.38921)"/><rect width="24.566" height="70.19" x="428.835" y="518.704" opacity=".05" transform="translate(89.80867 -301.33512) rotate(26.38921)"/><rect width="21.057" height="70.19" x="430.59" y="518.704" fill="#f55f44" transform="translate(89.80867 -301.33512) rotate(26.38921)"/><circle cx="261.306" cy="563.925" r="2.926" fill="#dbdbdb"/><g opacity=".5"><rect width="3" height="17" x="29.394" y="482" fill="#47e6b1"/><rect width="3" height="17" x="231.697" y="644.981" fill="#47e6b1" transform="translate(684.3753 257.30284) rotate(90)"/></g><g opacity=".5"><rect width="3" height="17" x="785.394" y="270" fill="#47e6b1"/><rect width="3" height="17" x="987.697" y="432.981" fill="#47e6b1" transform="translate(1228.3753 -710.69716) rotate(90)"/></g><g opacity=".5"><rect width="3" height="17" x="47.394" y="59" fill="#47e6b1"/><rect width="3" height="17" x="249.697" y="221.981" fill="#47e6b1" transform="translate(279.3753 -183.69716) rotate(90)"/></g><g opacity=".5"><rect width="3" height="17" x="695.394" y="33" fill="#47e6b1"/><rect width="3" height="17" x="897.697" y="195.981" fill="#47e6b1" transform="translate(901.3753 -857.69716) rotate(90)"/></g><path fill="#4d8af0" d="M214.59252,416.4373a3.67458,3.67458,0,0,1-2.04749-4.441,1.76592,1.76592,0,0,0,.0799-.40754h0a1.84257,1.84257,0,0,0-3.31045-1.22119h0a1.76637,1.76637,0,0,0-.2039.3618,3.67459,3.67459,0,0,1-4.441,2.04749,1.766,1.766,0,0,0-.40754-.07991h0a1.84258,1.84258,0,0,0-1.22119,3.31045h0a1.76606,1.76606,0,0,0,.3618.20389,3.67462,3.67462,0,0,1,2.04749,4.441,1.76594,1.76594,0,0,0-.07991.40754h0a1.84257,1.84257,0,0,0,3.31045,1.22119h0a1.7659,1.7659,0,0,0,.2039-.3618,3.67459,3.67459,0,0,1,4.441-2.04749,1.76665,1.76665,0,0,0,.40755.07991h0a1.84257,1.84257,0,0,0,1.22119-3.31045h0A1.76684,1.76684,0,0,0,214.59252,416.4373Z" opacity=".5" transform="translate(-202.30284 -162.98099)"/><path fill="#4d8af0" d="M386.59252,219.4373a3.67458,3.67458,0,0,1-2.04749-4.441,1.76592,1.76592,0,0,0,.0799-.40754h0a1.84257,1.84257,0,0,0-3.31045-1.22119h0a1.76637,1.76637,0,0,0-.2039.3618,3.67459,3.67459,0,0,1-4.441,2.04749,1.766,1.766,0,0,0-.40754-.07991h0a1.84258,1.84258,0,0,0-1.22119,3.31045h0a1.76606,1.76606,0,0,0,.3618.20389,3.67462,3.67462,0,0,1,2.04749,4.441,1.76594,1.76594,0,0,0-.07991.40754h0a1.84257,1.84257,0,0,0,3.31045,1.22119h0a1.7659,1.7659,0,0,0,.2039-.3618,3.67459,3.67459,0,0,1,4.441-2.04749,1.76665,1.76665,0,0,0,.40755.07991h0a1.84257,1.84257,0,0,0,1.22119-3.31045h0A1.76684,1.76684,0,0,0,386.59252,219.4373Z" opacity=".5" transform="translate(-202.30284 -162.98099)"/><path fill="#4d8af0" d="M596.59252,730.4373a3.67458,3.67458,0,0,1-2.04749-4.441,1.76592,1.76592,0,0,0,.0799-.40754h0a1.84257,1.84257,0,0,0-3.31045-1.22119h0a1.76637,1.76637,0,0,0-.2039.3618,3.67459,3.67459,0,0,1-4.441,2.04749,1.766,1.766,0,0,0-.40754-.07991h0a1.84258,1.84258,0,0,0-1.22119,3.31045h0a1.76606,1.76606,0,0,0,.3618.20389,3.67462,3.67462,0,0,1,2.04749,4.441,1.76594,1.76594,0,0,0-.07991.40754h0a1.84257,1.84257,0,0,0,3.31045,1.22119h0a1.7659,1.7659,0,0,0,.2039-.3618,3.67459,3.67459,0,0,1,4.441-2.04749,1.76665,1.76665,0,0,0,.40755.07991h0a1.84257,1.84257,0,0,0,1.22119-3.31045h0A1.76684,1.76684,0,0,0,596.59252,730.4373Z" opacity=".5" transform="translate(-202.30284 -162.98099)"/><circle cx="759.394" cy="444" r="6" fill="#f55f44" opacity=".5"/><circle cx="627.394" cy="482" r="6" fill="#4d8af0" opacity=".5"/><circle cx="103.394" cy="541" r="6" fill="#47e6b1" opacity=".5"/><circle cx="411.394" cy="6" r="6" fill="#f55f44" opacity=".5"/><path fill="#55198b" d="M407.19716,520.481l-24,36s8,37,185,36,191-36,191-36l-33-48-101-69Z" transform="translate(-202.30284 -162.98099)"/><path d="M407.19716,520.481l-24,36s8,37,185,36,191-36,191-36l-33-48-101-69Z" opacity=".15" transform="translate(-202.30284 -162.98099)"/><polygon fill="#55198b" points="715.394 224 400.394 363 16.394 224 368.394 64 541.184 143.67 547.374 146.53 715.394 224"/><polygon points="715.394 224 400.394 363 16.394 224 368.394 64 541.184 143.67 547.374 146.53 715.394 224" opacity=".15"/><polygon fill="#f5f5f5" points="553.894 257.32 547.894 257.68 541.184 143.67 547.374 146.53 553.894 257.32"/><path fill="#55198b" d="M411.19716,386.481l-28,170s201-65,376,0l-26-180S498.19716,347.481,411.19716,386.481Z" transform="translate(-202.30284 -162.98099)"/><ellipse cx="553.394" cy="272" fill="#f5f5f5" rx="29" ry="20"/></svg>